NotoSansKhmerUI-Condensed.ufo
<glyph name="exclam" format="2">
  <advance width="269"/>
  <unicode hex="0021"/>
  <note>
exclam
</note>
  <outline>
    <contour>
      <point x="163" y="445" type="line"/>
      <point x="188" y="958" type="line"/>
      <point x="81" y="958" type="line"/>
      <point x="106" y="445" type="line"/>
    </contour>
    <contour>
      <point x="72" y="298" type="curve" smooth="yes"/>
      <point x="72" y="250"/>
      <point x="99" y="230"/>
      <point x="134" y="230" type="curve" smooth="yes"/>
      <point x="167" y="230"/>
      <point x="196" y="250"/>
      <point x="196" y="298" type="curve" smooth="yes"/>
      <point x="196" y="347"/>
      <point x="167" y="365"/>
      <point x="134" y="365" type="curve" smooth="yes"/>
      <point x="99" y="365"/>
      <point x="72" y="347"/>
    </contour>
  </outline>
</glyph>
<glyph name="quotesingle" format="2">
  <advance width="208"/>
  <unicode hex="0027"/>
  <note>
quotesingle
</note>
  <outline>
    <contour>
      <point x="75" y="700" type="line"/>
      <point x="136" y="700" type="line"/>
      <point x="152" y="958" type="line"/>
      <point x="58" y="958" type="line"/>
    </contour>
  </outline>
</glyph>
<glyph name="parenleft" format="2">
  <advance width="300"/>
  <unicode hex="0028"/>
  <note>
parenleft
</note>
  <outline>
    <contour>
      <point x="40" y="518" type="curve" smooth="yes"/>
      <point x="40" y="357"/>
      <point x="86" y="203"/>
      <point x="187" y="86" type="curve"/>
      <point x="269" y="86" type="line"/>
      <point x="177" y="211"/>
      <point x="129" y="364"/>
      <point x="129" y="519" type="curve" smooth="yes"/>
      <point x="129" y="677"/>
      <point x="177" y="833"/>
      <point x="270" y="958" type="curve"/>
      <point x="187" y="958" type="line"/>
      <point x="86" y="837"/>
      <point x="40" y="681"/>
    </contour>
  </outline>
</glyph>
<glyph name="hyphen" format="2">
  <advance width="274"/>
  <unicode hex="002D"/>
  <note>
hyphen
</note>
  <outline>
    <contour>
      <point x="27" y="473" type="line"/>
      <point x="247" y="473" type="line"/>
      <point x="247" y="554" type="line"/>
      <point x="27" y="554" type="line"/>
    </contour>
  </outline>
</glyph>
<glyph name="period" format="2">
  <advance width="268"/>
  <unicode hex="002E"/>
  <note>
period
</note>
  <outline>
    <contour>
      <point x="72" y="298" type="curve" smooth="yes"/>
      <point x="72" y="250"/>
      <point x="99" y="230"/>
      <point x="133" y="230" type="curve" smooth="yes"/>
      <point x="167" y="230"/>
      <point x="196" y="250"/>
      <point x="196" y="298" type="curve" smooth="yes"/>
      <point x="196" y="347"/>
      <point x="167" y="365"/>
      <point x="133" y="365" type="curve" smooth="yes"/>
      <point x="99" y="365"/>
      <point x="72" y="347"/>
    </contour>
  </outline>
</glyph>
<glyph name="colon" format="2">
  <advance width="228"/>
  <unicode hex="003A"/>
  <note>
colon
</note>
  <outline>
    <contour>
      <point x="60" y="299" type="curve" smooth="yes"/>
      <point x="60" y="257"/>
      <point x="79" y="235"/>
      <point x="114" y="235" type="curve" smooth="yes"/>
      <point x="145" y="235"/>
      <point x="168" y="255"/>
      <point x="168" y="299" type="curve" smooth="yes"/>
      <point x="168" y="344"/>
      <point x="147" y="363"/>
      <point x="114" y="363" type="curve" smooth="yes"/>
      <point x="78" y="363"/>
      <point x="60" y="341"/>
    </contour>
    <contour>
      <point x="60" y="720" type="curve" smooth="yes"/>
      <point x="60" y="677"/>
      <point x="79" y="655"/>
      <point x="114" y="655" type="curve" smooth="yes"/>
      <point x="145" y="655"/>
      <point x="168" y="676"/>
      <point x="168" y="720" type="curve" smooth="yes"/>
      <point x="168" y="762"/>
      <point x="149" y="784"/>
      <point x="114" y="784" type="curve" smooth="yes"/>
      <point x="78" y="784"/>
      <point x="60" y="762"/>
    </contour>
  </outline>
</glyph>
<glyph name="semicolon" format="2">
  <advance width="228"/>
  <unicode hex="003B"/>
  <note>
semicolon
</note>
  <outline>
    <contour>
      <point x="167" y="358" type="line"/>
      <point x="82" y="358" type="line"/>
      <point x="74" y="286"/>
      <point x="58" y="194"/>
      <point x="36" y="112" type="curve"/>
      <point x="98" y="112" type="line"/>
      <point x="130" y="184"/>
      <point x="155" y="263"/>
      <point x="174" y="347" type="curve"/>
    </contour>
    <contour>
      <point x="60" y="720" type="curve" smooth="yes"/>
      <point x="60" y="677"/>
      <point x="79" y="655"/>
      <point x="114" y="655" type="curve" smooth="yes"/>
      <point x="145" y="655"/>
      <point x="168" y="676"/>
      <point x="168" y="720" type="curve" smooth="yes"/>
      <point x="168" y="762"/>
      <point x="149" y="784"/>
      <point x="114" y="784" type="curve" smooth="yes"/>
      <point x="78" y="784"/>
      <point x="60" y="762"/>
    </contour>
  </outline>
</glyph>
<glyph name="question" format="2">
  <advance width="318"/>
  <unicode hex="003F"/>
  <note>
question
</note>
  <outline>
    <contour>
      <point x="98" y="445" type="line"/>
      <point x="163" y="445" type="line"/>
      <point x="163" y="465" type="line" smooth="yes"/>
      <point x="163" y="519"/>
      <point x="175" y="550"/>
      <point x="215" y="602" type="curve" smooth="yes"/>
      <point x="272" y="677"/>
      <point x="297" y="718"/>
      <point x="297" y="804" type="curve" smooth="yes"/>
      <point x="297" y="909"/>
      <point x="243" y="968"/>
      <point x="145" y="968" type="curve" smooth="yes"/>
      <point x="98" y="968"/>
      <point x="54" y="953"/>
      <point x="12" y="922" type="curve"/>
      <point x="43" y="858" type="line"/>
      <point x="76" y="881"/>
      <point x="104" y="894"/>
      <point x="141" y="894" type="curve" smooth="yes"/>
      <point x="188" y="894"/>
      <point x="216" y="861"/>
      <point x="216" y="797" type="curve" smooth="yes"/>
      <point x="216" y="739"/>
      <point x="198" y="699"/>
      <point x="151" y="638" type="curve" smooth="yes"/>
      <point x="110" y="586"/>
      <point x="98" y="542"/>
      <point x="98" y="474" type="curve" smooth="yes"/>
    </contour>
    <contour>
      <point x="78" y="299" type="curve" smooth="yes"/>
      <point x="78" y="257"/>
      <point x="98" y="235"/>
      <point x="132" y="235" type="curve" smooth="yes"/>
      <point x="164" y="235"/>
      <point x="186" y="255"/>
      <point x="186" y="299" type="curve" smooth="yes"/>
      <point x="186" y="344"/>
      <point x="165" y="363"/>
      <point x="132" y="363" type="curve" smooth="yes"/>
      <point x="97" y="363"/>
      <point x="78" y="341"/>
    </contour>
  </outline>
</glyph>
<glyph name="guillemotleft" format="2">
  <advance width="460"/>
  <unicode hex="00AB"/>
  <note>
guillemotleft
</note>
  <outline>
    <contour>
      <point x="35" y="515" type="line"/>
      <point x="35" y="501" type="line"/>
      <point x="179" y="307" type="line"/>
      <point x="236" y="338" type="line"/>
      <point x="130" y="508" type="line"/>
      <point x="236" y="680" type="line"/>
      <point x="179" y="709" type="line"/>
    </contour>
    <contour>
      <point x="224" y="515" type="line"/>
      <point x="224" y="501" type="line"/>
      <point x="369" y="307" type="line"/>
      <point x="425" y="338" type="line"/>
      <point x="320" y="508" type="line"/>
      <point x="425" y="680" type="line"/>
      <point x="369" y="709" type="line"/>
    </contour>
  </outline>
</glyph>
<glyph name="guillemotright" format="2">
  <advance width="460"/>
  <unicode hex="00BB"/>
  <note>
guillemotright
</note>
  <outline>
    <contour>
      <point x="426" y="501" type="line"/>
      <point x="426" y="515" type="line"/>
      <point x="281" y="709" type="line"/>
      <point x="225" y="680" type="line"/>
      <point x="330" y="508" type="line"/>
      <point x="225" y="338" type="line"/>
      <point x="281" y="307" type="line"/>
    </contour>
    <contour>
      <point x="237" y="501" type="line"/>
      <point x="237" y="515" type="line"/>
      <point x="91" y="709" type="line"/>
      <point x="36" y="680" type="line"/>
      <point x="140" y="508" type="line"/>
      <point x="36" y="338" type="line"/>
      <point x="91" y="307" type="line"/>
    </contour>
  </outline>
</glyph>
<glyph name="uni1780" format="2">
  <advance width="523"/>
  <unicode hex="1780"/>
  <note>
uni1780
</note>
  <outline>
    <contour>
      <point x="78" y="713" type="line"/>
      <point x="445" y="713" type="line"/>
      <point x="445" y="780" type="line"/>
      <point x="78" y="780" type="line"/>
    </contour>
    <contour>
      <point x="78" y="244" type="line"/>
      <point x="155" y="244" type="line"/>
      <point x="155" y="487" type="line" smooth="yes"/>
      <point x="155" y="547"/>
      <point x="191" y="577"/>
      <point x="261" y="577" type="curve" smooth="yes"/>
      <point x="333" y="577"/>
      <point x="368" y="547"/>
      <point x="368" y="487" type="curve" smooth="yes"/>
      <point x="368" y="244" type="line"/>
      <point x="445" y="244" type="line"/>
      <point x="445" y="487" type="line" smooth="yes"/>
      <point x="445" y="592"/>
      <point x="384" y="645"/>
      <point x="261" y="645" type="curve" smooth="yes"/>
      <point x="140" y="645"/>
      <point x="78" y="592"/>
      <point x="78" y="487" type="curve" smooth="yes"/>
    </contour>
  </outline>
</glyph>
<glyph name="uni1781" format="2">
  <advance width="526"/>
  <unicode hex="1781"/>
  <note>
uni1781
</note>
  <outline>
    <contour>
      <point x="263" y="244" type="curve" smooth="yes"/>
      <point x="398" y="244"/>
      <point x="446" y="312"/>
      <point x="446" y="402" type="curve" smooth="yes"/>
      <point x="446" y="448" type="line"/>
      <point x="369" y="448" type="line"/>
      <point x="369" y="402" type="line" smooth="yes"/>
      <point x="369" y="342"/>
      <point x="342" y="311"/>
      <point x="263" y="311" type="curve" smooth="yes"/>
      <point x="184" y="311"/>
      <point x="156" y="342"/>
      <point x="156" y="402" type="curve" smooth="yes"/>
      <point x="156" y="425" type="line"/>
      <point x="228" y="438" type="line" smooth="yes"/>
      <point x="373" y="464"/>
      <point x="446" y="524"/>
      <point x="446" y="622" type="curve" smooth="yes"/>
      <point x="446" y="712"/>
      <point x="398" y="780"/>
      <point x="263" y="780" type="curve" smooth="yes"/>
      <point x="128" y="780"/>
      <point x="80" y="709"/>
      <point x="80" y="640" type="curve" smooth="yes"/>
      <point x="80" y="580"/>
      <point x="118" y="545"/>
      <point x="170" y="545" type="curve" smooth="yes"/>
      <point x="197" y="545" type="line"/>
      <point x="197" y="615" type="line"/>
      <point x="170" y="615"/>
      <point x="156" y="629"/>
      <point x="156" y="658" type="curve" smooth="yes"/>
      <point x="156" y="687"/>
      <point x="184" y="713"/>
      <point x="263" y="713" type="curve" smooth="yes"/>
      <point x="342" y="713"/>
      <point x="369" y="682"/>
      <point x="369" y="622" type="curve" smooth="yes"/>
      <point x="369" y="560"/>
      <point x="321" y="522"/>
      <point x="224" y="505" type="curve" smooth="yes"/>
      <point x="79" y="480" type="line"/>
      <point x="79" y="402" type="line" smooth="yes"/>
      <point x="79" y="312"/>
      <point x="128" y="244"/>
    </contour>
  </outline>
</glyph>
<glyph name="uni1782" format="2">
  <advance width="523"/>
  <unicode hex="1782"/>
  <note>
uni1782
</note>
  <outline>
    <contour>
      <point x="78" y="713" type="line"/>
      <point x="445" y="713" type="line"/>
      <point x="445" y="780" type="line"/>
      <point x="78" y="780" type="line"/>
    </contour>
    <contour>
      <point x="78" y="244" type="line"/>
      <point x="155" y="244" type="line"/>
      <point x="155" y="286" type="line"/>
      <point x="167" y="341"/>
      <point x="184" y="372"/>
      <point x="240" y="372" type="curve" smooth="yes"/>
      <point x="282" y="372" type="line"/>
      <point x="282" y="439" type="line"/>
      <point x="231" y="439" type="line" smooth="yes"/>
      <point x="199" y="439"/>
      <point x="174" y="426"/>
      <point x="155" y="400" type="curve"/>
      <point x="155" y="487" type="line" smooth="yes"/>
      <point x="155" y="547"/>
      <point x="191" y="577"/>
      <point x="262" y="577" type="curve" smooth="yes"/>
      <point x="333" y="577"/>
      <point x="368" y="547"/>
      <point x="368" y="487" type="curve" smooth="yes"/>
      <point x="368" y="244" type="line"/>
      <point x="445" y="244" type="line"/>
      <point x="445" y="487" type="line" smooth="yes"/>
      <point x="445" y="592"/>
      <point x="384" y="645"/>
      <point x="262" y="645" type="curve" smooth="yes"/>
      <point x="140" y="645"/>
      <point x="78" y="592"/>
      <point x="78" y="487" type="curve" smooth="yes"/>
    </contour>
  </outline>
</glyph>
<glyph name="uni1784" format="2">
  <advance width="516"/>
  <unicode hex="1784"/>
  <note>
uni1784
</note>
  <outline>
    <contour>
      <point x="71" y="244" type="line"/>
      <point x="160" y="244" type="line"/>
      <point x="255" y="347" type="line"/>
      <point x="349" y="244" type="line"/>
      <point x="438" y="244" type="line"/>
      <point x="438" y="555" type="line" smooth="yes"/>
      <point x="438" y="622"/>
      <point x="418" y="651"/>
      <point x="374" y="676" type="curve"/>
      <point x="389" y="693"/>
      <point x="397" y="709"/>
      <point x="397" y="735" type="curve" smooth="yes"/>
      <point x="397" y="774"/>
      <point x="372" y="808"/>
      <point x="321" y="808" type="curve" smooth="yes"/>
      <point x="269" y="808"/>
      <point x="243" y="775"/>
      <point x="243" y="736" type="curve" smooth="yes"/>
      <point x="243" y="710"/>
      <point x="252" y="690"/>
      <point x="269" y="676" type="curve"/>
      <point x="242" y="667"/>
      <point x="226" y="665"/>
      <point x="206" y="665" type="curve" smooth="yes"/>
      <point x="168" y="665"/>
      <point x="148" y="689"/>
      <point x="148" y="721" type="curve" smooth="yes"/>
      <point x="148" y="810" type="line"/>
      <point x="72" y="810" type="line"/>
      <point x="72" y="721" type="line" smooth="yes"/>
      <point x="72" y="637"/>
      <point x="132" y="597"/>
      <point x="206" y="597" type="curve" smooth="yes"/>
      <point x="246" y="597"/>
      <point x="284" y="613"/>
      <point x="322" y="629" type="curve"/>
      <point x="344" y="613"/>
      <point x="361" y="593"/>
      <point x="361" y="553" type="curve" smooth="yes"/>
      <point x="361" y="326" type="line"/>
      <point x="255" y="442" type="line"/>
      <point x="148" y="325" type="line"/>
      <point x="148" y="495" type="line" smooth="yes"/>
      <point x="148" y="542"/>
      <point x="126" y="566"/>
      <point x="84" y="566" type="curve" smooth="yes"/>
      <point x="31" y="566" type="line"/>
      <point x="31" y="499" type="line"/>
      <point x="59" y="499"/>
      <point x="71" y="492"/>
      <point x="71" y="471" type="curve" smooth="yes"/>
    </contour>
  </outline>
</glyph>
<glyph name="uni1787" format="2">
  <advance width="535"/>
  <unicode hex="1787"/>
  <note>
uni1787
</note>
  <outline>
    <contour>
      <point x="91" y="244" type="line"/>
      <point x="180" y="244" type="line"/>
      <point x="274" y="347" type="line"/>
      <point x="368" y="244" type="line"/>
      <point x="457" y="244" type="line"/>
      <point x="457" y="605" type="line"/>
      <point x="380" y="605" type="line"/>
      <point x="380" y="326" type="line"/>
      <point x="274" y="442" type="line"/>
      <point x="168" y="325" type="line"/>
      <point x="168" y="554" type="line"/>
      <point x="124" y="614"/>
      <point x="106" y="639"/>
      <point x="106" y="654" type="curve" smooth="yes"/>
      <point x="106" y="657"/>
      <point x="109" y="664"/>
      <point x="116" y="673" type="curve"/>
      <point x="347" y="673" type="line" smooth="yes"/>
      <point x="416" y="673"/>
      <point x="457" y="703"/>
      <point x="457" y="764" type="curve" smooth="yes"/>
      <point x="457" y="780" type="line"/>
      <point x="380" y="780" type="line"/>
      <point x="380" y="764" type="line" smooth="yes"/>
      <point x="380" y="748"/>
      <point x="365" y="740"/>
      <point x="347" y="740" type="curve" smooth="yes"/>
      <point x="114" y="740" type="line"/>
      <point x="56" y="647"/>
      <point x="50" y="647"/>
      <point x="50" y="620" type="curve" smooth="yes"/>
      <point x="50" y="603"/>
      <point x="62" y="582"/>
      <point x="91" y="538" type="curve"/>
    </contour>
  </outline>
</glyph>
<glyph name="uni1788" format="2">
  <advance width="1048"/>
  <unicode hex="1788"/>
  <note>
uni1788
</note>
  <outline>
    <contour>
      <point x="959" y="569" type="line"/>
      <point x="882" y="569" type="line"/>
      <point x="882" y="402" type="line" smooth="yes"/>
      <point x="882" y="342"/>
      <point x="851" y="311"/>
      <point x="788" y="311" type="curve" smooth="yes"/>
      <point x="726" y="311"/>
      <point x="694" y="342"/>
      <point x="694" y="402" type="curve" smooth="yes"/>
      <point x="694" y="569" type="line"/>
      <point x="617" y="569" type="line"/>
      <point x="617" y="402" type="line" smooth="yes"/>
      <point x="617" y="342"/>
      <point x="586" y="311"/>
      <point x="521" y="311" type="curve" smooth="yes"/>
      <point x="457" y="311"/>
      <point x="425" y="342"/>
      <point x="425" y="402" type="curve" smooth="yes"/>
      <point x="425" y="622" type="line" smooth="yes"/>
      <point x="425" y="727"/>
      <point x="367" y="780"/>
      <point x="252" y="780" type="curve" smooth="yes"/>
      <point x="137" y="780"/>
      <point x="78" y="727"/>
      <point x="78" y="622" type="curve" smooth="yes"/>
      <point x="78" y="473" type="line"/>
      <point x="155" y="473" type="line"/>
      <point x="155" y="622" type="line" smooth="yes"/>
      <point x="155" y="682"/>
      <point x="187" y="713"/>
      <point x="252" y="713" type="curve" smooth="yes"/>
      <point x="316" y="713"/>
      <point x="348" y="682"/>
      <point x="348" y="622" type="curve" smooth="yes"/>
      <point x="348" y="402" type="line" smooth="yes"/>
      <point x="348" y="297"/>
      <point x="406" y="244"/>
      <point x="521" y="244" type="curve" smooth="yes"/>
      <point x="582" y="244"/>
      <point x="627" y="260"/>
      <point x="656" y="292" type="curve"/>
      <point x="685" y="260"/>
      <point x="728" y="244"/>
      <point x="788" y="244" type="curve" smooth="yes"/>
      <point x="902" y="244"/>
      <point x="959" y="297"/>
      <point x="959" y="402" type="curve" smooth="yes"/>
    </contour>
    <contour>
      <point x="78" y="504" type="line"/>
      <point x="78" y="304" type="line" smooth="yes"/>
      <point x="78" y="264"/>
      <point x="104" y="244"/>
      <point x="144" y="244" type="curve" smooth="yes"/>
      <point x="160" y="244" type="line" smooth="yes"/>
      <point x="213" y="244"/>
      <point x="256" y="288"/>
      <point x="256" y="357" type="curve" smooth="yes"/>
      <point x="256" y="431"/>
      <point x="206" y="463"/>
      <point x="155" y="463" type="curve"/>
      <point x="155" y="504" type="line" smooth="yes"/>
    </contour>
    <contour>
      <point x="155" y="311" type="curve"/>
      <point x="155" y="395" type="line"/>
      <point x="180" y="394"/>
      <point x="193" y="382"/>
      <point x="193" y="355" type="curve" smooth="yes"/>
      <point x="193" y="327"/>
      <point x="180" y="311"/>
    </contour>
    <contour>
      <point x="882" y="550" type="line"/>
      <point x="959" y="550" type="line"/>
      <point x="959" y="604" type="line"/>
      <point x="877" y="712" type="line"/>
      <point x="877" y="713" type="line"/>
      <point x="978" y="713" type="line"/>
      <point x="978" y="780" type="line"/>
      <point x="877" y="780" type="line"/>
      <point x="832" y="709"/>
      <point x="824" y="696"/>
      <point x="824" y="685" type="curve" smooth="yes"/>
      <point x="824" y="672"/>
      <point x="829" y="665"/>
      <point x="882" y="588" type="curve"/>
    </contour>
    <contour>
      <point x="617" y="550" type="line"/>
      <point x="694" y="550" type="line"/>
      <point x="694" y="604" type="line"/>
      <point x="612" y="712" type="line"/>
      <point x="612" y="713" type="line"/>
      <point x="713" y="713" type="line"/>
      <point x="713" y="780" type="line"/>
      <point x="612" y="780" type="line"/>
      <point x="567" y="709"/>
      <point x="559" y="696"/>
      <point x="559" y="685" type="curve" smooth="yes"/>
      <point x="559" y="672"/>
      <point x="564" y="665"/>
      <point x="617" y="588" type="curve"/>
    </contour>
  </outline>
</glyph>
<glyph name="uni178A" format="2">
  <advance width="522"/>
  <unicode hex="178A"/>
  <note>
uni178A
</note>
  <outline>
    <contour>
      <point x="78" y="664" type="line"/>
      <point x="333" y="664" type="line" smooth="yes"/>
      <point x="414" y="664"/>
      <point x="444" y="694"/>
      <point x="444" y="756" type="curve" smooth="yes"/>
      <point x="444" y="810" type="line"/>
      <point x="367" y="810" type="line"/>
      <point x="367" y="756" type="line" smooth="yes"/>
      <point x="367" y="739"/>
      <point x="352" y="731"/>
      <point x="322" y="731" type="curve" smooth="yes"/>
      <point x="155" y="731" type="line"/>
      <point x="155" y="784" type="line"/>
      <point x="78" y="784" type="line"/>
    </contour>
    <contour>
      <point x="78" y="244" type="line"/>
      <point x="166" y="244" type="line"/>
      <point x="261" y="347" type="line"/>
      <point x="356" y="244" type="line"/>
      <point x="444" y="244" type="line"/>
      <point x="444" y="596" type="line"/>
      <point x="367" y="596" type="line"/>
      <point x="367" y="326" type="line"/>
      <point x="261" y="442" type="line"/>
      <point x="155" y="325" type="line"/>
      <point x="155" y="596" type="line"/>
      <point x="78" y="596" type="line"/>
    </contour>
  </outline>
</glyph>
<glyph name="uni178B" format="2">
  <advance width="563"/>
  <unicode hex="178B"/>
  <note>
uni178B
</note>
  <outline>
    <contour>
      <point x="272" y="244" type="curve" smooth="yes"/>
      <point x="394" y="244"/>
      <point x="455" y="297"/>
      <point x="455" y="402" type="curve" smooth="yes"/>
      <point x="455" y="539" type="line"/>
      <point x="353" y="656" type="line"/>
      <point x="354" y="658" type="line"/>
      <point x="422" y="658" type="line" smooth="yes"/>
      <point x="471" y="658"/>
      <point x="485" y="681"/>
      <point x="485" y="733" type="curve" smooth="yes"/>
      <point x="485" y="813" type="line"/>
      <point x="408" y="813" type="line"/>
      <point x="408" y="752" type="line" smooth="yes"/>
      <point x="408" y="733"/>
      <point x="399" y="725"/>
      <point x="378" y="725" type="curve" smooth="yes"/>
      <point x="339" y="725" type="line"/>
      <point x="290" y="649"/>
      <point x="288" y="644"/>
      <point x="288" y="633" type="curve" smooth="yes"/>
      <point x="288" y="615"/>
      <point x="298" y="609"/>
      <point x="378" y="503" type="curve"/>
      <point x="378" y="402" type="line" smooth="yes"/>
      <point x="378" y="342"/>
      <point x="343" y="311"/>
      <point x="272" y="311" type="curve" smooth="yes"/>
      <point x="201" y="311"/>
      <point x="166" y="342"/>
      <point x="166" y="402" type="curve" smooth="yes"/>
      <point x="166" y="730" type="line" smooth="yes"/>
      <point x="166" y="763"/>
      <point x="145" y="780"/>
      <point x="104" y="780" type="curve" smooth="yes"/>
      <point x="40" y="780" type="line"/>
      <point x="40" y="713" type="line"/>
      <point x="73" y="713"/>
      <point x="89" y="705"/>
      <point x="89" y="690" type="curve" smooth="yes"/>
      <point x="89" y="402" type="line" smooth="yes"/>
      <point x="89" y="297"/>
      <point x="150" y="244"/>
    </contour>
  </outline>
</glyph>
<glyph name="uni178C" format="2">
  <advance width="523"/>
  <unicode hex="178C"/>
  <note>
uni178C
</note>
  <outline>
    <contour>
      <point x="368" y="234" type="line"/>
      <point x="445" y="234" type="line"/>
      <point x="445" y="438" type="line"/>
      <point x="368" y="438" type="line"/>
      <point x="368" y="431" type="line" smooth="yes"/>
      <point x="368" y="380"/>
      <point x="269" y="311"/>
      <point x="217" y="311" type="curve" smooth="yes"/>
      <point x="179" y="311"/>
      <point x="155" y="342"/>
      <point x="155" y="402" type="curve" smooth="yes"/>
      <point x="155" y="435" type="line"/>
      <point x="227" y="448" type="line" smooth="yes"/>
      <point x="372" y="474"/>
      <point x="445" y="538"/>
      <point x="445" y="660" type="curve" smooth="yes"/>
      <point x="445" y="729"/>
      <point x="417" y="790"/>
      <point x="357" y="790" type="curve" smooth="yes"/>
      <point x="322" y="790"/>
      <point x="292" y="768"/>
      <point x="263" y="729" type="curve"/>
      <point x="262" y="729" type="line"/>
      <point x="232" y="770"/>
      <point x="213" y="790"/>
      <point x="178" y="790" type="curve" smooth="yes"/>
      <point x="127" y="790"/>
      <point x="79" y="740"/>
      <point x="79" y="671" type="curve" smooth="yes"/>
      <point x="79" y="587"/>
      <point x="120" y="555"/>
      <point x="172" y="555" type="curve" smooth="yes"/>
      <point x="196" y="555" type="line"/>
      <point x="196" y="625" type="line"/>
      <point x="169" y="625"/>
      <point x="155" y="637"/>
      <point x="155" y="670" type="curve" smooth="yes"/>
      <point x="155" y="696"/>
      <point x="167" y="717"/>
      <point x="185" y="717" type="curve" smooth="yes"/>
      <point x="216" y="717"/>
      <point x="236" y="656"/>
      <point x="262" y="656" type="curve" smooth="yes"/>
      <point x="276" y="656"/>
      <point x="287" y="673"/>
      <point x="298" y="689" type="curve" smooth="yes"/>
      <point x="308" y="704"/>
      <point x="320" y="717"/>
      <point x="336" y="717" type="curve" smooth="yes"/>
      <point x="355" y="717"/>
      <point x="368" y="695"/>
      <point x="368" y="653" type="curve" smooth="yes"/>
      <point x="368" y="570"/>
      <point x="320" y="532"/>
      <point x="223" y="515" type="curve" smooth="yes"/>
      <point x="78" y="490" type="line"/>
      <point x="78" y="402" type="line" smooth="yes"/>
      <point x="78" y="312"/>
      <point x="124" y="244"/>
      <point x="214" y="244" type="curve" smooth="yes"/>
      <point x="271" y="244"/>
      <point x="307" y="276"/>
      <point x="367" y="319" type="curve"/>
      <point x="368" y="319" type="line"/>
    </contour>
  </outline>
</glyph>
<glyph name="uni1790" format="2">
  <advance width="517"/>
  <unicode hex="1790"/>
  <note>
uni1790
</note>
  <outline>
    <contour>
      <point x="446" y="422" type="line"/>
      <point x="369" y="422" type="line"/>
      <point x="369" y="402" type="line" smooth="yes"/>
      <point x="369" y="342"/>
      <point x="335" y="311"/>
      <point x="263" y="311" type="curve" smooth="yes"/>
      <point x="193" y="311"/>
      <point x="158" y="342"/>
      <point x="158" y="402" type="curve" smooth="yes"/>
      <point x="158" y="564" type="line"/>
      <point x="114" y="624"/>
      <point x="96" y="649"/>
      <point x="96" y="664" type="curve" smooth="yes"/>
      <point x="96" y="667"/>
      <point x="98" y="671"/>
      <point x="106" y="683" type="curve"/>
      <point x="363" y="683" type="line" smooth="yes"/>
      <point x="418" y="683"/>
      <point x="447" y="713"/>
      <point x="447" y="774" type="curve" smooth="yes"/>
      <point x="447" y="790" type="line"/>
      <point x="370" y="790" type="line"/>
      <point x="370" y="774" type="line" smooth="yes"/>
      <point x="370" y="758"/>
      <point x="363" y="750"/>
      <point x="340" y="750" type="curve" smooth="yes"/>
      <point x="104" y="750" type="line"/>
      <point x="46" y="657"/>
      <point x="40" y="657"/>
      <point x="40" y="630" type="curve" smooth="yes"/>
      <point x="40" y="613"/>
      <point x="52" y="592"/>
      <point x="81" y="548" type="curve"/>
      <point x="81" y="402" type="line" smooth="yes"/>
      <point x="81" y="297"/>
      <point x="142" y="244"/>
      <point x="263" y="244" type="curve" smooth="yes"/>
      <point x="386" y="244"/>
      <point x="446" y="297"/>
      <point x="446" y="402" type="curve" smooth="yes"/>
    </contour>
    <contour>
      <point x="446" y="401" type="line"/>
      <point x="446" y="574" type="line" smooth="yes"/>
      <point x="446" y="613"/>
      <point x="421" y="633"/>
      <point x="379" y="633" type="curve" smooth="yes"/>
      <point x="323" y="633"/>
      <point x="277" y="597"/>
      <point x="277" y="531" type="curve" smooth="yes"/>
      <point x="277" y="471"/>
      <point x="313" y="439"/>
      <point x="369" y="439" type="curve"/>
      <point x="369" y="401" type="line"/>
    </contour>
    <contour>
      <point x="370" y="507" type="line"/>
      <point x="346" y="507"/>
      <point x="333" y="516"/>
      <point x="333" y="536" type="curve" smooth="yes"/>
      <point x="333" y="556"/>
      <point x="346" y="566"/>
      <point x="370" y="566" type="curve"/>
    </contour>
  </outline>
</glyph>
<glyph name="uni1791" format="2">
  <advance width="522"/>
  <unicode hex="1791"/>
  <note>
uni1791
</note>
  <outline>
    <contour>
      <point x="258" y="244" type="curve" smooth="yes"/>
      <point x="366" y="244"/>
      <point x="419" y="297"/>
      <point x="419" y="402" type="curve" smooth="yes"/>
      <point x="419" y="424" type="line"/>
      <point x="431" y="430"/>
      <point x="444" y="451"/>
      <point x="444" y="480" type="curve" smooth="yes"/>
      <point x="444" y="508"/>
      <point x="424" y="537"/>
      <point x="393" y="537" type="curve" smooth="yes"/>
      <point x="370" y="537"/>
      <point x="352" y="523"/>
      <point x="346" y="497" type="curve"/>
      <point x="210" y="520"/>
      <point x="154" y="548"/>
      <point x="154" y="622" type="curve" smooth="yes"/>
      <point x="154" y="682"/>
      <point x="182" y="713"/>
      <point x="261" y="713" type="curve" smooth="yes"/>
      <point x="340" y="713"/>
      <point x="367" y="679"/>
      <point x="367" y="632" type="curve" smooth="yes"/>
      <point x="367" y="608" type="line"/>
      <point x="444" y="608" type="line"/>
      <point x="444" y="632" type="line" smooth="yes"/>
      <point x="444" y="709"/>
      <point x="396" y="780"/>
      <point x="261" y="780" type="curve" smooth="yes"/>
      <point x="126" y="780"/>
      <point x="78" y="712"/>
      <point x="78" y="622" type="curve" smooth="yes"/>
      <point x="78" y="512"/>
      <point x="155" y="462"/>
      <point x="342" y="429" type="curve"/>
      <point x="342" y="402" type="line" smooth="yes"/>
      <point x="342" y="342"/>
      <point x="314" y="311"/>
      <point x="258" y="311" type="curve" smooth="yes"/>
      <point x="203" y="311"/>
      <point x="175" y="342"/>
      <point x="175" y="402" type="curve" smooth="yes"/>
      <point x="175" y="428" type="line"/>
      <point x="98" y="428" type="line"/>
      <point x="98" y="402" type="line" smooth="yes"/>
      <point x="98" y="297"/>
      <point x="151" y="244"/>
    </contour>
  </outline>
</glyph>
<glyph name="uni1792" format="2">
  <advance width="525"/>
  <unicode hex="1792"/>
  <note>
uni1792
</note>
  <outline>
    <contour>
      <point x="446" y="420" type="line"/>
      <point x="369" y="420" type="line"/>
      <point x="369" y="326" type="line"/>
      <point x="264" y="432" type="line"/>
      <point x="158" y="325" type="line"/>
      <point x="158" y="594" type="line"/>
      <point x="114" y="654"/>
      <point x="96" y="679"/>
      <point x="96" y="694" type="curve" smooth="yes"/>
      <point x="96" y="697"/>
      <point x="98" y="701"/>
      <point x="106" y="713" type="curve"/>
      <point x="447" y="713" type="line"/>
      <point x="447" y="780" type="line"/>
      <point x="104" y="780" type="line"/>
      <point x="46" y="687"/>
      <point x="40" y="687"/>
      <point x="40" y="660" type="curve" smooth="yes"/>
      <point x="40" y="643"/>
      <point x="52" y="622"/>
      <point x="81" y="578" type="curve"/>
      <point x="81" y="244" type="line"/>
      <point x="170" y="244" type="line"/>
      <point x="264" y="337" type="line"/>
      <point x="358" y="244" type="line"/>
      <point x="446" y="244" type="line"/>
    </contour>
    <contour>
      <point x="446" y="401" type="line"/>
      <point x="446" y="574" type="line" smooth="yes"/>
      <point x="446" y="613"/>
      <point x="421" y="633"/>
      <point x="379" y="633" type="curve" smooth="yes"/>
      <point x="323" y="633"/>
      <point x="277" y="597"/>
      <point x="277" y="531" type="curve" smooth="yes"/>
      <point x="277" y="471"/>
      <point x="313" y="439"/>
      <point x="369" y="439" type="curve"/>
      <point x="369" y="401" type="line"/>
    </contour>
    <contour>
      <point x="370" y="507" type="line"/>
      <point x="346" y="507"/>
      <point x="333" y="516"/>
      <point x="333" y="536" type="curve" smooth="yes"/>
      <point x="333" y="556"/>
      <point x="346" y="566"/>
      <point x="370" y="566" type="curve"/>
    </contour>
  </outline>
</glyph>
<glyph name="uni1796" format="2">
  <advance width="523"/>
  <unicode hex="1796"/>
  <note>
uni1796
</note>
  <outline>
    <contour>
      <point x="78" y="486" type="line"/>
      <point x="155" y="486" type="line"/>
      <point x="155" y="645" type="line" smooth="yes"/>
      <point x="155" y="686"/>
      <point x="165" y="707"/>
      <point x="185" y="707" type="curve" smooth="yes"/>
      <point x="218" y="707"/>
      <point x="234" y="646"/>
      <point x="262" y="646" type="curve" smooth="yes"/>
      <point x="289" y="646"/>
      <point x="305" y="707"/>
      <point x="339" y="707" type="curve" smooth="yes"/>
      <point x="359" y="707"/>
      <point x="368" y="686"/>
      <point x="368" y="645" type="curve" smooth="yes"/>
      <point x="368" y="244" type="line"/>
      <point x="445" y="244" type="line"/>
      <point x="445" y="645" type="line" smooth="yes"/>
      <point x="445" y="718"/>
      <point x="424" y="780"/>
      <point x="356" y="780" type="curve" smooth="yes"/>
      <point x="313" y="780"/>
      <point x="294" y="759"/>
      <point x="265" y="719" type="curve"/>
      <point x="262" y="719" type="line"/>
      <point x="232" y="760"/>
      <point x="204" y="780"/>
      <point x="170" y="780" type="curve" smooth="yes"/>
      <point x="102" y="780"/>
      <point x="78" y="718"/>
      <point x="78" y="645" type="curve" smooth="yes"/>
    </contour>
    <contour>
      <point x="78" y="504" type="line"/>
      <point x="78" y="304" type="line" smooth="yes"/>
      <point x="78" y="264"/>
      <point x="104" y="244"/>
      <point x="144" y="244" type="curve" smooth="yes"/>
      <point x="160" y="244" type="line" smooth="yes"/>
      <point x="213" y="244"/>
      <point x="256" y="288"/>
      <point x="256" y="357" type="curve" smooth="yes"/>
      <point x="256" y="431"/>
      <point x="206" y="463"/>
      <point x="155" y="463" type="curve"/>
      <point x="155" y="504" type="line" smooth="yes"/>
    </contour>
    <contour>
      <point x="155" y="311" type="curve"/>
      <point x="155" y="395" type="line"/>
      <point x="180" y="394"/>
      <point x="193" y="382"/>
      <point x="193" y="355" type="curve" smooth="yes"/>
      <point x="193" y="327"/>
      <point x="180" y="311"/>
    </contour>
  </outline>
</glyph>
<glyph name="uni179A" format="2">
  <advance width="273"/>
  <unicode hex="179A"/>
  <note>
uni179A
</note>
  <outline>
    <contour>
      <point x="127" y="550" type="line"/>
      <point x="204" y="550" type="line"/>
      <point x="204" y="604" type="line"/>
      <point x="122" y="712" type="line"/>
      <point x="122" y="713" type="line"/>
      <point x="223" y="713" type="line"/>
      <point x="223" y="780" type="line"/>
      <point x="122" y="780" type="line"/>
      <point x="77" y="709"/>
      <point x="69" y="696"/>
      <point x="69" y="685" type="curve" smooth="yes"/>
      <point x="69" y="672"/>
      <point x="74" y="665"/>
      <point x="127" y="588" type="curve"/>
    </contour>
    <contour>
      <point x="204" y="569" type="line"/>
      <point x="127" y="569" type="line"/>
      <point x="127" y="463" type="line"/>
      <point x="76" y="463"/>
      <point x="30" y="420"/>
      <point x="30" y="352" type="curve" smooth="yes"/>
      <point x="30" y="279"/>
      <point x="72" y="244"/>
      <point x="131" y="244" type="curve" smooth="yes"/>
      <point x="146" y="244" type="line" smooth="yes"/>
      <point x="183" y="244"/>
      <point x="204" y="269"/>
      <point x="204" y="313" type="curve" smooth="yes"/>
    </contour>
    <contour>
      <point x="127" y="311" type="line"/>
      <point x="109" y="311"/>
      <point x="86" y="326"/>
      <point x="86" y="353" type="curve" smooth="yes"/>
      <point x="86" y="383"/>
      <point x="114" y="395"/>
      <point x="127" y="395" type="curve"/>
    </contour>
  </outline>
</glyph>
<glyph name="uni179B" format="2">
  <advance width="778"/>
  <unicode hex="179B"/>
  <note>
uni179B
</note>
  <outline>
    <contour>
      <point x="689" y="564" type="line"/>
      <point x="612" y="564" type="line"/>
      <point x="612" y="402" type="line" smooth="yes"/>
      <point x="612" y="342"/>
      <point x="582" y="311"/>
      <point x="518" y="311" type="curve" smooth="yes"/>
      <point x="456" y="311"/>
      <point x="425" y="342"/>
      <point x="425" y="402" type="curve" smooth="yes"/>
      <point x="425" y="622" type="line" smooth="yes"/>
      <point x="425" y="727"/>
      <point x="367" y="780"/>
      <point x="252" y="780" type="curve" smooth="yes"/>
      <point x="137" y="780"/>
      <point x="78" y="727"/>
      <point x="78" y="622" type="curve" smooth="yes"/>
      <point x="78" y="489" type="line"/>
      <point x="155" y="489" type="line"/>
      <point x="155" y="622" type="line" smooth="yes"/>
      <point x="155" y="682"/>
      <point x="187" y="713"/>
      <point x="252" y="713" type="curve" smooth="yes"/>
      <point x="316" y="713"/>
      <point x="348" y="682"/>
      <point x="348" y="622" type="curve" smooth="yes"/>
      <point x="348" y="402" type="line" smooth="yes"/>
      <point x="348" y="297"/>
      <point x="405" y="244"/>
      <point x="518" y="244" type="curve" smooth="yes"/>
      <point x="632" y="244"/>
      <point x="689" y="297"/>
      <point x="689" y="402" type="curve" smooth="yes"/>
    </contour>
    <contour>
      <point x="78" y="504" type="line"/>
      <point x="78" y="304" type="line" smooth="yes"/>
      <point x="78" y="264"/>
      <point x="104" y="244"/>
      <point x="144" y="244" type="curve" smooth="yes"/>
      <point x="160" y="244" type="line" smooth="yes"/>
      <point x="213" y="244"/>
      <point x="256" y="288"/>
      <point x="256" y="357" type="curve" smooth="yes"/>
      <point x="256" y="431"/>
      <point x="206" y="463"/>
      <point x="155" y="463" type="curve"/>
      <point x="155" y="504" type="line" smooth="yes"/>
    </contour>
    <contour>
      <point x="155" y="311" type="curve"/>
      <point x="155" y="395" type="line"/>
      <point x="180" y="394"/>
      <point x="193" y="382"/>
      <point x="193" y="355" type="curve" smooth="yes"/>
      <point x="193" y="327"/>
      <point x="180" y="311"/>
    </contour>
    <contour>
      <point x="612" y="550" type="line"/>
      <point x="689" y="550" type="line"/>
      <point x="689" y="604" type="line"/>
      <point x="607" y="712" type="line"/>
      <point x="607" y="713" type="line"/>
      <point x="708" y="713" type="line"/>
      <point x="708" y="780" type="line"/>
      <point x="607" y="780" type="line"/>
      <point x="562" y="709"/>
      <point x="554" y="696"/>
      <point x="554" y="685" type="curve" smooth="yes"/>
      <point x="554" y="672"/>
      <point x="559" y="665"/>
      <point x="612" y="588" type="curve"/>
    </contour>
  </outline>
</glyph>
<glyph name="uni179C" format="2">
  <advance width="278"/>
  <unicode hex="179C"/>
  <note>
uni179C
</note>
  <outline>
    <contour>
      <point x="127" y="540" type="line"/>
      <point x="204" y="540" type="line"/>
      <point x="204" y="594" type="line"/>
      <point x="101" y="702" type="line"/>
      <point x="102" y="703" type="line"/>
      <point x="143" y="703" type="line" smooth="yes"/>
      <point x="213" y="703"/>
      <point x="248" y="733"/>
      <point x="248" y="794" type="curve" smooth="yes"/>
      <point x="248" y="810" type="line"/>
      <point x="172" y="810" type="line"/>
      <point x="172" y="794" type="line" smooth="yes"/>
      <point x="172" y="778"/>
      <point x="163" y="770"/>
      <point x="143" y="770" type="curve" smooth="yes"/>
      <point x="102" y="770" type="line"/>
      <point x="58" y="702"/>
      <point x="50" y="690"/>
      <point x="50" y="678" type="curve" smooth="yes"/>
      <point x="50" y="660"/>
      <point x="57" y="658"/>
      <point x="127" y="578" type="curve"/>
    </contour>
    <contour>
      <point x="204" y="569" type="line"/>
      <point x="127" y="569" type="line"/>
      <point x="127" y="463" type="line"/>
      <point x="76" y="463"/>
      <point x="30" y="420"/>
      <point x="30" y="352" type="curve" smooth="yes"/>
      <point x="30" y="279"/>
      <point x="72" y="244"/>
      <point x="131" y="244" type="curve" smooth="yes"/>
      <point x="146" y="244" type="line" smooth="yes"/>
      <point x="183" y="244"/>
      <point x="204" y="269"/>
      <point x="204" y="313" type="curve" smooth="yes"/>
    </contour>
    <contour>
      <point x="127" y="311" type="line"/>
      <point x="109" y="311"/>
      <point x="86" y="326"/>
      <point x="86" y="353" type="curve" smooth="yes"/>
      <point x="86" y="383"/>
      <point x="114" y="395"/>
      <point x="127" y="395" type="curve"/>
    </contour>
  </outline>
</glyph>
<glyph name="uni179D" format="2">
  <advance width="525"/>
  <unicode hex="179D"/>
  <note>
uni179D
</note>
  <outline>
    <contour>
      <point x="321" y="372" type="line"/>
      <point x="475" y="372" type="line"/>
      <point x="475" y="439" type="line"/>
      <point x="321" y="439" type="line"/>
    </contour>
    <contour>
      <point x="78" y="713" type="line"/>
      <point x="445" y="713" type="line"/>
      <point x="445" y="780" type="line"/>
      <point x="78" y="780" type="line"/>
    </contour>
    <contour>
      <point x="78" y="244" type="line"/>
      <point x="155" y="244" type="line"/>
      <point x="155" y="286" type="line"/>
      <point x="167" y="341"/>
      <point x="184" y="372"/>
      <point x="240" y="372" type="curve" smooth="yes"/>
      <point x="282" y="372" type="line"/>
      <point x="282" y="439" type="line"/>
      <point x="231" y="439" type="line" smooth="yes"/>
      <point x="199" y="439"/>
      <point x="174" y="426"/>
      <point x="155" y="400" type="curve"/>
      <point x="155" y="487" type="line" smooth="yes"/>
      <point x="155" y="547"/>
      <point x="191" y="577"/>
      <point x="262" y="577" type="curve" smooth="yes"/>
      <point x="333" y="577"/>
      <point x="368" y="547"/>
      <point x="368" y="487" type="curve" smooth="yes"/>
      <point x="368" y="244" type="line"/>
      <point x="445" y="244" type="line"/>
      <point x="445" y="487" type="line" smooth="yes"/>
      <point x="445" y="592"/>
      <point x="384" y="645"/>
      <point x="262" y="645" type="curve" smooth="yes"/>
      <point x="140" y="645"/>
      <point x="78" y="592"/>
      <point x="78" y="487" type="curve" smooth="yes"/>
    </contour>
  </outline>
</glyph>
<glyph name="uni179E" format="2">
  <advance width="566"/>
  <unicode hex="179E"/>
  <note>
uni179E
</note>
  <outline>
    <contour>
      <point x="327" y="493" type="line"/>
      <point x="496" y="493" type="line"/>
      <point x="496" y="560" type="line"/>
      <point x="327" y="560" type="line"/>
    </contour>
    <contour>
      <point x="175" y="569" type="line"/>
      <point x="98" y="569" type="line"/>
      <point x="98" y="402" type="line" smooth="yes"/>
      <point x="98" y="297"/>
      <point x="158" y="244"/>
      <point x="280" y="244" type="curve" smooth="yes"/>
      <point x="403" y="244"/>
      <point x="464" y="297"/>
      <point x="464" y="402" type="curve" smooth="yes"/>
      <point x="464" y="569" type="line"/>
      <point x="387" y="569" type="line"/>
      <point x="387" y="402" type="line" smooth="yes"/>
      <point x="387" y="342"/>
      <point x="352" y="311"/>
      <point x="280" y="311" type="curve" smooth="yes"/>
      <point x="209" y="311"/>
      <point x="175" y="342"/>
      <point x="175" y="402" type="curve" smooth="yes"/>
    </contour>
    <contour>
      <point x="387" y="550" type="line"/>
      <point x="464" y="550" type="line"/>
      <point x="464" y="604" type="line"/>
      <point x="382" y="712" type="line"/>
      <point x="382" y="713" type="line"/>
      <point x="483" y="713" type="line"/>
      <point x="483" y="780" type="line"/>
      <point x="382" y="780" type="line"/>
      <point x="337" y="709"/>
      <point x="329" y="696"/>
      <point x="329" y="685" type="curve" smooth="yes"/>
      <point x="329" y="672"/>
      <point x="334" y="665"/>
      <point x="387" y="588" type="curve"/>
    </contour>
    <contour>
      <point x="98" y="550" type="line"/>
      <point x="175" y="550" type="line"/>
      <point x="175" y="604" type="line"/>
      <point x="93" y="712" type="line"/>
      <point x="93" y="713" type="line"/>
      <point x="194" y="713" type="line"/>
      <point x="194" y="780" type="line"/>
      <point x="93" y="780" type="line"/>
      <point x="48" y="709"/>
      <point x="40" y="696"/>
      <point x="40" y="685" type="curve" smooth="yes"/>
      <point x="40" y="672"/>
      <point x="45" y="665"/>
      <point x="98" y="588" type="curve"/>
    </contour>
  </outline>
</glyph>
<glyph name="uni17A2" format="2">
  <advance width="581"/>
  <unicode hex="17A2"/>
  <note>
uni17A2
</note>
  <outline>
    <contour>
      <point x="484" y="569" type="line"/>
      <point x="407" y="569" type="line"/>
      <point x="407" y="521" type="line"/>
      <point x="195" y="521" type="line"/>
      <point x="195" y="569" type="line"/>
      <point x="118" y="569" type="line"/>
      <point x="118" y="339" type="line" smooth="yes"/>
      <point x="118" y="319"/>
      <point x="98" y="311"/>
      <point x="60" y="311" type="curve"/>
      <point x="60" y="244" type="line"/>
      <point x="133" y="244" type="line" smooth="yes"/>
      <point x="173" y="244"/>
      <point x="195" y="261"/>
      <point x="195" y="294" type="curve" smooth="yes"/>
      <point x="195" y="453" type="line"/>
      <point x="407" y="453" type="line"/>
      <point x="407" y="339" type="line" smooth="yes"/>
      <point x="407" y="319"/>
      <point x="388" y="311"/>
      <point x="349" y="311" type="curve"/>
      <point x="349" y="244" type="line"/>
      <point x="423" y="244" type="line" smooth="yes"/>
      <point x="463" y="244"/>
      <point x="484" y="261"/>
      <point x="484" y="294" type="curve" smooth="yes"/>
    </contour>
    <contour>
      <point x="407" y="550" type="line"/>
      <point x="484" y="550" type="line"/>
      <point x="484" y="604" type="line"/>
      <point x="402" y="712" type="line"/>
      <point x="402" y="713" type="line"/>
      <point x="503" y="713" type="line"/>
      <point x="503" y="780" type="line"/>
      <point x="402" y="780" type="line"/>
      <point x="357" y="709"/>
      <point x="349" y="696"/>
      <point x="349" y="685" type="curve" smooth="yes"/>
      <point x="349" y="672"/>
      <point x="354" y="665"/>
      <point x="407" y="588" type="curve"/>
    </contour>
    <contour>
      <point x="118" y="550" type="line"/>
      <point x="195" y="550" type="line"/>
      <point x="195" y="604" type="line"/>
      <point x="113" y="712" type="line"/>
      <point x="113" y="713" type="line"/>
      <point x="214" y="713" type="line"/>
      <point x="214" y="780" type="line"/>
      <point x="113" y="780" type="line"/>
      <point x="68" y="709"/>
      <point x="60" y="696"/>
      <point x="60" y="685" type="curve" smooth="yes"/>
      <point x="60" y="672"/>
      <point x="65" y="665"/>
      <point x="118" y="588" type="curve"/>
    </contour>
  </outline>
</glyph>
<glyph name="uni17A4" format="2">
  <advance width="769"/>
  <unicode hex="17A4"/>
  <note>
uni17A4
</note>
  <outline>
    <contour>
      <point x="484" y="569" type="line"/>
      <point x="407" y="569" type="line"/>
      <point x="407" y="521" type="line"/>
      <point x="195" y="521" type="line"/>
      <point x="195" y="569" type="line"/>
      <point x="118" y="569" type="line"/>
      <point x="118" y="339" type="line" smooth="yes"/>
      <point x="118" y="319"/>
      <point x="98" y="311"/>
      <point x="60" y="311" type="curve"/>
      <point x="60" y="244" type="line"/>
      <point x="133" y="244" type="line" smooth="yes"/>
      <point x="173" y="244"/>
      <point x="195" y="261"/>
      <point x="195" y="294" type="curve" smooth="yes"/>
      <point x="195" y="453" type="line"/>
      <point x="407" y="453" type="line"/>
      <point x="407" y="339" type="line" smooth="yes"/>
      <point x="407" y="319"/>
      <point x="388" y="311"/>
      <point x="349" y="311" type="curve"/>
      <point x="349" y="244" type="line"/>
      <point x="423" y="244" type="line" smooth="yes"/>
      <point x="463" y="244"/>
      <point x="484" y="261"/>
      <point x="484" y="294" type="curve" smooth="yes"/>
    </contour>
    <contour>
      <point x="407" y="550" type="line"/>
      <point x="484" y="550" type="line"/>
      <point x="484" y="604" type="line"/>
      <point x="402" y="712" type="line"/>
      <point x="402" y="713" type="line"/>
      <point x="503" y="713" type="line"/>
      <point x="503" y="780" type="line"/>
      <point x="402" y="780" type="line"/>
      <point x="357" y="709"/>
      <point x="349" y="696"/>
      <point x="349" y="685" type="curve" smooth="yes"/>
      <point x="349" y="672"/>
      <point x="354" y="665"/>
      <point x="407" y="588" type="curve"/>
    </contour>
    <contour>
      <point x="118" y="550" type="line"/>
      <point x="195" y="550" type="line"/>
      <point x="195" y="604" type="line"/>
      <point x="113" y="712" type="line"/>
      <point x="113" y="713" type="line"/>
      <point x="214" y="713" type="line"/>
      <point x="214" y="780" type="line"/>
      <point x="113" y="780" type="line"/>
      <point x="68" y="709"/>
      <point x="60" y="696"/>
      <point x="60" y="685" type="curve" smooth="yes"/>
      <point x="60" y="672"/>
      <point x="65" y="665"/>
      <point x="118" y="588" type="curve"/>
    </contour>
    <contour>
      <point x="614" y="244" type="line"/>
      <point x="691" y="244" type="line"/>
      <point x="691" y="652" type="line" smooth="yes"/>
      <point x="691" y="737"/>
      <point x="669" y="780"/>
      <point x="573" y="780" type="curve" smooth="yes"/>
      <point x="458" y="780" type="line"/>
      <point x="458" y="713" type="line"/>
      <point x="549" y="713" type="line" smooth="yes"/>
      <point x="598" y="713"/>
      <point x="614" y="698"/>
      <point x="614" y="652" type="curve" smooth="yes"/>
    </contour>
  </outline>
</glyph>
<glyph name="uni17A5" format="2">
  <advance width="486"/>
  <unicode hex="17A5"/>
  <note>
uni17A5
</note>
  <outline>
    <contour>
      <point x="86" y="603" type="curve"/>
      <point x="152" y="647" type="line"/>
      <point x="127" y="676"/>
      <point x="115" y="694"/>
      <point x="115" y="705" type="curve" smooth="yes"/>
      <point x="115" y="710"/>
      <point x="117" y="712"/>
      <point x="127" y="724" type="curve"/>
      <point x="334" y="724" type="line" smooth="yes"/>
      <point x="415" y="724"/>
      <point x="456" y="755"/>
      <point x="456" y="816" type="curve" smooth="yes"/>
      <point x="456" y="869" type="line"/>
      <point x="379" y="869" type="line"/>
      <point x="379" y="816" type="line" smooth="yes"/>
      <point x="379" y="800"/>
      <point x="364" y="791"/>
      <point x="346" y="791" type="curve" smooth="yes"/>
      <point x="125" y="791" type="line"/>
      <point x="57" y="705"/>
      <point x="48" y="694"/>
      <point x="48" y="672" type="curve" smooth="yes"/>
      <point x="48" y="659"/>
      <point x="61" y="636"/>
    </contour>
    <contour>
      <point x="89" y="484" type="line"/>
      <point x="166" y="484" type="line"/>
      <point x="166" y="497" type="line" smooth="yes"/>
      <point x="166" y="557"/>
      <point x="202" y="587"/>
      <point x="273" y="587" type="curve" smooth="yes"/>
      <point x="344" y="587"/>
      <point x="379" y="557"/>
      <point x="379" y="497" type="curve" smooth="yes"/>
      <point x="379" y="244" type="line"/>
      <point x="456" y="244" type="line"/>
      <point x="456" y="497" type="line" smooth="yes"/>
      <point x="456" y="602"/>
      <point x="395" y="655"/>
      <point x="273" y="655" type="curve" smooth="yes"/>
      <point x="151" y="655"/>
      <point x="89" y="602"/>
      <point x="89" y="497" type="curve" smooth="yes"/>
    </contour>
    <contour>
      <point x="89" y="504" type="line"/>
      <point x="89" y="304" type="line" smooth="yes"/>
      <point x="89" y="264"/>
      <point x="115" y="244"/>
      <point x="155" y="244" type="curve" smooth="yes"/>
      <point x="171" y="244" type="line" smooth="yes"/>
      <point x="224" y="244"/>
      <point x="267" y="288"/>
      <point x="267" y="357" type="curve" smooth="yes"/>
      <point x="267" y="431"/>
      <point x="217" y="463"/>
      <point x="166" y="463" type="curve"/>
      <point x="166" y="504" type="line" smooth="yes"/>
    </contour>
    <contour>
      <point x="166" y="311" type="curve"/>
      <point x="166" y="395" type="line"/>
      <point x="191" y="394"/>
      <point x="204" y="382"/>
      <point x="204" y="355" type="curve" smooth="yes"/>
      <point x="204" y="327"/>
      <point x="191" y="311"/>
    </contour>
  </outline>
</glyph>
<glyph name="uni17A6" format="2">
  <advance width="769"/>
  <unicode hex="17A6"/>
  <note>
uni17A6
</note>
  <outline>
    <contour>
      <point x="691" y="726" type="line"/>
      <point x="614" y="726" type="line"/>
      <point x="614" y="117" type="line" smooth="yes"/>
      <point x="614" y="84"/>
      <point x="587" y="68"/>
      <point x="521" y="68" type="curve" smooth="yes"/>
      <point x="461" y="68"/>
      <point x="426" y="81"/>
      <point x="426" y="106" type="curve" smooth="yes"/>
      <point x="426" y="170"/>
      <point x="383" y="220"/>
      <point x="263" y="220" type="curve" smooth="yes"/>
      <point x="143" y="220"/>
      <point x="100" y="170"/>
      <point x="100" y="106" type="curve" smooth="yes"/>
      <point x="100" y="36" type="line" smooth="yes"/>
      <point x="100" y="12"/>
      <point x="118" y="0"/>
      <point x="154" y="0" type="curve" smooth="yes"/>
      <point x="212" y="0" type="line"/>
      <point x="212" y="49" type="line"/>
      <point x="183" y="49"/>
      <point x="168" y="54"/>
      <point x="168" y="68" type="curve" smooth="yes"/>
      <point x="168" y="106" type="line" smooth="yes"/>
      <point x="168" y="149"/>
      <point x="193" y="171"/>
      <point x="263" y="171" type="curve" smooth="yes"/>
      <point x="333" y="171"/>
      <point x="358" y="149"/>
      <point x="358" y="106" type="curve" smooth="yes"/>
      <point x="358" y="35"/>
      <point x="416" y="0"/>
      <point x="521" y="0" type="curve" smooth="yes"/>
      <point x="638" y="0"/>
      <point x="691" y="39"/>
      <point x="691" y="117" type="curve" smooth="yes"/>
    </contour>
    <contour>
      <point x="77" y="484" type="line"/>
      <point x="154" y="484" type="line"/>
      <point x="154" y="617" type="line" smooth="yes"/>
      <point x="154" y="677"/>
      <point x="190" y="707"/>
      <point x="261" y="707" type="curve" smooth="yes"/>
      <point x="332" y="707"/>
      <point x="367" y="677"/>
      <point x="367" y="617" type="curve" smooth="yes"/>
      <point x="367" y="244" type="line"/>
      <point x="444" y="244" type="line"/>
      <point x="444" y="617" type="line" smooth="yes"/>
      <point x="444" y="722"/>
      <point x="383" y="775"/>
      <point x="261" y="775" type="curve" smooth="yes"/>
      <point x="139" y="775"/>
      <point x="77" y="722"/>
      <point x="77" y="617" type="curve" smooth="yes"/>
    </contour>
    <contour>
      <point x="77" y="504" type="line"/>
      <point x="77" y="304" type="line" smooth="yes"/>
      <point x="77" y="264"/>
      <point x="103" y="244"/>
      <point x="143" y="244" type="curve" smooth="yes"/>
      <point x="159" y="244" type="line" smooth="yes"/>
      <point x="212" y="244"/>
      <point x="255" y="288"/>
      <point x="255" y="357" type="curve" smooth="yes"/>
      <point x="255" y="431"/>
      <point x="205" y="463"/>
      <point x="154" y="463" type="curve"/>
      <point x="154" y="504" type="line" smooth="yes"/>
    </contour>
    <contour>
      <point x="154" y="311" type="curve"/>
      <point x="154" y="395" type="line"/>
      <point x="179" y="394"/>
      <point x="192" y="382"/>
      <point x="192" y="355" type="curve" smooth="yes"/>
      <point x="192" y="327"/>
      <point x="179" y="311"/>
    </contour>
    <contour>
      <point x="614" y="703" type="line"/>
      <point x="691" y="703" type="line"/>
      <point x="691" y="805" type="line" smooth="yes"/>
      <point x="691" y="923"/>
      <point x="641" y="981"/>
      <point x="539" y="981" type="curve" smooth="yes"/>
      <point x="500" y="981"/>
      <point x="472" y="969"/>
      <point x="451" y="953" type="curve"/>
      <point x="451" y="1048" type="line"/>
      <point x="375" y="1048" type="line"/>
      <point x="375" y="879" type="line"/>
      <point x="451" y="879" type="line"/>
      <point x="467" y="904"/>
      <point x="492" y="918"/>
      <point x="525" y="918" type="curve" smooth="yes"/>
      <point x="579" y="918"/>
      <point x="614" y="880"/>
      <point x="614" y="805" type="curve" smooth="yes"/>
    </contour>
  </outline>
</glyph>
<glyph name="uni17A7" format="2">
  <advance width="518"/>
  <unicode hex="17A7"/>
  <note>
uni17A7
</note>
  <outline>
    <contour>
      <point x="367" y="240" type="line"/>
      <point x="444" y="240" type="line"/>
      <point x="444" y="438" type="line"/>
      <point x="367" y="438" type="line"/>
      <point x="367" y="423" type="line" smooth="yes"/>
      <point x="367" y="382"/>
      <point x="275" y="311"/>
      <point x="215" y="311" type="curve" smooth="yes"/>
      <point x="168" y="311"/>
      <point x="154" y="342"/>
      <point x="154" y="402" type="curve" smooth="yes"/>
      <point x="154" y="435" type="line"/>
      <point x="227" y="448" type="line" smooth="yes"/>
      <point x="372" y="474"/>
      <point x="444" y="537"/>
      <point x="444" y="640" type="curve" smooth="yes"/>
      <point x="444" y="725"/>
      <point x="396" y="790"/>
      <point x="261" y="790" type="curve" smooth="yes"/>
      <point x="126" y="790"/>
      <point x="78" y="728"/>
      <point x="78" y="659" type="curve" smooth="yes"/>
      <point x="78" y="597"/>
      <point x="113" y="555"/>
      <point x="171" y="555" type="curve" smooth="yes"/>
      <point x="195" y="555" type="line"/>
      <point x="195" y="625" type="line"/>
      <point x="168" y="625"/>
      <point x="154" y="638"/>
      <point x="154" y="663" type="curve" smooth="yes"/>
      <point x="154" y="694"/>
      <point x="182" y="723"/>
      <point x="261" y="723" type="curve" smooth="yes"/>
      <point x="331" y="723"/>
      <point x="367" y="695"/>
      <point x="367" y="640" type="curve" smooth="yes"/>
      <point x="367" y="573"/>
      <point x="319" y="532"/>
      <point x="222" y="515" type="curve" smooth="yes"/>
      <point x="77" y="490" type="line"/>
      <point x="77" y="402" type="line" smooth="yes"/>
      <point x="77" y="312"/>
      <point x="119" y="244"/>
      <point x="207" y="244" type="curve" smooth="yes"/>
      <point x="266" y="244"/>
      <point x="327" y="281"/>
      <point x="366" y="319" type="curve"/>
      <point x="367" y="319" type="line"/>
    </contour>
  </outline>
</glyph>
<glyph name="uni17AA" format="2">
  <advance width="543"/>
  <unicode hex="17AA"/>
  <note>
uni17AA
</note>
  <outline>
    <contour>
      <point x="87" y="748" type="curve"/>
      <point x="153" y="792" type="line"/>
      <point x="128" y="821"/>
      <point x="116" y="839"/>
      <point x="116" y="850" type="curve" smooth="yes"/>
      <point x="116" y="855"/>
      <point x="118" y="857"/>
      <point x="128" y="869" type="curve"/>
      <point x="335" y="869" type="line" smooth="yes"/>
      <point x="416" y="869"/>
      <point x="457" y="900"/>
      <point x="457" y="961" type="curve" smooth="yes"/>
      <point x="457" y="1014" type="line"/>
      <point x="380" y="1014" type="line"/>
      <point x="380" y="961" type="line" smooth="yes"/>
      <point x="380" y="945"/>
      <point x="365" y="936"/>
      <point x="347" y="936" type="curve" smooth="yes"/>
      <point x="126" y="936" type="line"/>
      <point x="58" y="850"/>
      <point x="49" y="839"/>
      <point x="49" y="817" type="curve" smooth="yes"/>
      <point x="49" y="804"/>
      <point x="62" y="781"/>
    </contour>
    <contour>
      <point x="388" y="240" type="line"/>
      <point x="465" y="240" type="line"/>
      <point x="465" y="438" type="line"/>
      <point x="388" y="438" type="line"/>
      <point x="388" y="423" type="line" smooth="yes"/>
      <point x="388" y="382"/>
      <point x="296" y="311"/>
      <point x="236" y="311" type="curve" smooth="yes"/>
      <point x="189" y="311"/>
      <point x="175" y="342"/>
      <point x="175" y="402" type="curve" smooth="yes"/>
      <point x="175" y="435" type="line"/>
      <point x="248" y="448" type="line" smooth="yes"/>
      <point x="393" y="474"/>
      <point x="465" y="537"/>
      <point x="465" y="640" type="curve" smooth="yes"/>
      <point x="465" y="725"/>
      <point x="417" y="790"/>
      <point x="282" y="790" type="curve" smooth="yes"/>
      <point x="147" y="790"/>
      <point x="99" y="728"/>
      <point x="99" y="659" type="curve" smooth="yes"/>
      <point x="99" y="597"/>
      <point x="134" y="555"/>
      <point x="192" y="555" type="curve" smooth="yes"/>
      <point x="216" y="555" type="line"/>
      <point x="216" y="625" type="line"/>
      <point x="189" y="625"/>
      <point x="175" y="638"/>
      <point x="175" y="663" type="curve" smooth="yes"/>
      <point x="175" y="694"/>
      <point x="203" y="723"/>
      <point x="282" y="723" type="curve" smooth="yes"/>
      <point x="352" y="723"/>
      <point x="388" y="695"/>
      <point x="388" y="640" type="curve" smooth="yes"/>
      <point x="388" y="573"/>
      <point x="340" y="532"/>
      <point x="243" y="515" type="curve" smooth="yes"/>
      <point x="98" y="490" type="line"/>
      <point x="98" y="402" type="line" smooth="yes"/>
      <point x="98" y="312"/>
      <point x="140" y="244"/>
      <point x="228" y="244" type="curve" smooth="yes"/>
      <point x="287" y="244"/>
      <point x="348" y="281"/>
      <point x="387" y="319" type="curve"/>
      <point x="388" y="319" type="line"/>
    </contour>
  </outline>
</glyph>
<glyph name="uni17AB" format="2">
  <advance width="553"/>
  <unicode hex="17AB"/>
  <note>
uni17AB
</note>
  <outline>
    <contour>
      <point x="175" y="569" type="line"/>
      <point x="98" y="569" type="line"/>
      <point x="98" y="402" type="line" smooth="yes"/>
      <point x="98" y="297"/>
      <point x="158" y="244"/>
      <point x="280" y="244" type="curve" smooth="yes"/>
      <point x="403" y="244"/>
      <point x="464" y="297"/>
      <point x="464" y="402" type="curve" smooth="yes"/>
      <point x="464" y="569" type="line"/>
      <point x="387" y="569" type="line"/>
      <point x="387" y="402" type="line" smooth="yes"/>
      <point x="387" y="342"/>
      <point x="352" y="311"/>
      <point x="280" y="311" type="curve" smooth="yes"/>
      <point x="209" y="311"/>
      <point x="175" y="342"/>
      <point x="175" y="402" type="curve" smooth="yes"/>
    </contour>
    <contour>
      <point x="387" y="550" type="line"/>
      <point x="464" y="550" type="line"/>
      <point x="464" y="604" type="line"/>
      <point x="382" y="712" type="line"/>
      <point x="382" y="713" type="line"/>
      <point x="483" y="713" type="line"/>
      <point x="483" y="780" type="line"/>
      <point x="382" y="780" type="line"/>
      <point x="337" y="709"/>
      <point x="329" y="696"/>
      <point x="329" y="685" type="curve" smooth="yes"/>
      <point x="329" y="672"/>
      <point x="334" y="665"/>
      <point x="387" y="588" type="curve"/>
    </contour>
    <contour>
      <point x="98" y="550" type="line"/>
      <point x="175" y="550" type="line"/>
      <point x="175" y="604" type="line"/>
      <point x="93" y="712" type="line"/>
      <point x="93" y="713" type="line"/>
      <point x="194" y="713" type="line"/>
      <point x="194" y="780" type="line"/>
      <point x="93" y="780" type="line"/>
      <point x="48" y="709"/>
      <point x="40" y="696"/>
      <point x="40" y="685" type="curve" smooth="yes"/>
      <point x="40" y="672"/>
      <point x="45" y="665"/>
      <point x="98" y="588" type="curve"/>
    </contour>
    <contour>
      <point x="100" y="0" type="line"/>
      <point x="222" y="0" type="line" smooth="yes"/>
      <point x="384" y="0"/>
      <point x="466" y="52"/>
      <point x="466" y="187" type="curve" smooth="yes"/>
      <point x="466" y="220" type="line"/>
      <point x="344" y="220" type="line"/>
      <point x="344" y="156" type="line"/>
      <point x="389" y="156" type="line"/>
      <point x="389" y="91"/>
      <point x="333" y="58"/>
      <point x="222" y="58" type="curve" smooth="yes"/>
      <point x="100" y="58" type="line"/>
    </contour>
  </outline>
</glyph>
<glyph name="uni17AC" format="2">
  <advance width="575"/>
  <unicode hex="17AC"/>
  <note>
uni17AC
</note>
  <outline>
    <contour>
      <point x="175" y="569" type="line"/>
      <point x="98" y="569" type="line"/>
      <point x="98" y="402" type="line" smooth="yes"/>
      <point x="98" y="297"/>
      <point x="158" y="244"/>
      <point x="280" y="244" type="curve" smooth="yes"/>
      <point x="403" y="244"/>
      <point x="464" y="297"/>
      <point x="464" y="402" type="curve" smooth="yes"/>
      <point x="464" y="569" type="line"/>
      <point x="387" y="569" type="line"/>
      <point x="387" y="402" type="line" smooth="yes"/>
      <point x="387" y="342"/>
      <point x="352" y="311"/>
      <point x="280" y="311" type="curve" smooth="yes"/>
      <point x="209" y="311"/>
      <point x="175" y="342"/>
      <point x="175" y="402" type="curve" smooth="yes"/>
    </contour>
    <contour>
      <point x="387" y="550" type="line"/>
      <point x="464" y="550" type="line"/>
      <point x="464" y="604" type="line"/>
      <point x="382" y="712" type="line"/>
      <point x="382" y="713" type="line"/>
      <point x="483" y="713" type="line"/>
      <point x="483" y="780" type="line"/>
      <point x="382" y="780" type="line"/>
      <point x="337" y="709"/>
      <point x="329" y="696"/>
      <point x="329" y="685" type="curve" smooth="yes"/>
      <point x="329" y="672"/>
      <point x="334" y="665"/>
      <point x="387" y="588" type="curve"/>
    </contour>
    <contour>
      <point x="98" y="550" type="line"/>
      <point x="175" y="550" type="line"/>
      <point x="175" y="604" type="line"/>
      <point x="93" y="712" type="line"/>
      <point x="93" y="713" type="line"/>
      <point x="194" y="713" type="line"/>
      <point x="194" y="780" type="line"/>
      <point x="93" y="780" type="line"/>
      <point x="48" y="709"/>
      <point x="40" y="696"/>
      <point x="40" y="685" type="curve" smooth="yes"/>
      <point x="40" y="672"/>
      <point x="45" y="665"/>
      <point x="98" y="588" type="curve"/>
    </contour>
    <contour>
      <point x="407" y="50" type="line"/>
      <point x="434" y="20"/>
      <point x="466" y="0"/>
      <point x="503" y="0" type="curve" smooth="yes"/>
      <point x="525" y="0" type="line"/>
      <point x="525" y="58" type="line"/>
      <point x="512" y="58" type="line" smooth="yes"/>
      <point x="482" y="58"/>
      <point x="464" y="75"/>
      <point x="449" y="103" type="curve"/>
    </contour>
    <contour>
      <point x="100" y="0" type="line"/>
      <point x="222" y="0" type="line" smooth="yes"/>
      <point x="384" y="0"/>
      <point x="466" y="52"/>
      <point x="466" y="187" type="curve" smooth="yes"/>
      <point x="466" y="220" type="line"/>
      <point x="344" y="220" type="line"/>
      <point x="344" y="156" type="line"/>
      <point x="389" y="156" type="line"/>
      <point x="389" y="91"/>
      <point x="333" y="58"/>
      <point x="222" y="58" type="curve" smooth="yes"/>
      <point x="100" y="58" type="line"/>
    </contour>
  </outline>
</glyph>
<glyph name="uni17AF" format="2">
  <advance width="523"/>
  <unicode hex="17AF"/>
  <note>
uni17AF
</note>
  <outline>
    <contour>
      <point x="77" y="244" type="line"/>
      <point x="166" y="244" type="line"/>
      <point x="260" y="347" type="line"/>
      <point x="354" y="244" type="line"/>
      <point x="443" y="244" type="line"/>
      <point x="443" y="632" type="line" smooth="yes"/>
      <point x="443" y="731"/>
      <point x="404" y="780"/>
      <point x="327" y="780" type="curve" smooth="yes"/>
      <point x="211" y="780" type="line" smooth="yes"/>
      <point x="173" y="780"/>
      <point x="154" y="804"/>
      <point x="154" y="837" type="curve" smooth="yes"/>
      <point x="154" y="936" type="line"/>
      <point x="77" y="936" type="line"/>
      <point x="77" y="837" type="line" smooth="yes"/>
      <point x="77" y="753"/>
      <point x="135" y="713"/>
      <point x="211" y="713" type="curve" smooth="yes"/>
      <point x="289" y="713" type="line" smooth="yes"/>
      <point x="340" y="713"/>
      <point x="366" y="686"/>
      <point x="366" y="632" type="curve" smooth="yes"/>
      <point x="366" y="326" type="line"/>
      <point x="260" y="442" type="line"/>
      <point x="154" y="325" type="line"/>
      <point x="154" y="586" type="line" smooth="yes"/>
      <point x="154" y="633"/>
      <point x="134" y="656"/>
      <point x="97" y="656" type="curve" smooth="yes"/>
      <point x="36" y="656" type="line"/>
      <point x="36" y="586" type="line"/>
      <point x="64" y="586"/>
      <point x="77" y="579"/>
      <point x="77" y="566" type="curve" smooth="yes"/>
    </contour>
  </outline>
</glyph>
<glyph name="uni17B0" format="2">
  <advance width="523"/>
  <unicode hex="17B0"/>
  <note>
uni17B0
</note>
  <outline>
    <contour>
      <point x="78" y="486" type="line"/>
      <point x="155" y="486" type="line"/>
      <point x="155" y="645" type="line" smooth="yes"/>
      <point x="155" y="686"/>
      <point x="165" y="707"/>
      <point x="185" y="707" type="curve" smooth="yes"/>
      <point x="218" y="707"/>
      <point x="234" y="646"/>
      <point x="262" y="646" type="curve" smooth="yes"/>
      <point x="289" y="646"/>
      <point x="305" y="707"/>
      <point x="339" y="707" type="curve" smooth="yes"/>
      <point x="359" y="707"/>
      <point x="368" y="686"/>
      <point x="368" y="645" type="curve" smooth="yes"/>
      <point x="368" y="244" type="line"/>
      <point x="445" y="244" type="line"/>
      <point x="445" y="645" type="line" smooth="yes"/>
      <point x="445" y="718"/>
      <point x="424" y="780"/>
      <point x="356" y="780" type="curve" smooth="yes"/>
      <point x="313" y="780"/>
      <point x="294" y="759"/>
      <point x="265" y="719" type="curve"/>
      <point x="262" y="719" type="line"/>
      <point x="232" y="760"/>
      <point x="204" y="780"/>
      <point x="170" y="780" type="curve" smooth="yes"/>
      <point x="102" y="780"/>
      <point x="78" y="718"/>
      <point x="78" y="645" type="curve" smooth="yes"/>
    </contour>
    <contour>
      <point x="78" y="504" type="line"/>
      <point x="78" y="304" type="line" smooth="yes"/>
      <point x="78" y="264"/>
      <point x="104" y="244"/>
      <point x="144" y="244" type="curve" smooth="yes"/>
      <point x="160" y="244" type="line" smooth="yes"/>
      <point x="213" y="244"/>
      <point x="256" y="288"/>
      <point x="256" y="357" type="curve" smooth="yes"/>
      <point x="256" y="431"/>
      <point x="206" y="463"/>
      <point x="155" y="463" type="curve"/>
      <point x="155" y="504" type="line" smooth="yes"/>
    </contour>
    <contour>
      <point x="155" y="311" type="curve"/>
      <point x="155" y="395" type="line"/>
      <point x="180" y="394"/>
      <point x="193" y="382"/>
      <point x="193" y="355" type="curve" smooth="yes"/>
      <point x="193" y="327"/>
      <point x="180" y="311"/>
    </contour>
    <contour>
      <point x="207" y="36" type="curve" smooth="yes"/>
      <point x="266" y="36"/>
      <point x="302" y="70"/>
      <point x="302" y="101" type="curve"/>
      <point x="317" y="93"/>
      <point x="336" y="85"/>
      <point x="365" y="85" type="curve" smooth="yes"/>
      <point x="406" y="85"/>
      <point x="445" y="112"/>
      <point x="445" y="167" type="curve" smooth="yes"/>
      <point x="445" y="256" type="line"/>
      <point x="377" y="256" type="line"/>
      <point x="364" y="227"/>
      <point x="279" y="211"/>
      <point x="119" y="165" type="curve"/>
      <point x="119" y="103" type="line" smooth="yes"/>
      <point x="119" y="66"/>
      <point x="147" y="36"/>
    </contour>
    <contour>
      <point x="219" y="88" type="curve" smooth="yes"/>
      <point x="199" y="88"/>
      <point x="187" y="95"/>
      <point x="187" y="114" type="curve" smooth="yes"/>
      <point x="187" y="130" type="line"/>
      <point x="260" y="152" type="line"/>
      <point x="260" y="125" type="line" smooth="yes"/>
      <point x="260" y="102"/>
      <point x="245" y="88"/>
    </contour>
    <contour>
      <point x="377" y="164" type="line" smooth="yes"/>
      <point x="377" y="141"/>
      <point x="356" y="133"/>
      <point x="337" y="133" type="curve" smooth="yes"/>
      <point x="319" y="133"/>
      <point x="303" y="141"/>
      <point x="303" y="153" type="curve" smooth="yes"/>
      <point x="303" y="164" type="line"/>
      <point x="377" y="186" type="line"/>
    </contour>
  </outline>
</glyph>
<glyph name="uni17B1" format="2">
  <advance width="534"/>
  <unicode hex="17B1"/>
  <note>
uni17B1
</note>
  <outline>
    <contour>
      <point x="68" y="788" type="curve"/>
      <point x="134" y="832" type="line"/>
      <point x="109" y="861"/>
      <point x="97" y="879"/>
      <point x="97" y="890" type="curve" smooth="yes"/>
      <point x="97" y="895"/>
      <point x="99" y="897"/>
      <point x="109" y="909" type="curve"/>
      <point x="371" y="909" type="line" smooth="yes"/>
      <point x="407" y="909"/>
      <point x="434" y="876"/>
      <point x="450" y="811" type="curve"/>
      <point x="517" y="841" type="line"/>
      <point x="501" y="931"/>
      <point x="452" y="976"/>
      <point x="371" y="976" type="curve" smooth="yes"/>
      <point x="107" y="976" type="line"/>
      <point x="39" y="890"/>
      <point x="30" y="879"/>
      <point x="30" y="857" type="curve" smooth="yes"/>
      <point x="30" y="844"/>
      <point x="43" y="821"/>
    </contour>
    <contour>
      <point x="381" y="240" type="line"/>
      <point x="458" y="240" type="line"/>
      <point x="458" y="438" type="line"/>
      <point x="381" y="438" type="line"/>
      <point x="381" y="423" type="line" smooth="yes"/>
      <point x="381" y="382"/>
      <point x="289" y="311"/>
      <point x="229" y="311" type="curve" smooth="yes"/>
      <point x="182" y="311"/>
      <point x="168" y="342"/>
      <point x="168" y="402" type="curve" smooth="yes"/>
      <point x="168" y="435" type="line"/>
      <point x="241" y="448" type="line" smooth="yes"/>
      <point x="386" y="474"/>
      <point x="458" y="537"/>
      <point x="458" y="640" type="curve" smooth="yes"/>
      <point x="458" y="725"/>
      <point x="410" y="790"/>
      <point x="275" y="790" type="curve" smooth="yes"/>
      <point x="140" y="790"/>
      <point x="92" y="728"/>
      <point x="92" y="659" type="curve" smooth="yes"/>
      <point x="92" y="597"/>
      <point x="127" y="555"/>
      <point x="185" y="555" type="curve" smooth="yes"/>
      <point x="209" y="555" type="line"/>
      <point x="209" y="625" type="line"/>
      <point x="182" y="625"/>
      <point x="168" y="638"/>
      <point x="168" y="663" type="curve" smooth="yes"/>
      <point x="168" y="694"/>
      <point x="196" y="723"/>
      <point x="275" y="723" type="curve" smooth="yes"/>
      <point x="345" y="723"/>
      <point x="381" y="695"/>
      <point x="381" y="640" type="curve" smooth="yes"/>
      <point x="381" y="573"/>
      <point x="333" y="532"/>
      <point x="236" y="515" type="curve" smooth="yes"/>
      <point x="91" y="490" type="line"/>
      <point x="91" y="402" type="line" smooth="yes"/>
      <point x="91" y="312"/>
      <point x="133" y="244"/>
      <point x="221" y="244" type="curve" smooth="yes"/>
      <point x="280" y="244"/>
      <point x="341" y="281"/>
      <point x="380" y="319" type="curve"/>
      <point x="381" y="319" type="line"/>
    </contour>
  </outline>
</glyph>
<glyph name="uni17B2" format="2">
  <advance width="503"/>
  <unicode hex="17B2"/>
  <note>
uni17B2
</note>
  <outline>
    <contour>
      <point x="259" y="244" type="curve" smooth="yes"/>
      <point x="394" y="244"/>
      <point x="452" y="312"/>
      <point x="452" y="402" type="curve" smooth="yes"/>
      <point x="452" y="468"/>
      <point x="440" y="493"/>
      <point x="419" y="528" type="curve"/>
      <point x="456" y="570"/>
      <point x="463" y="577"/>
      <point x="463" y="592" type="curve" smooth="yes"/>
      <point x="463" y="602"/>
      <point x="459" y="608"/>
      <point x="410" y="683" type="curve"/>
      <point x="256" y="683" type="line"/>
      <point x="256" y="616" type="line"/>
      <point x="410" y="616" type="line"/>
      <point x="274" y="471" type="line"/>
      <point x="320" y="420" type="line"/>
      <point x="363" y="465" type="line"/>
      <point x="365" y="454"/>
      <point x="375" y="444"/>
      <point x="375" y="402" type="curve" smooth="yes"/>
      <point x="375" y="342"/>
      <point x="338" y="311"/>
      <point x="259" y="311" type="curve" smooth="yes"/>
      <point x="180" y="311"/>
      <point x="153" y="342"/>
      <point x="153" y="402" type="curve" smooth="yes"/>
      <point x="153" y="672" type="line" smooth="yes"/>
      <point x="153" y="732"/>
      <point x="184" y="763"/>
      <point x="249" y="763" type="curve" smooth="yes"/>
      <point x="311" y="763"/>
      <point x="359" y="750"/>
      <point x="391" y="725" type="curve"/>
      <point x="422" y="785" type="line"/>
      <point x="384" y="815"/>
      <point x="326" y="830"/>
      <point x="249" y="830" type="curve" smooth="yes"/>
      <point x="127" y="830"/>
      <point x="76" y="762"/>
      <point x="76" y="672" type="curve" smooth="yes"/>
      <point x="76" y="402" type="line" smooth="yes"/>
      <point x="76" y="312"/>
      <point x="124" y="244"/>
    </contour>
  </outline>
</glyph>
<glyph name="uni17B3" format="2">
  <advance width="526"/>
  <unicode hex="17B3"/>
  <note>
uni17B3
</note>
  <outline>
    <contour>
      <point x="340" y="1056" type="curve"/>
      <point x="258" y="1056" type="line"/>
      <point x="254" y="1043"/>
      <point x="252" y="1031"/>
      <point x="252" y="1018" type="curve" smooth="yes"/>
      <point x="252" y="991"/>
      <point x="262" y="963"/>
      <point x="282" y="936" type="curve"/>
      <point x="107" y="936" type="line"/>
      <point x="39" y="850"/>
      <point x="30" y="839"/>
      <point x="30" y="817" type="curve" smooth="yes"/>
      <point x="30" y="804"/>
      <point x="43" y="781"/>
      <point x="68" y="748" type="curve"/>
      <point x="134" y="792" type="line"/>
      <point x="109" y="821"/>
      <point x="97" y="839"/>
      <point x="97" y="850" type="curve" smooth="yes"/>
      <point x="97" y="855"/>
      <point x="99" y="857"/>
      <point x="109" y="869" type="curve"/>
      <point x="337" y="869" type="line"/>
      <point x="425" y="764" type="line"/>
      <point x="486" y="801" type="line"/>
      <point x="472" y="879"/>
      <point x="434" y="924"/>
      <point x="371" y="934" type="curve"/>
      <point x="335" y="976"/>
      <point x="330" y="989"/>
      <point x="330" y="1013" type="curve" smooth="yes"/>
      <point x="330" y="1027"/>
      <point x="333" y="1041"/>
    </contour>
    <contour>
      <point x="367" y="240" type="line"/>
      <point x="444" y="240" type="line"/>
      <point x="444" y="438" type="line"/>
      <point x="367" y="438" type="line"/>
      <point x="367" y="423" type="line" smooth="yes"/>
      <point x="367" y="382"/>
      <point x="275" y="311"/>
      <point x="215" y="311" type="curve" smooth="yes"/>
      <point x="168" y="311"/>
      <point x="154" y="342"/>
      <point x="154" y="402" type="curve" smooth="yes"/>
      <point x="154" y="435" type="line"/>
      <point x="227" y="448" type="line" smooth="yes"/>
      <point x="372" y="474"/>
      <point x="444" y="537"/>
      <point x="444" y="640" type="curve" smooth="yes"/>
      <point x="444" y="725"/>
      <point x="396" y="790"/>
      <point x="261" y="790" type="curve" smooth="yes"/>
      <point x="126" y="790"/>
      <point x="78" y="728"/>
      <point x="78" y="659" type="curve" smooth="yes"/>
      <point x="78" y="597"/>
      <point x="113" y="555"/>
      <point x="171" y="555" type="curve" smooth="yes"/>
      <point x="195" y="555" type="line"/>
      <point x="195" y="625" type="line"/>
      <point x="168" y="625"/>
      <point x="154" y="638"/>
      <point x="154" y="663" type="curve" smooth="yes"/>
      <point x="154" y="694"/>
      <point x="182" y="723"/>
      <point x="261" y="723" type="curve" smooth="yes"/>
      <point x="331" y="723"/>
      <point x="367" y="695"/>
      <point x="367" y="640" type="curve" smooth="yes"/>
      <point x="367" y="573"/>
      <point x="319" y="532"/>
      <point x="222" y="515" type="curve" smooth="yes"/>
      <point x="77" y="490" type="line"/>
      <point x="77" y="402" type="line" smooth="yes"/>
      <point x="77" y="312"/>
      <point x="119" y="244"/>
      <point x="207" y="244" type="curve" smooth="yes"/>
      <point x="266" y="244"/>
      <point x="327" y="281"/>
      <point x="366" y="319" type="curve"/>
      <point x="367" y="319" type="line"/>
    </contour>
  </outline>
</glyph>
<glyph name="uni17B4" format="2">
  <advance width="203"/>
  <unicode hex="17B4"/>
  <note>
uni17B4
</note>
  <outline>
    <contour>
      <point x="122" y="799" type="line"/>
      <point x="122" y="944" type="line" smooth="yes"/>
      <point x="122" y="1010"/>
      <point x="120" y="1048"/>
      <point x="63" y="1048" type="curve" smooth="yes"/>
      <point x="-24" y="1048" type="line"/>
      <point x="-24" y="981" type="line"/>
      <point x="2" y="981" type="line" smooth="yes"/>
      <point x="31" y="981"/>
      <point x="41" y="972"/>
      <point x="41" y="937" type="curve" smooth="yes"/>
      <point x="41" y="799" type="line"/>
    </contour>
    <contour>
      <point x="48" y="244" type="line"/>
      <point x="125" y="244" type="line"/>
      <point x="125" y="652" type="line" smooth="yes"/>
      <point x="125" y="737"/>
      <point x="103" y="780"/>
      <point x="7" y="780" type="curve" smooth="yes"/>
      <point x="-108" y="780" type="line"/>
      <point x="-108" y="713" type="line"/>
      <point x="-17" y="713" type="line" smooth="yes"/>
      <point x="32" y="713"/>
      <point x="48" y="698"/>
      <point x="48" y="652" type="curve" smooth="yes"/>
    </contour>
  </outline>
</glyph>
<glyph name="uni17B5" format="2">
  <advance width="203"/>
  <unicode hex="17B5"/>
  <note>
uni17B5
</note>
  <outline>
    <contour>
      <point x="48" y="244" type="line"/>
      <point x="125" y="244" type="line"/>
      <point x="125" y="652" type="line" smooth="yes"/>
      <point x="125" y="737"/>
      <point x="103" y="780"/>
      <point x="7" y="780" type="curve" smooth="yes"/>
      <point x="-108" y="780" type="line"/>
      <point x="-108" y="713" type="line"/>
      <point x="-17" y="713" type="line" smooth="yes"/>
      <point x="32" y="713"/>
      <point x="48" y="698"/>
      <point x="48" y="652" type="curve" smooth="yes"/>
    </contour>
  </outline>
</glyph>
<glyph name="uni17B6" format="2">
  <advance width="203"/>
  <unicode hex="17B6"/>
  <note>
uni17B6
</note>
  <outline>
    <contour>
      <point x="48" y="244" type="line"/>
      <point x="125" y="244" type="line"/>
      <point x="125" y="652" type="line" smooth="yes"/>
      <point x="125" y="737"/>
      <point x="103" y="780"/>
      <point x="7" y="780" type="curve" smooth="yes"/>
      <point x="-108" y="780" type="line"/>
      <point x="-108" y="713" type="line"/>
      <point x="-17" y="713" type="line" smooth="yes"/>
      <point x="32" y="713"/>
      <point x="48" y="698"/>
      <point x="48" y="652" type="curve" smooth="yes"/>
    </contour>
  </outline>
</glyph>
<glyph name="uni17B7" format="2">
  <unicode hex="17B7"/>
  <note>
uni17B7
</note>
  <outline>
    <contour>
      <point x="-424" y="684" type="curve" smooth="yes"/>
      <point x="-133" y="684" type="line"/>
      <point x="-133" y="757" type="line"/>
      <point x="-192" y="822"/>
      <point x="-272" y="879"/>
      <point x="-352" y="879" type="curve" smooth="yes"/>
      <point x="-434" y="879"/>
      <point x="-479" y="822"/>
      <point x="-479" y="757" type="curve" smooth="yes"/>
      <point x="-479" y="708"/>
      <point x="-466" y="684"/>
    </contour>
    <contour>
      <point x="-417" y="747" type="line"/>
      <point x="-417" y="792"/>
      <point x="-391" y="815"/>
      <point x="-350" y="815" type="curve" smooth="yes"/>
      <point x="-313" y="815"/>
      <point x="-272" y="799"/>
      <point x="-211" y="747" type="curve"/>
    </contour>
  </outline>
</glyph>
<glyph name="uni17B8" format="2">
  <unicode hex="17B8"/>
  <note>
uni17B8
</note>
  <outline>
    <contour>
      <point x="-133" y="684" type="line"/>
      <point x="-133" y="903" type="line"/>
      <point x="-189" y="903" type="line"/>
      <point x="-189" y="684" type="line"/>
    </contour>
    <contour>
      <point x="-424" y="684" type="curve" smooth="yes"/>
      <point x="-133" y="684" type="line"/>
      <point x="-133" y="757" type="line"/>
      <point x="-192" y="822"/>
      <point x="-272" y="879"/>
      <point x="-352" y="879" type="curve" smooth="yes"/>
      <point x="-434" y="879"/>
      <point x="-479" y="822"/>
      <point x="-479" y="757" type="curve" smooth="yes"/>
      <point x="-479" y="708"/>
      <point x="-466" y="684"/>
    </contour>
    <contour>
      <point x="-417" y="747" type="line"/>
      <point x="-417" y="792"/>
      <point x="-391" y="815"/>
      <point x="-350" y="815" type="curve" smooth="yes"/>
      <point x="-313" y="815"/>
      <point x="-272" y="799"/>
      <point x="-211" y="747" type="curve"/>
    </contour>
  </outline>
</glyph>
<glyph name="uni17B9" format="2">
  <unicode hex="17B9"/>
  <note>
uni17B9
</note>
  <outline>
    <contour>
      <point x="-274" y="848" type="curve"/>
      <point x="-134" y="752" type="line"/>
      <point x="-127" y="761"/>
      <point x="-107" y="796"/>
      <point x="-107" y="831" type="curve" smooth="yes"/>
      <point x="-107" y="880"/>
      <point x="-144" y="910"/>
      <point x="-185" y="910" type="curve" smooth="yes"/>
      <point x="-223" y="910"/>
      <point x="-259" y="885"/>
    </contour>
    <contour>
      <point x="-228" y="831" type="line"/>
      <point x="-216" y="847"/>
      <point x="-204" y="855"/>
      <point x="-190" y="855" type="curve" smooth="yes"/>
      <point x="-169" y="855"/>
      <point x="-158" y="839"/>
      <point x="-158" y="822" type="curve" smooth="yes"/>
      <point x="-158" y="813"/>
      <point x="-161" y="794"/>
      <point x="-166" y="788" type="curve"/>
    </contour>
    <contour>
      <point x="-424" y="684" type="curve" smooth="yes"/>
      <point x="-133" y="684" type="line"/>
      <point x="-133" y="757" type="line"/>
      <point x="-192" y="822"/>
      <point x="-272" y="879"/>
      <point x="-352" y="879" type="curve" smooth="yes"/>
      <point x="-434" y="879"/>
      <point x="-479" y="822"/>
      <point x="-479" y="757" type="curve" smooth="yes"/>
      <point x="-479" y="708"/>
      <point x="-466" y="684"/>
    </contour>
    <contour>
      <point x="-417" y="747" type="line"/>
      <point x="-417" y="792"/>
      <point x="-391" y="815"/>
      <point x="-350" y="815" type="curve" smooth="yes"/>
      <point x="-313" y="815"/>
      <point x="-272" y="799"/>
      <point x="-211" y="747" type="curve"/>
    </contour>
  </outline>
</glyph>
<glyph name="uni17BA" format="2">
  <unicode hex="17BA"/>
  <note>
uni17BA
</note>
  <outline>
    <contour>
      <point x="-189" y="885" type="line"/>
      <point x="-189" y="684" type="line"/>
      <point x="-133" y="684" type="line"/>
      <point x="-133" y="885" type="line"/>
    </contour>
    <contour>
      <point x="-278" y="910" type="line"/>
      <point x="-278" y="828" type="line"/>
      <point x="-222" y="828" type="line"/>
      <point x="-222" y="910" type="line"/>
    </contour>
    <contour>
      <point x="-424" y="684" type="curve" smooth="yes"/>
      <point x="-133" y="684" type="line"/>
      <point x="-133" y="757" type="line"/>
      <point x="-192" y="822"/>
      <point x="-272" y="879"/>
      <point x="-352" y="879" type="curve" smooth="yes"/>
      <point x="-434" y="879"/>
      <point x="-479" y="822"/>
      <point x="-479" y="757" type="curve" smooth="yes"/>
      <point x="-479" y="708"/>
      <point x="-466" y="684"/>
    </contour>
    <contour>
      <point x="-417" y="747" type="line"/>
      <point x="-417" y="792"/>
      <point x="-391" y="815"/>
      <point x="-350" y="815" type="curve" smooth="yes"/>
      <point x="-313" y="815"/>
      <point x="-272" y="799"/>
      <point x="-211" y="747" type="curve"/>
    </contour>
  </outline>
</glyph>
<glyph name="uni17BC" format="2">
  <unicode hex="17BC"/>
  <note>
uni17BC
</note>
  <outline>
    <contour>
      <point x="-310" y="-244" type="curve" smooth="yes"/>
      <point x="-228" y="-244"/>
      <point x="-192" y="-210"/>
      <point x="-192" y="-142" type="curve" smooth="yes"/>
      <point x="-192" y="-50" type="line"/>
      <point x="-260" y="-50" type="line"/>
      <point x="-260" y="-139" type="line" smooth="yes"/>
      <point x="-260" y="-168"/>
      <point x="-277" y="-186"/>
      <point x="-310" y="-186" type="curve" smooth="yes"/>
      <point x="-343" y="-186"/>
      <point x="-360" y="-168"/>
      <point x="-360" y="-139" type="curve" smooth="yes"/>
      <point x="-360" y="-50" type="line"/>
      <point x="-428" y="-50" type="line"/>
      <point x="-428" y="-142" type="line" smooth="yes"/>
      <point x="-428" y="-210"/>
      <point x="-391" y="-244"/>
    </contour>
  </outline>
</glyph>
<glyph name="uni17BD" format="2">
  <unicode hex="17BD"/>
  <note>
uni17BD
</note>
  <outline>
    <contour>
      <point x="-442" y="-244" type="line"/>
      <point x="-360" y="-244" type="line"/>
      <point x="-310" y="-191" type="line"/>
      <point x="-259" y="-244" type="line"/>
      <point x="-178" y="-244" type="line"/>
      <point x="-178" y="-50" type="line"/>
      <point x="-250" y="-50" type="line"/>
      <point x="-250" y="-186" type="line"/>
      <point x="-310" y="-122" type="line"/>
      <point x="-370" y="-187" type="line"/>
      <point x="-370" y="-50" type="line"/>
      <point x="-442" y="-50" type="line"/>
    </contour>
  </outline>
</glyph>
<glyph name="uni17BE" format="2">
  <unicode hex="17BE"/>
  <note>
uni17BE
</note>
  <outline>
    <contour>
      <point x="669" y="837" type="line"/>
      <point x="669" y="1056" type="line"/>
      <point x="613" y="1056" type="line"/>
      <point x="613" y="837" type="line"/>
    </contour>
    <contour>
      <point x="378" y="837" type="curve" smooth="yes"/>
      <point x="669" y="837" type="line"/>
      <point x="669" y="910" type="line"/>
      <point x="610" y="975"/>
      <point x="530" y="1032"/>
      <point x="450" y="1032" type="curve" smooth="yes"/>
      <point x="368" y="1032"/>
      <point x="323" y="975"/>
      <point x="323" y="910" type="curve" smooth="yes"/>
      <point x="323" y="861"/>
      <point x="336" y="837"/>
    </contour>
    <contour>
      <point x="385" y="900" type="line"/>
      <point x="385" y="945"/>
      <point x="411" y="968"/>
      <point x="452" y="968" type="curve" smooth="yes"/>
      <point x="489" y="968"/>
      <point x="530" y="952"/>
      <point x="591" y="900" type="curve"/>
    </contour>
    <contour>
      <point x="165" y="571" type="line"/>
      <point x="88" y="571" type="line"/>
      <point x="88" y="294" type="line" smooth="yes"/>
      <point x="88" y="261"/>
      <point x="109" y="244"/>
      <point x="150" y="244" type="curve" smooth="yes"/>
      <point x="231" y="244" type="line"/>
      <point x="231" y="311" type="line"/>
      <point x="191" y="311" type="line" smooth="yes"/>
      <point x="171" y="311"/>
      <point x="165" y="319"/>
      <point x="165" y="346" type="curve" smooth="yes"/>
    </contour>
    <contour>
      <point x="88" y="550" type="line"/>
      <point x="165" y="550" type="line"/>
      <point x="165" y="604" type="line"/>
      <point x="83" y="712" type="line"/>
      <point x="83" y="713" type="line"/>
      <point x="184" y="713" type="line"/>
      <point x="184" y="780" type="line"/>
      <point x="83" y="780" type="line"/>
      <point x="38" y="709"/>
      <point x="30" y="696"/>
      <point x="30" y="685" type="curve" smooth="yes"/>
      <point x="30" y="672"/>
      <point x="35" y="665"/>
      <point x="88" y="588" type="curve"/>
    </contour>
    <contour>
      <point x="339.992" y="511" type="curve" smooth="yes"/>
      <point x="350.821" y="511"/>
      <point x="359.984" y="522"/>
      <point x="359.984" y="535" type="curve" smooth="yes"/>
      <point x="359.984" y="548"/>
      <point x="350.821" y="559"/>
      <point x="339.992" y="559" type="curve" smooth="yes"/>
      <point x="329.163" y="559"/>
      <point x="320" y="548"/>
      <point x="320" y="535" type="curve" smooth="yes"/>
      <point x="320" y="522"/>
      <point x="329.163" y="511"/>
    </contour>
    <contour>
      <point x="360.992" y="612" type="curve" smooth="yes"/>
      <point x="371.821" y="612"/>
      <point x="380.984" y="623"/>
      <point x="380.984" y="636" type="curve" smooth="yes"/>
      <point x="380.984" y="649"/>
      <point x="371.821" y="660"/>
      <point x="360.992" y="660" type="curve" smooth="yes"/>
      <point x="350.163" y="660"/>
      <point x="341" y="649"/>
      <point x="341" y="636" type="curve" smooth="yes"/>
      <point x="341" y="623"/>
      <point x="350.163" y="612"/>
    </contour>
    <contour>
      <point x="419.992" y="682" type="curve" smooth="yes"/>
      <point x="430.821" y="682"/>
      <point x="439.984" y="693"/>
      <point x="439.984" y="706" type="curve" smooth="yes"/>
      <point x="439.984" y="719"/>
      <point x="430.821" y="730"/>
      <point x="419.992" y="730" type="curve" smooth="yes"/>
      <point x="409.163" y="730"/>
      <point x="400" y="719"/>
      <point x="400" y="706" type="curve" smooth="yes"/>
      <point x="400" y="693"/>
      <point x="409.163" y="682"/>
    </contour>
    <contour>
      <point x="500.992" y="706" type="curve" smooth="yes"/>
      <point x="511.821" y="706"/>
      <point x="520.984" y="717"/>
      <point x="520.984" y="730" type="curve" smooth="yes"/>
      <point x="520.984" y="743"/>
      <point x="511.821" y="754"/>
      <point x="500.992" y="754" type="curve" smooth="yes"/>
      <point x="490.163" y="754"/>
      <point x="481" y="743"/>
      <point x="481" y="730" type="curve" smooth="yes"/>
      <point x="481" y="717"/>
      <point x="490.163" y="706"/>
    </contour>
    <contour>
      <point x="581.992" y="682" type="curve" smooth="yes"/>
      <point x="592.821" y="682"/>
      <point x="601.984" y="693"/>
      <point x="601.984" y="706" type="curve" smooth="yes"/>
      <point x="601.984" y="719"/>
      <point x="592.821" y="730"/>
      <point x="581.992" y="730" type="curve" smooth="yes"/>
      <point x="571.163" y="730"/>
      <point x="562" y="719"/>
      <point x="562" y="706" type="curve" smooth="yes"/>
      <point x="562" y="693"/>
      <point x="571.163" y="682"/>
    </contour>
    <contour>
      <point x="639.992" y="610" type="curve" smooth="yes"/>
      <point x="650.821" y="610"/>
      <point x="659.984" y="621"/>
      <point x="659.984" y="634" type="curve" smooth="yes"/>
      <point x="659.984" y="647"/>
      <point x="650.821" y="658"/>
      <point x="639.992" y="658" type="curve" smooth="yes"/>
      <point x="629.163" y="658"/>
      <point x="620" y="647"/>
      <point x="620" y="634" type="curve" smooth="yes"/>
      <point x="620" y="621"/>
      <point x="629.163" y="610"/>
    </contour>
    <contour>
      <point x="664.992" y="511" type="curve" smooth="yes"/>
      <point x="675.821" y="511"/>
      <point x="684.984" y="522"/>
      <point x="684.984" y="535" type="curve" smooth="yes"/>
      <point x="684.984" y="548"/>
      <point x="675.821" y="559"/>
      <point x="664.992" y="559" type="curve" smooth="yes"/>
      <point x="654.163" y="559"/>
      <point x="645" y="548"/>
      <point x="645" y="535" type="curve" smooth="yes"/>
      <point x="645" y="522"/>
      <point x="654.163" y="511"/>
    </contour>
    <contour>
      <point x="641.992" y="417" type="curve" smooth="yes"/>
      <point x="652.821" y="417"/>
      <point x="661.984" y="428"/>
      <point x="661.984" y="441" type="curve" smooth="yes"/>
      <point x="661.984" y="454"/>
      <point x="652.821" y="465"/>
      <point x="641.992" y="465" type="curve" smooth="yes"/>
      <point x="631.163" y="465"/>
      <point x="622" y="454"/>
      <point x="622" y="441" type="curve" smooth="yes"/>
      <point x="622" y="428"/>
      <point x="631.163" y="417"/>
    </contour>
    <contour>
      <point x="582.992" y="345" type="curve" smooth="yes"/>
      <point x="593.821" y="345"/>
      <point x="602.984" y="356"/>
      <point x="602.984" y="369" type="curve" smooth="yes"/>
      <point x="602.984" y="382"/>
      <point x="593.821" y="393"/>
      <point x="582.992" y="393" type="curve" smooth="yes"/>
      <point x="572.163" y="393"/>
      <point x="563" y="382"/>
      <point x="563" y="369" type="curve" smooth="yes"/>
      <point x="563" y="356"/>
      <point x="572.163" y="345"/>
    </contour>
    <contour>
      <point x="500.992" y="317" type="curve" smooth="yes"/>
      <point x="511.821" y="317"/>
      <point x="520.984" y="328"/>
      <point x="520.984" y="341" type="curve" smooth="yes"/>
      <point x="520.984" y="354"/>
      <point x="511.821" y="365"/>
      <point x="500.992" y="365" type="curve" smooth="yes"/>
      <point x="490.163" y="365"/>
      <point x="481" y="354"/>
      <point x="481" y="341" type="curve" smooth="yes"/>
      <point x="481" y="328"/>
      <point x="490.163" y="317"/>
    </contour>
    <contour>
      <point x="419.992" y="344" type="curve" smooth="yes"/>
      <point x="430.821" y="344"/>
      <point x="439.984" y="355"/>
      <point x="439.984" y="368" type="curve" smooth="yes"/>
      <point x="439.984" y="381"/>
      <point x="430.821" y="392"/>
      <point x="419.992" y="392" type="curve" smooth="yes"/>
      <point x="409.163" y="392"/>
      <point x="400" y="381"/>
      <point x="400" y="368" type="curve" smooth="yes"/>
      <point x="400" y="355"/>
      <point x="409.163" y="344"/>
    </contour>
    <contour>
      <point x="359.992" y="416" type="curve" smooth="yes"/>
      <point x="370.821" y="416"/>
      <point x="379.984" y="427"/>
      <point x="379.984" y="440" type="curve" smooth="yes"/>
      <point x="379.984" y="453"/>
      <point x="370.821" y="464"/>
      <point x="359.992" y="464" type="curve" smooth="yes"/>
      <point x="349.163" y="464"/>
      <point x="340" y="453"/>
      <point x="340" y="440" type="curve" smooth="yes"/>
      <point x="340" y="427"/>
      <point x="349.163" y="416"/>
    </contour>
  </outline>
</glyph>
<glyph name="uni17BF" format="2">
  <advance width="1012"/>
  <unicode hex="17BF"/>
  <note>
uni17BF
</note>
  <outline>
    <contour>
      <point x="165" y="571" type="line"/>
      <point x="88" y="571" type="line"/>
      <point x="88" y="294" type="line" smooth="yes"/>
      <point x="88" y="261"/>
      <point x="109" y="244"/>
      <point x="150" y="244" type="curve" smooth="yes"/>
      <point x="231" y="244" type="line"/>
      <point x="231" y="311" type="line"/>
      <point x="191" y="311" type="line" smooth="yes"/>
      <point x="171" y="311"/>
      <point x="165" y="319"/>
      <point x="165" y="346" type="curve" smooth="yes"/>
    </contour>
    <contour>
      <point x="88" y="550" type="line"/>
      <point x="165" y="550" type="line"/>
      <point x="165" y="604" type="line"/>
      <point x="83" y="712" type="line"/>
      <point x="83" y="713" type="line"/>
      <point x="184" y="713" type="line"/>
      <point x="184" y="780" type="line"/>
      <point x="83" y="780" type="line"/>
      <point x="38" y="709"/>
      <point x="30" y="696"/>
      <point x="30" y="685" type="curve" smooth="yes"/>
      <point x="30" y="672"/>
      <point x="35" y="665"/>
      <point x="88" y="588" type="curve"/>
    </contour>
    <contour>
      <point x="352.992" y="511" type="curve" smooth="yes"/>
      <point x="363.821" y="511"/>
      <point x="372.984" y="522"/>
      <point x="372.984" y="535" type="curve" smooth="yes"/>
      <point x="372.984" y="548"/>
      <point x="363.821" y="559"/>
      <point x="352.992" y="559" type="curve" smooth="yes"/>
      <point x="342.163" y="559"/>
      <point x="333" y="548"/>
      <point x="333" y="535" type="curve" smooth="yes"/>
      <point x="333" y="522"/>
      <point x="342.163" y="511"/>
    </contour>
    <contour>
      <point x="373.992" y="612" type="curve" smooth="yes"/>
      <point x="384.821" y="612"/>
      <point x="393.984" y="623"/>
      <point x="393.984" y="636" type="curve" smooth="yes"/>
      <point x="393.984" y="649"/>
      <point x="384.821" y="660"/>
      <point x="373.992" y="660" type="curve" smooth="yes"/>
      <point x="363.163" y="660"/>
      <point x="354" y="649"/>
      <point x="354" y="636" type="curve" smooth="yes"/>
      <point x="354" y="623"/>
      <point x="363.163" y="612"/>
    </contour>
    <contour>
      <point x="432.992" y="682" type="curve" smooth="yes"/>
      <point x="443.821" y="682"/>
      <point x="452.984" y="693"/>
      <point x="452.984" y="706" type="curve" smooth="yes"/>
      <point x="452.984" y="719"/>
      <point x="443.821" y="730"/>
      <point x="432.992" y="730" type="curve" smooth="yes"/>
      <point x="422.163" y="730"/>
      <point x="413" y="719"/>
      <point x="413" y="706" type="curve" smooth="yes"/>
      <point x="413" y="693"/>
      <point x="422.163" y="682"/>
    </contour>
    <contour>
      <point x="513.992" y="706" type="curve" smooth="yes"/>
      <point x="524.821" y="706"/>
      <point x="533.984" y="717"/>
      <point x="533.984" y="730" type="curve" smooth="yes"/>
      <point x="533.984" y="743"/>
      <point x="524.821" y="754"/>
      <point x="513.992" y="754" type="curve" smooth="yes"/>
      <point x="503.163" y="754"/>
      <point x="494" y="743"/>
      <point x="494" y="730" type="curve" smooth="yes"/>
      <point x="494" y="717"/>
      <point x="503.163" y="706"/>
    </contour>
    <contour>
      <point x="594.992" y="682" type="curve" smooth="yes"/>
      <point x="605.821" y="682"/>
      <point x="614.984" y="693"/>
      <point x="614.984" y="706" type="curve" smooth="yes"/>
      <point x="614.984" y="719"/>
      <point x="605.821" y="730"/>
      <point x="594.992" y="730" type="curve" smooth="yes"/>
      <point x="584.163" y="730"/>
      <point x="575" y="719"/>
      <point x="575" y="706" type="curve" smooth="yes"/>
      <point x="575" y="693"/>
      <point x="584.163" y="682"/>
    </contour>
    <contour>
      <point x="652.992" y="610" type="curve" smooth="yes"/>
      <point x="663.821" y="610"/>
      <point x="672.984" y="621"/>
      <point x="672.984" y="634" type="curve" smooth="yes"/>
      <point x="672.984" y="647"/>
      <point x="663.821" y="658"/>
      <point x="652.992" y="658" type="curve" smooth="yes"/>
      <point x="642.163" y="658"/>
      <point x="633" y="647"/>
      <point x="633" y="634" type="curve" smooth="yes"/>
      <point x="633" y="621"/>
      <point x="642.163" y="610"/>
    </contour>
    <contour>
      <point x="677.992" y="511" type="curve" smooth="yes"/>
      <point x="688.821" y="511"/>
      <point x="697.984" y="522"/>
      <point x="697.984" y="535" type="curve" smooth="yes"/>
      <point x="697.984" y="548"/>
      <point x="688.821" y="559"/>
      <point x="677.992" y="559" type="curve" smooth="yes"/>
      <point x="667.163" y="559"/>
      <point x="658" y="548"/>
      <point x="658" y="535" type="curve" smooth="yes"/>
      <point x="658" y="522"/>
      <point x="667.163" y="511"/>
    </contour>
    <contour>
      <point x="654.992" y="417" type="curve" smooth="yes"/>
      <point x="665.821" y="417"/>
      <point x="674.984" y="428"/>
      <point x="674.984" y="441" type="curve" smooth="yes"/>
      <point x="674.984" y="454"/>
      <point x="665.821" y="465"/>
      <point x="654.992" y="465" type="curve" smooth="yes"/>
      <point x="644.163" y="465"/>
      <point x="635" y="454"/>
      <point x="635" y="441" type="curve" smooth="yes"/>
      <point x="635" y="428"/>
      <point x="644.163" y="417"/>
    </contour>
    <contour>
      <point x="595.992" y="345" type="curve" smooth="yes"/>
      <point x="606.821" y="345"/>
      <point x="615.984" y="356"/>
      <point x="615.984" y="369" type="curve" smooth="yes"/>
      <point x="615.984" y="382"/>
      <point x="606.821" y="393"/>
      <point x="595.992" y="393" type="curve" smooth="yes"/>
      <point x="585.163" y="393"/>
      <point x="576" y="382"/>
      <point x="576" y="369" type="curve" smooth="yes"/>
      <point x="576" y="356"/>
      <point x="585.163" y="345"/>
    </contour>
    <contour>
      <point x="513.992" y="317" type="curve" smooth="yes"/>
      <point x="524.821" y="317"/>
      <point x="533.984" y="328"/>
      <point x="533.984" y="341" type="curve" smooth="yes"/>
      <point x="533.984" y="354"/>
      <point x="524.821" y="365"/>
      <point x="513.992" y="365" type="curve" smooth="yes"/>
      <point x="503.163" y="365"/>
      <point x="494" y="354"/>
      <point x="494" y="341" type="curve" smooth="yes"/>
      <point x="494" y="328"/>
      <point x="503.163" y="317"/>
    </contour>
    <contour>
      <point x="432.992" y="344" type="curve" smooth="yes"/>
      <point x="443.821" y="344"/>
      <point x="452.984" y="355"/>
      <point x="452.984" y="368" type="curve" smooth="yes"/>
      <point x="452.984" y="381"/>
      <point x="443.821" y="392"/>
      <point x="432.992" y="392" type="curve" smooth="yes"/>
      <point x="422.163" y="392"/>
      <point x="413" y="381"/>
      <point x="413" y="368" type="curve" smooth="yes"/>
      <point x="413" y="355"/>
      <point x="422.163" y="344"/>
    </contour>
    <contour>
      <point x="372.992" y="416" type="curve" smooth="yes"/>
      <point x="383.821" y="416"/>
      <point x="392.984" y="427"/>
      <point x="392.984" y="440" type="curve" smooth="yes"/>
      <point x="392.984" y="453"/>
      <point x="383.821" y="464"/>
      <point x="372.992" y="464" type="curve" smooth="yes"/>
      <point x="362.163" y="464"/>
      <point x="353" y="453"/>
      <point x="353" y="440" type="curve" smooth="yes"/>
      <point x="353" y="427"/>
      <point x="362.163" y="416"/>
    </contour>
    <contour>
      <point x="934" y="670" type="line"/>
      <point x="857" y="670" type="line"/>
      <point x="857" y="117" type="line" smooth="yes"/>
      <point x="857" y="84"/>
      <point x="830" y="67"/>
      <point x="776" y="67" type="curve" smooth="yes"/>
      <point x="722" y="67"/>
      <point x="694" y="84"/>
      <point x="694" y="117" type="curve" smooth="yes"/>
      <point x="694" y="137" type="line"/>
      <point x="715" y="137" type="line"/>
      <point x="715" y="195" type="line"/>
      <point x="618" y="195" type="line"/>
      <point x="618" y="117" type="line" smooth="yes"/>
      <point x="618" y="39"/>
      <point x="671" y="0"/>
      <point x="776" y="0" type="curve" smooth="yes"/>
      <point x="881" y="0"/>
      <point x="934" y="39"/>
      <point x="934" y="117" type="curve" smooth="yes"/>
    </contour>
    <contour>
      <point x="857" y="661" type="line"/>
      <point x="934" y="661" type="line"/>
      <point x="934" y="741" type="line" smooth="yes"/>
      <point x="934" y="814"/>
      <point x="906" y="885"/>
      <point x="833" y="943" type="curve" smooth="yes"/>
      <point x="749" y="1010"/>
      <point x="715" y="1029"/>
      <point x="668" y="1029" type="curve" smooth="yes"/>
      <point x="596" y="1029"/>
      <point x="564" y="966"/>
      <point x="564" y="915" type="curve" smooth="yes"/>
      <point x="564" y="861"/>
      <point x="577" y="834"/>
      <point x="623" y="834" type="curve" smooth="yes"/>
      <point x="776" y="834" type="line" smooth="yes"/>
      <point x="830" y="834"/>
      <point x="857" y="803"/>
      <point x="857" y="741" type="curve" smooth="yes"/>
    </contour>
    <contour>
      <point x="625" y="897" type="line"/>
      <point x="625" y="942"/>
      <point x="646" y="965"/>
      <point x="674" y="965" type="curve" smooth="yes"/>
      <point x="708" y="965"/>
      <point x="746" y="936"/>
      <point x="781" y="897" type="curve"/>
    </contour>
    <contour>
      <point x="767" y="974" type="line"/>
      <point x="767" y="1056" type="line"/>
      <point x="712" y="1056" type="line"/>
      <point x="712" y="1005" type="line"/>
    </contour>
    <contour>
      <point x="857" y="913" type="line"/>
      <point x="857" y="1041" type="line"/>
      <point x="801" y="1041" type="line"/>
      <point x="801" y="950" type="line"/>
    </contour>
  </outline>
</glyph>
<glyph name="uni17C0" format="2">
  <advance width="1021"/>
  <unicode hex="17C0"/>
  <note>
uni17C0
</note>
  <outline>
    <contour>
      <point x="165" y="571" type="line"/>
      <point x="88" y="571" type="line"/>
      <point x="88" y="294" type="line" smooth="yes"/>
      <point x="88" y="261"/>
      <point x="109" y="244"/>
      <point x="150" y="244" type="curve" smooth="yes"/>
      <point x="231" y="244" type="line"/>
      <point x="231" y="311" type="line"/>
      <point x="191" y="311" type="line" smooth="yes"/>
      <point x="171" y="311"/>
      <point x="165" y="319"/>
      <point x="165" y="346" type="curve" smooth="yes"/>
    </contour>
    <contour>
      <point x="88" y="550" type="line"/>
      <point x="165" y="550" type="line"/>
      <point x="165" y="604" type="line"/>
      <point x="83" y="712" type="line"/>
      <point x="83" y="713" type="line"/>
      <point x="184" y="713" type="line"/>
      <point x="184" y="780" type="line"/>
      <point x="83" y="780" type="line"/>
      <point x="38" y="709"/>
      <point x="30" y="696"/>
      <point x="30" y="685" type="curve" smooth="yes"/>
      <point x="30" y="672"/>
      <point x="35" y="665"/>
      <point x="88" y="588" type="curve"/>
    </contour>
    <contour>
      <point x="351.992" y="511" type="curve" smooth="yes"/>
      <point x="362.821" y="511"/>
      <point x="371.984" y="522"/>
      <point x="371.984" y="535" type="curve" smooth="yes"/>
      <point x="371.984" y="548"/>
      <point x="362.821" y="559"/>
      <point x="351.992" y="559" type="curve" smooth="yes"/>
      <point x="341.163" y="559"/>
      <point x="332" y="548"/>
      <point x="332" y="535" type="curve" smooth="yes"/>
      <point x="332" y="522"/>
      <point x="341.163" y="511"/>
    </contour>
    <contour>
      <point x="372.992" y="612" type="curve" smooth="yes"/>
      <point x="383.821" y="612"/>
      <point x="392.984" y="623"/>
      <point x="392.984" y="636" type="curve" smooth="yes"/>
      <point x="392.984" y="649"/>
      <point x="383.821" y="660"/>
      <point x="372.992" y="660" type="curve" smooth="yes"/>
      <point x="362.163" y="660"/>
      <point x="353" y="649"/>
      <point x="353" y="636" type="curve" smooth="yes"/>
      <point x="353" y="623"/>
      <point x="362.163" y="612"/>
    </contour>
    <contour>
      <point x="431.992" y="682" type="curve" smooth="yes"/>
      <point x="442.821" y="682"/>
      <point x="451.984" y="693"/>
      <point x="451.984" y="706" type="curve" smooth="yes"/>
      <point x="451.984" y="719"/>
      <point x="442.821" y="730"/>
      <point x="431.992" y="730" type="curve" smooth="yes"/>
      <point x="421.163" y="730"/>
      <point x="412" y="719"/>
      <point x="412" y="706" type="curve" smooth="yes"/>
      <point x="412" y="693"/>
      <point x="421.163" y="682"/>
    </contour>
    <contour>
      <point x="512.992" y="706" type="curve" smooth="yes"/>
      <point x="523.821" y="706"/>
      <point x="532.984" y="717"/>
      <point x="532.984" y="730" type="curve" smooth="yes"/>
      <point x="532.984" y="743"/>
      <point x="523.821" y="754"/>
      <point x="512.992" y="754" type="curve" smooth="yes"/>
      <point x="502.163" y="754"/>
      <point x="493" y="743"/>
      <point x="493" y="730" type="curve" smooth="yes"/>
      <point x="493" y="717"/>
      <point x="502.163" y="706"/>
    </contour>
    <contour>
      <point x="593.992" y="682" type="curve" smooth="yes"/>
      <point x="604.821" y="682"/>
      <point x="613.984" y="693"/>
      <point x="613.984" y="706" type="curve" smooth="yes"/>
      <point x="613.984" y="719"/>
      <point x="604.821" y="730"/>
      <point x="593.992" y="730" type="curve" smooth="yes"/>
      <point x="583.163" y="730"/>
      <point x="574" y="719"/>
      <point x="574" y="706" type="curve" smooth="yes"/>
      <point x="574" y="693"/>
      <point x="583.163" y="682"/>
    </contour>
    <contour>
      <point x="651.992" y="610" type="curve" smooth="yes"/>
      <point x="662.821" y="610"/>
      <point x="671.984" y="621"/>
      <point x="671.984" y="634" type="curve" smooth="yes"/>
      <point x="671.984" y="647"/>
      <point x="662.821" y="658"/>
      <point x="651.992" y="658" type="curve" smooth="yes"/>
      <point x="641.163" y="658"/>
      <point x="632" y="647"/>
      <point x="632" y="634" type="curve" smooth="yes"/>
      <point x="632" y="621"/>
      <point x="641.163" y="610"/>
    </contour>
    <contour>
      <point x="676.992" y="511" type="curve" smooth="yes"/>
      <point x="687.821" y="511"/>
      <point x="696.984" y="522"/>
      <point x="696.984" y="535" type="curve" smooth="yes"/>
      <point x="696.984" y="548"/>
      <point x="687.821" y="559"/>
      <point x="676.992" y="559" type="curve" smooth="yes"/>
      <point x="666.163" y="559"/>
      <point x="657" y="548"/>
      <point x="657" y="535" type="curve" smooth="yes"/>
      <point x="657" y="522"/>
      <point x="666.163" y="511"/>
    </contour>
    <contour>
      <point x="653.992" y="417" type="curve" smooth="yes"/>
      <point x="664.821" y="417"/>
      <point x="673.984" y="428"/>
      <point x="673.984" y="441" type="curve" smooth="yes"/>
      <point x="673.984" y="454"/>
      <point x="664.821" y="465"/>
      <point x="653.992" y="465" type="curve" smooth="yes"/>
      <point x="643.163" y="465"/>
      <point x="634" y="454"/>
      <point x="634" y="441" type="curve" smooth="yes"/>
      <point x="634" y="428"/>
      <point x="643.163" y="417"/>
    </contour>
    <contour>
      <point x="594.992" y="345" type="curve" smooth="yes"/>
      <point x="605.821" y="345"/>
      <point x="614.984" y="356"/>
      <point x="614.984" y="369" type="curve" smooth="yes"/>
      <point x="614.984" y="382"/>
      <point x="605.821" y="393"/>
      <point x="594.992" y="393" type="curve" smooth="yes"/>
      <point x="584.163" y="393"/>
      <point x="575" y="382"/>
      <point x="575" y="369" type="curve" smooth="yes"/>
      <point x="575" y="356"/>
      <point x="584.163" y="345"/>
    </contour>
    <contour>
      <point x="512.992" y="317" type="curve" smooth="yes"/>
      <point x="523.821" y="317"/>
      <point x="532.984" y="328"/>
      <point x="532.984" y="341" type="curve" smooth="yes"/>
      <point x="532.984" y="354"/>
      <point x="523.821" y="365"/>
      <point x="512.992" y="365" type="curve" smooth="yes"/>
      <point x="502.163" y="365"/>
      <point x="493" y="354"/>
      <point x="493" y="341" type="curve" smooth="yes"/>
      <point x="493" y="328"/>
      <point x="502.163" y="317"/>
    </contour>
    <contour>
      <point x="431.992" y="344" type="curve" smooth="yes"/>
      <point x="442.821" y="344"/>
      <point x="451.984" y="355"/>
      <point x="451.984" y="368" type="curve" smooth="yes"/>
      <point x="451.984" y="381"/>
      <point x="442.821" y="392"/>
      <point x="431.992" y="392" type="curve" smooth="yes"/>
      <point x="421.163" y="392"/>
      <point x="412" y="381"/>
      <point x="412" y="368" type="curve" smooth="yes"/>
      <point x="412" y="355"/>
      <point x="421.163" y="344"/>
    </contour>
    <contour>
      <point x="371.992" y="416" type="curve" smooth="yes"/>
      <point x="382.821" y="416"/>
      <point x="391.984" y="427"/>
      <point x="391.984" y="440" type="curve" smooth="yes"/>
      <point x="391.984" y="453"/>
      <point x="382.821" y="464"/>
      <point x="371.992" y="464" type="curve" smooth="yes"/>
      <point x="361.163" y="464"/>
      <point x="352" y="453"/>
      <point x="352" y="440" type="curve" smooth="yes"/>
      <point x="352" y="427"/>
      <point x="361.163" y="416"/>
    </contour>
    <contour>
      <point x="943" y="739" type="line"/>
      <point x="866" y="739" type="line"/>
      <point x="866" y="117" type="line" smooth="yes"/>
      <point x="866" y="84"/>
      <point x="839" y="67"/>
      <point x="784" y="67" type="curve" smooth="yes"/>
      <point x="730" y="67"/>
      <point x="703" y="84"/>
      <point x="703" y="117" type="curve" smooth="yes"/>
      <point x="703" y="137" type="line"/>
      <point x="724" y="137" type="line"/>
      <point x="724" y="195" type="line"/>
      <point x="627" y="195" type="line"/>
      <point x="627" y="117" type="line" smooth="yes"/>
      <point x="627" y="39"/>
      <point x="679" y="0"/>
      <point x="784" y="0" type="curve" smooth="yes"/>
      <point x="890" y="0"/>
      <point x="943" y="39"/>
      <point x="943" y="117" type="curve" smooth="yes"/>
    </contour>
    <contour>
      <point x="866" y="711" type="line"/>
      <point x="943" y="711" type="line"/>
      <point x="943" y="813" type="line" smooth="yes"/>
      <point x="943" y="931"/>
      <point x="893" y="989"/>
      <point x="791" y="989" type="curve" smooth="yes"/>
      <point x="752" y="989"/>
      <point x="724" y="977"/>
      <point x="703" y="961" type="curve"/>
      <point x="703" y="1056" type="line"/>
      <point x="627" y="1056" type="line"/>
      <point x="627" y="887" type="line"/>
      <point x="703" y="887" type="line"/>
      <point x="719" y="912"/>
      <point x="744" y="926"/>
      <point x="777" y="926" type="curve" smooth="yes"/>
      <point x="831" y="926"/>
      <point x="866" y="888"/>
      <point x="866" y="813" type="curve" smooth="yes"/>
    </contour>
  </outline>
</glyph>
<glyph name="uni17C1" format="2">
  <advance width="238"/>
  <unicode hex="17C1"/>
  <note>
uni17C1
</note>
  <outline>
    <contour>
      <point x="165" y="571" type="line"/>
      <point x="88" y="571" type="line"/>
      <point x="88" y="294" type="line" smooth="yes"/>
      <point x="88" y="261"/>
      <point x="109" y="244"/>
      <point x="150" y="244" type="curve" smooth="yes"/>
      <point x="231" y="244" type="line"/>
      <point x="231" y="311" type="line"/>
      <point x="191" y="311" type="line" smooth="yes"/>
      <point x="171" y="311"/>
      <point x="165" y="319"/>
      <point x="165" y="346" type="curve" smooth="yes"/>
    </contour>
    <contour>
      <point x="88" y="550" type="line"/>
      <point x="165" y="550" type="line"/>
      <point x="165" y="604" type="line"/>
      <point x="83" y="712" type="line"/>
      <point x="83" y="713" type="line"/>
      <point x="184" y="713" type="line"/>
      <point x="184" y="780" type="line"/>
      <point x="83" y="780" type="line"/>
      <point x="38" y="709"/>
      <point x="30" y="696"/>
      <point x="30" y="685" type="curve" smooth="yes"/>
      <point x="30" y="672"/>
      <point x="35" y="665"/>
      <point x="88" y="588" type="curve"/>
    </contour>
  </outline>
</glyph>
<glyph name="uni17C2" format="2">
  <advance width="238"/>
  <unicode hex="17C2"/>
  <note>
uni17C2
</note>
  <outline>
    <contour>
      <point x="97" y="829" type="curve" smooth="yes"/>
      <point x="171" y="829"/>
      <point x="236" y="899"/>
      <point x="236" y="1048" type="curve"/>
      <point x="173" y="1048" type="line"/>
      <point x="173" y="944"/>
      <point x="142" y="892"/>
      <point x="93" y="892" type="curve" smooth="yes"/>
      <point x="71" y="892"/>
      <point x="61" y="903"/>
      <point x="61" y="917" type="curve" smooth="yes"/>
      <point x="61" y="935"/>
      <point x="77" y="946"/>
      <point x="108" y="946" type="curve"/>
      <point x="108" y="1009" type="line"/>
      <point x="44" y="1009"/>
      <point x="0" y="976"/>
      <point x="0" y="918" type="curve" smooth="yes"/>
      <point x="0" y="856"/>
      <point x="51" y="829"/>
    </contour>
    <contour>
      <point x="165" y="571" type="line"/>
      <point x="88" y="571" type="line"/>
      <point x="88" y="294" type="line" smooth="yes"/>
      <point x="88" y="261"/>
      <point x="109" y="244"/>
      <point x="150" y="244" type="curve" smooth="yes"/>
      <point x="231" y="244" type="line"/>
      <point x="231" y="311" type="line"/>
      <point x="191" y="311" type="line" smooth="yes"/>
      <point x="171" y="311"/>
      <point x="165" y="319"/>
      <point x="165" y="346" type="curve" smooth="yes"/>
    </contour>
    <contour>
      <point x="88" y="550" type="line"/>
      <point x="165" y="550" type="line"/>
      <point x="165" y="604" type="line"/>
      <point x="83" y="712" type="line"/>
      <point x="83" y="713" type="line"/>
      <point x="184" y="713" type="line"/>
      <point x="184" y="780" type="line"/>
      <point x="83" y="780" type="line"/>
      <point x="38" y="709"/>
      <point x="30" y="696"/>
      <point x="30" y="685" type="curve" smooth="yes"/>
      <point x="30" y="672"/>
      <point x="35" y="665"/>
      <point x="88" y="588" type="curve"/>
    </contour>
  </outline>
</glyph>
<glyph name="uni17C3" format="2">
  <advance width="238"/>
  <unicode hex="17C3"/>
  <note>
uni17C3
</note>
  <outline>
    <contour>
      <point x="20" y="809" type="line"/>
      <point x="110" y="809" type="line" smooth="yes"/>
      <point x="167" y="809"/>
      <point x="220" y="848"/>
      <point x="220" y="918" type="curve" smooth="yes"/>
      <point x="220" y="971"/>
      <point x="188" y="1010"/>
      <point x="136" y="1010" type="curve" smooth="yes"/>
      <point x="111" y="1010"/>
      <point x="92" y="1001"/>
      <point x="82" y="990" type="curve"/>
      <point x="82" y="1007" type="line" smooth="yes"/>
      <point x="82" y="1041"/>
      <point x="73" y="1056"/>
      <point x="40" y="1056" type="curve" smooth="yes"/>
      <point x="0" y="1056" type="line"/>
      <point x="0" y="992" type="line"/>
      <point x="13" y="992"/>
      <point x="20" y="986"/>
      <point x="20" y="970" type="curve" smooth="yes"/>
      <point x="20" y="921" type="line"/>
      <point x="82" y="921" type="line"/>
      <point x="89" y="938"/>
      <point x="100" y="949"/>
      <point x="121" y="949" type="curve" smooth="yes"/>
      <point x="145" y="949"/>
      <point x="157" y="936"/>
      <point x="157" y="914" type="curve" smooth="yes"/>
      <point x="157" y="891"/>
      <point x="143" y="872"/>
      <point x="100" y="872" type="curve" smooth="yes"/>
      <point x="20" y="872" type="line"/>
    </contour>
    <contour>
      <point x="165" y="571" type="line"/>
      <point x="88" y="571" type="line"/>
      <point x="88" y="294" type="line" smooth="yes"/>
      <point x="88" y="261"/>
      <point x="109" y="244"/>
      <point x="150" y="244" type="curve" smooth="yes"/>
      <point x="231" y="244" type="line"/>
      <point x="231" y="311" type="line"/>
      <point x="191" y="311" type="line" smooth="yes"/>
      <point x="171" y="311"/>
      <point x="165" y="319"/>
      <point x="165" y="346" type="curve" smooth="yes"/>
    </contour>
    <contour>
      <point x="88" y="550" type="line"/>
      <point x="165" y="550" type="line"/>
      <point x="165" y="604" type="line"/>
      <point x="83" y="712" type="line"/>
      <point x="83" y="713" type="line"/>
      <point x="184" y="713" type="line"/>
      <point x="184" y="780" type="line"/>
      <point x="83" y="780" type="line"/>
      <point x="38" y="709"/>
      <point x="30" y="696"/>
      <point x="30" y="685" type="curve" smooth="yes"/>
      <point x="30" y="672"/>
      <point x="35" y="665"/>
      <point x="88" y="588" type="curve"/>
    </contour>
  </outline>
</glyph>
<glyph name="uni17C5" format="2">
  <advance width="963"/>
  <unicode hex="17C5"/>
  <note>
uni17C5
</note>
  <outline>
    <contour>
      <point x="165" y="571" type="line"/>
      <point x="88" y="571" type="line"/>
      <point x="88" y="294" type="line" smooth="yes"/>
      <point x="88" y="261"/>
      <point x="109" y="244"/>
      <point x="150" y="244" type="curve" smooth="yes"/>
      <point x="231" y="244" type="line"/>
      <point x="231" y="311" type="line"/>
      <point x="191" y="311" type="line" smooth="yes"/>
      <point x="171" y="311"/>
      <point x="165" y="319"/>
      <point x="165" y="346" type="curve" smooth="yes"/>
    </contour>
    <contour>
      <point x="88" y="550" type="line"/>
      <point x="165" y="550" type="line"/>
      <point x="165" y="604" type="line"/>
      <point x="83" y="712" type="line"/>
      <point x="83" y="713" type="line"/>
      <point x="184" y="713" type="line"/>
      <point x="184" y="780" type="line"/>
      <point x="83" y="780" type="line"/>
      <point x="38" y="709"/>
      <point x="30" y="696"/>
      <point x="30" y="685" type="curve" smooth="yes"/>
      <point x="30" y="672"/>
      <point x="35" y="665"/>
      <point x="88" y="588" type="curve"/>
    </contour>
    <contour>
      <point x="312.992" y="491" type="curve" smooth="yes"/>
      <point x="323.821" y="491"/>
      <point x="332.984" y="502"/>
      <point x="332.984" y="515" type="curve" smooth="yes"/>
      <point x="332.984" y="528"/>
      <point x="323.821" y="539"/>
      <point x="312.992" y="539" type="curve" smooth="yes"/>
      <point x="302.163" y="539"/>
      <point x="293" y="528"/>
      <point x="293" y="515" type="curve" smooth="yes"/>
      <point x="293" y="502"/>
      <point x="302.163" y="491"/>
    </contour>
    <contour>
      <point x="333.992" y="592" type="curve" smooth="yes"/>
      <point x="344.821" y="592"/>
      <point x="353.984" y="603"/>
      <point x="353.984" y="616" type="curve" smooth="yes"/>
      <point x="353.984" y="629"/>
      <point x="344.821" y="640"/>
      <point x="333.992" y="640" type="curve" smooth="yes"/>
      <point x="323.163" y="640"/>
      <point x="314" y="629"/>
      <point x="314" y="616" type="curve" smooth="yes"/>
      <point x="314" y="603"/>
      <point x="323.163" y="592"/>
    </contour>
    <contour>
      <point x="392.992" y="662" type="curve" smooth="yes"/>
      <point x="403.821" y="662"/>
      <point x="412.984" y="673"/>
      <point x="412.984" y="686" type="curve" smooth="yes"/>
      <point x="412.984" y="699"/>
      <point x="403.821" y="710"/>
      <point x="392.992" y="710" type="curve" smooth="yes"/>
      <point x="382.163" y="710"/>
      <point x="373" y="699"/>
      <point x="373" y="686" type="curve" smooth="yes"/>
      <point x="373" y="673"/>
      <point x="382.163" y="662"/>
    </contour>
    <contour>
      <point x="473.992" y="686" type="curve" smooth="yes"/>
      <point x="484.821" y="686"/>
      <point x="493.984" y="697"/>
      <point x="493.984" y="710" type="curve" smooth="yes"/>
      <point x="493.984" y="723"/>
      <point x="484.821" y="734"/>
      <point x="473.992" y="734" type="curve" smooth="yes"/>
      <point x="463.163" y="734"/>
      <point x="454" y="723"/>
      <point x="454" y="710" type="curve" smooth="yes"/>
      <point x="454" y="697"/>
      <point x="463.163" y="686"/>
    </contour>
    <contour>
      <point x="554.992" y="662" type="curve" smooth="yes"/>
      <point x="565.821" y="662"/>
      <point x="574.984" y="673"/>
      <point x="574.984" y="686" type="curve" smooth="yes"/>
      <point x="574.984" y="699"/>
      <point x="565.821" y="710"/>
      <point x="554.992" y="710" type="curve" smooth="yes"/>
      <point x="544.163" y="710"/>
      <point x="535" y="699"/>
      <point x="535" y="686" type="curve" smooth="yes"/>
      <point x="535" y="673"/>
      <point x="544.163" y="662"/>
    </contour>
    <contour>
      <point x="612.992" y="590" type="curve" smooth="yes"/>
      <point x="623.821" y="590"/>
      <point x="632.984" y="601"/>
      <point x="632.984" y="614" type="curve" smooth="yes"/>
      <point x="632.984" y="627"/>
      <point x="623.821" y="638"/>
      <point x="612.992" y="638" type="curve" smooth="yes"/>
      <point x="602.163" y="638"/>
      <point x="593" y="627"/>
      <point x="593" y="614" type="curve" smooth="yes"/>
      <point x="593" y="601"/>
      <point x="602.163" y="590"/>
    </contour>
    <contour>
      <point x="637.992" y="491" type="curve" smooth="yes"/>
      <point x="648.821" y="491"/>
      <point x="657.984" y="502"/>
      <point x="657.984" y="515" type="curve" smooth="yes"/>
      <point x="657.984" y="528"/>
      <point x="648.821" y="539"/>
      <point x="637.992" y="539" type="curve" smooth="yes"/>
      <point x="627.163" y="539"/>
      <point x="618" y="528"/>
      <point x="618" y="515" type="curve" smooth="yes"/>
      <point x="618" y="502"/>
      <point x="627.163" y="491"/>
    </contour>
    <contour>
      <point x="614.992" y="397" type="curve" smooth="yes"/>
      <point x="625.821" y="397"/>
      <point x="634.984" y="408"/>
      <point x="634.984" y="421" type="curve" smooth="yes"/>
      <point x="634.984" y="434"/>
      <point x="625.821" y="445"/>
      <point x="614.992" y="445" type="curve" smooth="yes"/>
      <point x="604.163" y="445"/>
      <point x="595" y="434"/>
      <point x="595" y="421" type="curve" smooth="yes"/>
      <point x="595" y="408"/>
      <point x="604.163" y="397"/>
    </contour>
    <contour>
      <point x="555.992" y="325" type="curve" smooth="yes"/>
      <point x="566.821" y="325"/>
      <point x="575.984" y="336"/>
      <point x="575.984" y="349" type="curve" smooth="yes"/>
      <point x="575.984" y="362"/>
      <point x="566.821" y="373"/>
      <point x="555.992" y="373" type="curve" smooth="yes"/>
      <point x="545.163" y="373"/>
      <point x="536" y="362"/>
      <point x="536" y="349" type="curve" smooth="yes"/>
      <point x="536" y="336"/>
      <point x="545.163" y="325"/>
    </contour>
    <contour>
      <point x="473.992" y="297" type="curve" smooth="yes"/>
      <point x="484.821" y="297"/>
      <point x="493.984" y="308"/>
      <point x="493.984" y="321" type="curve" smooth="yes"/>
      <point x="493.984" y="334"/>
      <point x="484.821" y="345"/>
      <point x="473.992" y="345" type="curve" smooth="yes"/>
      <point x="463.163" y="345"/>
      <point x="454" y="334"/>
      <point x="454" y="321" type="curve" smooth="yes"/>
      <point x="454" y="308"/>
      <point x="463.163" y="297"/>
    </contour>
    <contour>
      <point x="392.992" y="324" type="curve" smooth="yes"/>
      <point x="403.821" y="324"/>
      <point x="412.984" y="335"/>
      <point x="412.984" y="348" type="curve" smooth="yes"/>
      <point x="412.984" y="361"/>
      <point x="403.821" y="372"/>
      <point x="392.992" y="372" type="curve" smooth="yes"/>
      <point x="382.163" y="372"/>
      <point x="373" y="361"/>
      <point x="373" y="348" type="curve" smooth="yes"/>
      <point x="373" y="335"/>
      <point x="382.163" y="324"/>
    </contour>
    <contour>
      <point x="332.992" y="396" type="curve" smooth="yes"/>
      <point x="343.821" y="396"/>
      <point x="352.984" y="407"/>
      <point x="352.984" y="420" type="curve" smooth="yes"/>
      <point x="352.984" y="433"/>
      <point x="343.821" y="444"/>
      <point x="332.992" y="444" type="curve" smooth="yes"/>
      <point x="322.163" y="444"/>
      <point x="313" y="433"/>
      <point x="313" y="420" type="curve" smooth="yes"/>
      <point x="313" y="407"/>
      <point x="322.163" y="396"/>
    </contour>
    <contour>
      <point x="882" y="799" type="line"/>
      <point x="882" y="944" type="line" smooth="yes"/>
      <point x="882" y="1010"/>
      <point x="880" y="1048"/>
      <point x="823" y="1048" type="curve" smooth="yes"/>
      <point x="736" y="1048" type="line"/>
      <point x="736" y="981" type="line"/>
      <point x="762" y="981" type="line" smooth="yes"/>
      <point x="791" y="981"/>
      <point x="801" y="972"/>
      <point x="801" y="937" type="curve" smooth="yes"/>
      <point x="801" y="799" type="line"/>
    </contour>
    <contour>
      <point x="808" y="244" type="line"/>
      <point x="885" y="244" type="line"/>
      <point x="885" y="652" type="line" smooth="yes"/>
      <point x="885" y="737"/>
      <point x="863" y="780"/>
      <point x="767" y="780" type="curve" smooth="yes"/>
      <point x="652" y="780" type="line"/>
      <point x="652" y="713" type="line"/>
      <point x="743" y="713" type="line" smooth="yes"/>
      <point x="792" y="713"/>
      <point x="808" y="698"/>
      <point x="808" y="652" type="curve" smooth="yes"/>
    </contour>
  </outline>
</glyph>
<glyph name="uni17C6" format="2">
  <unicode hex="17C6"/>
  <note>
uni17C6
</note>
  <outline>
    <contour>
      <point x="-309" y="684" type="curve" smooth="yes"/>
      <point x="-253" y="684"/>
      <point x="-206" y="731"/>
      <point x="-206" y="787" type="curve" smooth="yes"/>
      <point x="-206" y="843"/>
      <point x="-253" y="890"/>
      <point x="-309" y="890" type="curve" smooth="yes"/>
      <point x="-365" y="890"/>
      <point x="-412" y="843"/>
      <point x="-412" y="787" type="curve" smooth="yes"/>
      <point x="-412" y="731"/>
      <point x="-365" y="684"/>
    </contour>
    <contour>
      <point x="-310" y="740" type="curve" smooth="yes"/>
      <point x="-335" y="740"/>
      <point x="-357" y="761"/>
      <point x="-357" y="787" type="curve" smooth="yes"/>
      <point x="-357" y="815"/>
      <point x="-336" y="836"/>
      <point x="-310" y="836" type="curve" smooth="yes"/>
      <point x="-283" y="836"/>
      <point x="-262" y="813"/>
      <point x="-262" y="787" type="curve" smooth="yes"/>
      <point x="-262" y="760"/>
      <point x="-284" y="740"/>
    </contour>
  </outline>
</glyph>
<glyph name="uni17C7" format="2">
  <advance width="351"/>
  <unicode hex="17C7"/>
  <note>
uni17C7
</note>
  <outline>
    <contour>
      <point x="176" y="571" type="curve" smooth="yes"/>
      <point x="232" y="571"/>
      <point x="279" y="618"/>
      <point x="279" y="674" type="curve" smooth="yes"/>
      <point x="279" y="730"/>
      <point x="232" y="777"/>
      <point x="176" y="777" type="curve" smooth="yes"/>
      <point x="120" y="777"/>
      <point x="73" y="730"/>
      <point x="73" y="674" type="curve" smooth="yes"/>
      <point x="73" y="618"/>
      <point x="120" y="571"/>
    </contour>
    <contour>
      <point x="176" y="245" type="curve" smooth="yes"/>
      <point x="232" y="245"/>
      <point x="279" y="292"/>
      <point x="279" y="348" type="curve" smooth="yes"/>
      <point x="279" y="404"/>
      <point x="232" y="451"/>
      <point x="176" y="451" type="curve" smooth="yes"/>
      <point x="120" y="451"/>
      <point x="73" y="404"/>
      <point x="73" y="348" type="curve" smooth="yes"/>
      <point x="73" y="292"/>
      <point x="120" y="245"/>
    </contour>
    <contour>
      <point x="175" y="627" type="curve" smooth="yes"/>
      <point x="150" y="627"/>
      <point x="128" y="648"/>
      <point x="128" y="674" type="curve" smooth="yes"/>
      <point x="128" y="702"/>
      <point x="149" y="723"/>
      <point x="175" y="723" type="curve" smooth="yes"/>
      <point x="202" y="723"/>
      <point x="223" y="700"/>
      <point x="223" y="674" type="curve" smooth="yes"/>
      <point x="223" y="647"/>
      <point x="201" y="627"/>
    </contour>
    <contour>
      <point x="175" y="301" type="curve" smooth="yes"/>
      <point x="150" y="301"/>
      <point x="128" y="322"/>
      <point x="128" y="348" type="curve" smooth="yes"/>
      <point x="128" y="376"/>
      <point x="149" y="397"/>
      <point x="175" y="397" type="curve" smooth="yes"/>
      <point x="202" y="397"/>
      <point x="223" y="374"/>
      <point x="223" y="348" type="curve" smooth="yes"/>
      <point x="223" y="321"/>
      <point x="201" y="301"/>
    </contour>
  </outline>
</glyph>
<glyph name="uni17C8" format="2">
  <advance width="242"/>
  <unicode hex="17C8"/>
  <note>
uni17C8
</note>
  <outline>
    <contour>
      <point x="122" y="651" type="curve" smooth="yes"/>
      <point x="143" y="651"/>
      <point x="167" y="668"/>
      <point x="167" y="695" type="curve" smooth="yes"/>
      <point x="167" y="720"/>
      <point x="147" y="740"/>
      <point x="122" y="740" type="curve" smooth="yes"/>
      <point x="97" y="740"/>
      <point x="77" y="720"/>
      <point x="77" y="695" type="curve" smooth="yes"/>
      <point x="77" y="674"/>
      <point x="96" y="651"/>
    </contour>
    <contour>
      <point x="122" y="282" type="curve" smooth="yes"/>
      <point x="143" y="282"/>
      <point x="167" y="299"/>
      <point x="167" y="327" type="curve" smooth="yes"/>
      <point x="167" y="351"/>
      <point x="147" y="371"/>
      <point x="122" y="371" type="curve" smooth="yes"/>
      <point x="97" y="371"/>
      <point x="77" y="351"/>
      <point x="77" y="327" type="curve" smooth="yes"/>
      <point x="77" y="306"/>
      <point x="96" y="282"/>
    </contour>
  </outline>
</glyph>
<glyph name="uni17C9" format="2">
  <unicode hex="17C9"/>
  <note>
uni17C9
</note>
  <outline>
    <contour>
      <point x="-404" y="684" type="line"/>
      <point x="-342" y="684" type="line"/>
      <point x="-342" y="879" type="line"/>
      <point x="-404" y="879" type="line"/>
    </contour>
    <contour>
      <point x="-277" y="684" type="line"/>
      <point x="-215" y="684" type="line"/>
      <point x="-215" y="879" type="line"/>
      <point x="-277" y="879" type="line"/>
    </contour>
  </outline>
</glyph>
<glyph name="uni17CA" format="2">
  <unicode hex="17CA"/>
  <note>
uni17CA
</note>
  <outline>
    <contour>
      <point x="-494" y="684" type="line"/>
      <point x="-127" y="684" type="line"/>
      <point x="-127" y="751" type="line"/>
      <point x="-274" y="751" type="line"/>
      <point x="-311" y="698" type="line"/>
      <point x="-347" y="751" type="line"/>
      <point x="-494" y="751" type="line"/>
    </contour>
  </outline>
</glyph>
<glyph name="uni17CB" format="2">
  <unicode hex="17CB"/>
  <note>
uni17CB
</note>
  <outline>
    <contour>
      <point x="-328" y="684" type="line"/>
      <point x="-267" y="684" type="line"/>
      <point x="-267" y="849" type="line"/>
      <point x="-328" y="849" type="line"/>
    </contour>
  </outline>
</glyph>
<glyph name="uni17CC" format="2">
  <unicode hex="17CC"/>
  <note>
uni17CC
</note>
  <outline>
    <contour>
      <point x="-426" y="674" type="line"/>
      <point x="-387" y="711"/>
      <point x="-352" y="727"/>
      <point x="-318" y="727" type="curve" smooth="yes"/>
      <point x="-290" y="727"/>
      <point x="-248" y="716"/>
      <point x="-216" y="670" type="curve"/>
      <point x="-170" y="714" type="line"/>
      <point x="-205" y="767"/>
      <point x="-255" y="787"/>
      <point x="-312" y="778" type="curve"/>
      <point x="-290" y="814"/>
      <point x="-278" y="838"/>
      <point x="-265" y="870" type="curve"/>
      <point x="-314" y="889" type="line"/>
      <point x="-326" y="856"/>
      <point x="-377" y="787"/>
      <point x="-459" y="726" type="curve"/>
    </contour>
  </outline>
</glyph>
<glyph name="uni17CD" format="2">
  <unicode hex="17CD"/>
  <note>
uni17CD
</note>
  <outline>
    <contour>
      <point x="-370" y="684" type="curve" smooth="yes"/>
      <point x="-344" y="684" type="line"/>
      <point x="-344" y="741" type="line"/>
      <point x="-366" y="741" type="line" smooth="yes"/>
      <point x="-395" y="741"/>
      <point x="-409" y="749"/>
      <point x="-409" y="767" type="curve" smooth="yes"/>
      <point x="-409" y="784"/>
      <point x="-390" y="791"/>
      <point x="-366" y="791" type="curve" smooth="yes"/>
      <point x="-305" y="791" type="line" smooth="yes"/>
      <point x="-225" y="791"/>
      <point x="-165" y="844"/>
      <point x="-165" y="903" type="curve"/>
      <point x="-237" y="903" type="line"/>
      <point x="-237" y="879"/>
      <point x="-251" y="855"/>
      <point x="-314" y="855" type="curve" smooth="yes"/>
      <point x="-360" y="855" type="line" smooth="yes"/>
      <point x="-440" y="855"/>
      <point x="-470" y="818"/>
      <point x="-470" y="771" type="curve" smooth="yes"/>
      <point x="-470" y="709"/>
      <point x="-436" y="684"/>
    </contour>
  </outline>
</glyph>
<glyph name="uni17CE" format="2">
  <unicode hex="17CE"/>
  <note>
uni17CE
</note>
  <outline>
    <contour>
      <point x="-340" y="684" type="line"/>
      <point x="-280" y="684" type="line"/>
      <point x="-280" y="763" type="line"/>
      <point x="-196" y="763" type="line"/>
      <point x="-196" y="831" type="line"/>
      <point x="-280" y="831" type="line"/>
      <point x="-280" y="910" type="line"/>
      <point x="-340" y="910" type="line"/>
      <point x="-340" y="831" type="line"/>
      <point x="-424" y="831" type="line"/>
      <point x="-424" y="763" type="line"/>
      <point x="-340" y="763" type="line"/>
    </contour>
  </outline>
</glyph>
<glyph name="uni17D0" format="2">
  <unicode hex="17D0"/>
  <note>
uni17D0
</note>
  <outline>
    <contour>
      <point x="-322.2" y="682" type="curve" smooth="yes"/>
      <point x="-207.9" y="682"/>
      <point x="-150.3" y="770"/>
      <point x="-150.3" y="902" type="curve"/>
      <point x="-213.3" y="902" type="line"/>
      <point x="-213.3" y="798"/>
      <point x="-248.4" y="745"/>
      <point x="-316.8" y="745" type="curve" smooth="yes"/>
      <point x="-362.7" y="745"/>
      <point x="-382.5" y="759"/>
      <point x="-382.5" y="783" type="curve" smooth="yes"/>
      <point x="-382.5" y="809"/>
      <point x="-359.1" y="821"/>
      <point x="-313.2" y="821" type="curve"/>
      <point x="-313.2" y="880" type="line"/>
      <point x="-394.2" y="880"/>
      <point x="-443.7" y="847"/>
      <point x="-443.7" y="779" type="curve" smooth="yes"/>
      <point x="-443.7" y="716"/>
      <point x="-389.7" y="682"/>
    </contour>
  </outline>
</glyph>
<glyph name="uni17D3" format="2">
  <unicode hex="17D3"/>
  <note>
uni17D3
</note>
  <outline>
    <contour>
      <point x="-297" y="695" type="curve" smooth="yes"/>
      <point x="-210" y="695"/>
      <point x="-135" y="738"/>
      <point x="-135" y="807" type="curve" smooth="yes"/>
      <point x="-135" y="872"/>
      <point x="-210" y="919"/>
      <point x="-297" y="919" type="curve" smooth="yes"/>
      <point x="-384" y="919"/>
      <point x="-460" y="874"/>
      <point x="-460" y="807" type="curve" smooth="yes"/>
      <point x="-460" y="743"/>
      <point x="-384" y="695"/>
    </contour>
    <contour>
      <point x="-297" y="760" type="curve" smooth="yes"/>
      <point x="-344" y="760"/>
      <point x="-385" y="781"/>
      <point x="-385" y="807" type="curve" smooth="yes"/>
      <point x="-385" y="831"/>
      <point x="-346" y="854"/>
      <point x="-297" y="854" type="curve" smooth="yes"/>
      <point x="-249" y="854"/>
      <point x="-209" y="834"/>
      <point x="-209" y="807" type="curve" smooth="yes"/>
      <point x="-209" y="782"/>
      <point x="-245" y="760"/>
    </contour>
  </outline>
</glyph>
<glyph name="uni17D5" format="2">
  <advance width="540"/>
  <unicode hex="17D5"/>
  <note>
uni17D5
</note>
  <outline>
    <contour>
      <point x="430" y="244" type="line"/>
      <point x="507" y="244" type="line"/>
      <point x="507" y="830" type="line"/>
      <point x="430" y="830" type="line"/>
    </contour>
    <contour>
      <point x="325" y="244" type="line"/>
      <point x="402" y="244" type="line"/>
      <point x="402" y="830" type="line"/>
      <point x="325" y="830" type="line"/>
      <point x="277" y="732"/>
      <point x="245" y="699"/>
      <point x="190" y="699" type="curve" smooth="yes"/>
      <point x="164" y="699"/>
      <point x="153" y="715"/>
      <point x="153" y="733" type="curve" smooth="yes"/>
      <point x="153" y="749"/>
      <point x="164" y="763"/>
      <point x="184" y="763" type="curve" smooth="yes"/>
      <point x="197" y="763" type="line"/>
      <point x="197" y="830" type="line"/>
      <point x="175" y="830" type="line" smooth="yes"/>
      <point x="126" y="830"/>
      <point x="77" y="801"/>
      <point x="77" y="732" type="curve" smooth="yes"/>
      <point x="77" y="680"/>
      <point x="126" y="632"/>
      <point x="191" y="632" type="curve" smooth="yes"/>
      <point x="250" y="632"/>
      <point x="296" y="659"/>
      <point x="325" y="706" type="curve"/>
    </contour>
  </outline>
</glyph>
<glyph name="uni17D6" format="2">
  <advance width="409"/>
  <unicode hex="17D6"/>
  <note>
uni17D6
</note>
  <outline>
    <contour>
      <point x="73" y="501" type="line"/>
      <point x="337" y="501" type="line"/>
      <point x="337" y="569" type="line"/>
      <point x="73" y="569" type="line"/>
    </contour>
    <contour>
      <point x="193" y="251" type="curve" smooth="yes"/>
      <point x="249" y="251"/>
      <point x="296" y="298"/>
      <point x="296" y="354" type="curve" smooth="yes"/>
      <point x="296" y="410"/>
      <point x="249" y="457"/>
      <point x="193" y="457" type="curve" smooth="yes"/>
      <point x="137" y="457"/>
      <point x="90" y="410"/>
      <point x="90" y="354" type="curve" smooth="yes"/>
      <point x="90" y="298"/>
      <point x="137" y="251"/>
    </contour>
    <contour>
      <point x="192" y="307" type="curve" smooth="yes"/>
      <point x="167" y="307"/>
      <point x="145" y="328"/>
      <point x="145" y="354" type="curve" smooth="yes"/>
      <point x="145" y="382"/>
      <point x="166" y="403"/>
      <point x="192" y="403" type="curve" smooth="yes"/>
      <point x="219" y="403"/>
      <point x="240" y="380"/>
      <point x="240" y="354" type="curve" smooth="yes"/>
      <point x="240" y="327"/>
      <point x="218" y="307"/>
    </contour>
    <contour>
      <point x="193" y="616" type="curve" smooth="yes"/>
      <point x="249" y="616"/>
      <point x="296" y="663"/>
      <point x="296" y="719" type="curve" smooth="yes"/>
      <point x="296" y="775"/>
      <point x="249" y="822"/>
      <point x="193" y="822" type="curve" smooth="yes"/>
      <point x="137" y="822"/>
      <point x="90" y="775"/>
      <point x="90" y="719" type="curve" smooth="yes"/>
      <point x="90" y="663"/>
      <point x="137" y="616"/>
    </contour>
    <contour>
      <point x="192" y="672" type="curve" smooth="yes"/>
      <point x="167" y="672"/>
      <point x="145" y="693"/>
      <point x="145" y="719" type="curve" smooth="yes"/>
      <point x="145" y="747"/>
      <point x="166" y="768"/>
      <point x="192" y="768" type="curve" smooth="yes"/>
      <point x="219" y="768"/>
      <point x="240" y="745"/>
      <point x="240" y="719" type="curve" smooth="yes"/>
      <point x="240" y="692"/>
      <point x="218" y="672"/>
    </contour>
  </outline>
</glyph>
<glyph name="uni17D7" format="2">
  <advance width="522"/>
  <unicode hex="17D7"/>
  <note>
uni17D7
</note>
  <outline>
    <contour>
      <point x="240" y="49" type="line"/>
      <point x="261" y="49" type="line" smooth="yes"/>
      <point x="372" y="49"/>
      <point x="422" y="103"/>
      <point x="422" y="205" type="curve" smooth="yes"/>
      <point x="422" y="830" type="line"/>
      <point x="346" y="830" type="line"/>
      <point x="316" y="777"/>
      <point x="293" y="750"/>
      <point x="272" y="750" type="curve" smooth="yes"/>
      <point x="246" y="750"/>
      <point x="234" y="830"/>
      <point x="168" y="830" type="curve" smooth="yes"/>
      <point x="117" y="830"/>
      <point x="77" y="784"/>
      <point x="77" y="720" type="curve" smooth="yes"/>
      <point x="77" y="664"/>
      <point x="113" y="619"/>
      <point x="173" y="619" type="curve" smooth="yes"/>
      <point x="194" y="619" type="line"/>
      <point x="194" y="690" type="line"/>
      <point x="187" y="690" type="line" smooth="yes"/>
      <point x="164" y="690"/>
      <point x="153" y="706"/>
      <point x="153" y="725" type="curve" smooth="yes"/>
      <point x="153" y="741"/>
      <point x="161" y="757"/>
      <point x="180" y="757" type="curve" smooth="yes"/>
      <point x="213" y="757"/>
      <point x="216" y="685"/>
      <point x="270" y="685" type="curve" smooth="yes"/>
      <point x="293" y="685"/>
      <point x="317" y="700"/>
      <point x="345" y="729" type="curve"/>
      <point x="346" y="729" type="line"/>
      <point x="346" y="205" type="line" smooth="yes"/>
      <point x="346" y="148"/>
      <point x="327" y="116"/>
      <point x="246" y="116" type="curve" smooth="yes"/>
      <point x="240" y="116" type="line"/>
    </contour>
  </outline>
</glyph>
<glyph name="uni17D8" format="2">
  <advance width="1717"/>
  <unicode hex="17D8"/>
  <note>
uni17D8
</note>
  <outline>
    <contour>
      <point x="325" y="244" type="line"/>
      <point x="402" y="244" type="line"/>
      <point x="402" y="830" type="line"/>
      <point x="325" y="830" type="line"/>
      <point x="277" y="732"/>
      <point x="245" y="699"/>
      <point x="190" y="699" type="curve" smooth="yes"/>
      <point x="164" y="699"/>
      <point x="153" y="715"/>
      <point x="153" y="733" type="curve" smooth="yes"/>
      <point x="153" y="749"/>
      <point x="164" y="763"/>
      <point x="184" y="763" type="curve" smooth="yes"/>
      <point x="197" y="763" type="line"/>
      <point x="197" y="830" type="line"/>
      <point x="175" y="830" type="line" smooth="yes"/>
      <point x="126" y="830"/>
      <point x="77" y="801"/>
      <point x="77" y="732" type="curve" smooth="yes"/>
      <point x="77" y="680"/>
      <point x="126" y="632"/>
      <point x="191" y="632" type="curve" smooth="yes"/>
      <point x="250" y="632"/>
      <point x="296" y="659"/>
      <point x="325" y="706" type="curve"/>
    </contour>
    <contour>
      <point x="1169" y="564" type="line"/>
      <point x="1092" y="564" type="line"/>
      <point x="1092" y="402" type="line" smooth="yes"/>
      <point x="1092" y="342"/>
      <point x="1062" y="311"/>
      <point x="998" y="311" type="curve" smooth="yes"/>
      <point x="936" y="311"/>
      <point x="905" y="342"/>
      <point x="905" y="402" type="curve" smooth="yes"/>
      <point x="905" y="622" type="line" smooth="yes"/>
      <point x="905" y="727"/>
      <point x="847" y="780"/>
      <point x="732" y="780" type="curve" smooth="yes"/>
      <point x="617" y="780"/>
      <point x="558" y="727"/>
      <point x="558" y="622" type="curve" smooth="yes"/>
      <point x="558" y="489" type="line"/>
      <point x="635" y="489" type="line"/>
      <point x="635" y="622" type="line" smooth="yes"/>
      <point x="635" y="682"/>
      <point x="667" y="713"/>
      <point x="732" y="713" type="curve" smooth="yes"/>
      <point x="796" y="713"/>
      <point x="828" y="682"/>
      <point x="828" y="622" type="curve" smooth="yes"/>
      <point x="828" y="402" type="line" smooth="yes"/>
      <point x="828" y="297"/>
      <point x="885" y="244"/>
      <point x="998" y="244" type="curve" smooth="yes"/>
      <point x="1112" y="244"/>
      <point x="1169" y="297"/>
      <point x="1169" y="402" type="curve" smooth="yes"/>
    </contour>
    <contour>
      <point x="558" y="504" type="line"/>
      <point x="558" y="304" type="line" smooth="yes"/>
      <point x="558" y="264"/>
      <point x="584" y="244"/>
      <point x="624" y="244" type="curve" smooth="yes"/>
      <point x="640" y="244" type="line" smooth="yes"/>
      <point x="693" y="244"/>
      <point x="736" y="288"/>
      <point x="736" y="357" type="curve" smooth="yes"/>
      <point x="736" y="431"/>
      <point x="686" y="463"/>
      <point x="635" y="463" type="curve"/>
      <point x="635" y="504" type="line" smooth="yes"/>
    </contour>
    <contour>
      <point x="635" y="311" type="curve"/>
      <point x="635" y="395" type="line"/>
      <point x="660" y="394"/>
      <point x="673" y="382"/>
      <point x="673" y="355" type="curve" smooth="yes"/>
      <point x="673" y="327"/>
      <point x="660" y="311"/>
    </contour>
    <contour>
      <point x="1092" y="550" type="line"/>
      <point x="1169" y="550" type="line"/>
      <point x="1169" y="604" type="line"/>
      <point x="1087" y="712" type="line"/>
      <point x="1087" y="713" type="line"/>
      <point x="1188" y="713" type="line"/>
      <point x="1188" y="780" type="line"/>
      <point x="1087" y="780" type="line"/>
      <point x="1042" y="709"/>
      <point x="1034" y="696"/>
      <point x="1034" y="685" type="curve" smooth="yes"/>
      <point x="1034" y="672"/>
      <point x="1039" y="665"/>
      <point x="1092" y="588" type="curve"/>
    </contour>
    <contour>
      <point x="1541" y="244" type="line"/>
      <point x="1618" y="244" type="line"/>
      <point x="1618" y="830" type="line"/>
      <point x="1541" y="830" type="line"/>
      <point x="1493" y="732"/>
      <point x="1461" y="699"/>
      <point x="1406" y="699" type="curve" smooth="yes"/>
      <point x="1380" y="699"/>
      <point x="1369" y="715"/>
      <point x="1369" y="733" type="curve" smooth="yes"/>
      <point x="1369" y="749"/>
      <point x="1380" y="763"/>
      <point x="1400" y="763" type="curve" smooth="yes"/>
      <point x="1413" y="763" type="line"/>
      <point x="1413" y="830" type="line"/>
      <point x="1391" y="830" type="line" smooth="yes"/>
      <point x="1342" y="830"/>
      <point x="1293" y="801"/>
      <point x="1293" y="732" type="curve" smooth="yes"/>
      <point x="1293" y="680"/>
      <point x="1342" y="632"/>
      <point x="1407" y="632" type="curve" smooth="yes"/>
      <point x="1466" y="632"/>
      <point x="1512" y="659"/>
      <point x="1541" y="706" type="curve"/>
    </contour>
  </outline>
</glyph>
<glyph name="uni17D9" format="2">
  <advance width="600"/>
  <unicode hex="17D9"/>
  <note>
uni17D9
</note>
  <outline>
    <contour>
      <point x="299" y="244" type="curve" smooth="yes"/>
      <point x="449" y="244"/>
      <point x="524" y="342"/>
      <point x="524" y="537" type="curve" smooth="yes"/>
      <point x="524" y="732"/>
      <point x="449" y="830"/>
      <point x="299" y="830" type="curve" smooth="yes"/>
      <point x="150" y="830"/>
      <point x="76" y="732"/>
      <point x="76" y="537" type="curve" smooth="yes"/>
      <point x="76" y="342"/>
      <point x="150" y="244"/>
    </contour>
    <contour>
      <point x="299" y="293" type="curve" smooth="yes"/>
      <point x="188" y="293"/>
      <point x="132" y="374"/>
      <point x="132" y="537" type="curve" smooth="yes"/>
      <point x="132" y="700"/>
      <point x="188" y="781"/>
      <point x="299" y="781" type="curve" smooth="yes"/>
      <point x="411" y="781"/>
      <point x="468" y="700"/>
      <point x="468" y="537" type="curve" smooth="yes"/>
      <point x="468" y="374"/>
      <point x="411" y="293"/>
    </contour>
    <contour>
      <point x="299" y="342" type="curve" smooth="yes"/>
      <point x="374" y="342"/>
      <point x="411" y="407"/>
      <point x="411" y="537" type="curve" smooth="yes"/>
      <point x="411" y="667"/>
      <point x="374" y="732"/>
      <point x="299" y="732" type="curve" smooth="yes"/>
      <point x="225" y="732"/>
      <point x="188" y="667"/>
      <point x="188" y="537" type="curve" smooth="yes"/>
      <point x="188" y="407"/>
      <point x="225" y="342"/>
    </contour>
    <contour>
      <point x="299" y="390" type="curve" smooth="yes"/>
      <point x="263" y="390"/>
      <point x="244" y="439"/>
      <point x="244" y="537" type="curve" smooth="yes"/>
      <point x="244" y="635"/>
      <point x="263" y="683"/>
      <point x="299" y="683" type="curve" smooth="yes"/>
      <point x="337" y="683"/>
      <point x="356" y="635"/>
      <point x="356" y="537" type="curve" smooth="yes"/>
      <point x="356" y="439"/>
      <point x="337" y="390"/>
    </contour>
  </outline>
</glyph>
<glyph name="uni17DA" format="2">
  <advance width="1195"/>
  <unicode hex="17DA"/>
  <note>
uni17DA
</note>
  <outline>
    <contour>
      <point x="283" y="244" type="curve" smooth="yes"/>
      <point x="394" y="244"/>
      <point x="436" y="331"/>
      <point x="512" y="509" type="curve" smooth="yes"/>
      <point x="593" y="698" type="line"/>
      <point x="699" y="297" type="line"/>
      <point x="766" y="297" type="line"/>
      <point x="850" y="647" type="line"/>
      <point x="918" y="350" type="line"/>
      <point x="979" y="350" type="line"/>
      <point x="1029" y="499" type="line"/>
      <point x="1105" y="499" type="line"/>
      <point x="1105" y="563" type="line"/>
      <point x="999" y="563" type="line"/>
      <point x="952" y="443" type="line"/>
      <point x="884" y="722" type="line"/>
      <point x="816" y="722" type="line"/>
      <point x="732" y="387" type="line"/>
      <point x="629" y="775" type="line"/>
      <point x="562" y="775" type="line"/>
      <point x="463" y="536" type="line" smooth="yes"/>
      <point x="394" y="371"/>
      <point x="351" y="307"/>
      <point x="283" y="307" type="curve" smooth="yes"/>
      <point x="224" y="307"/>
      <point x="152" y="353"/>
      <point x="152" y="539" type="curve" smooth="yes"/>
      <point x="152" y="707"/>
      <point x="203" y="767"/>
      <point x="270" y="767" type="curve" smooth="yes"/>
      <point x="331" y="767"/>
      <point x="352" y="731"/>
      <point x="352" y="691" type="curve" smooth="yes"/>
      <point x="352" y="644"/>
      <point x="334" y="601"/>
      <point x="284" y="601" type="curve"/>
      <point x="284" y="541" type="line"/>
      <point x="369" y="541"/>
      <point x="429" y="594"/>
      <point x="429" y="691" type="curve" smooth="yes"/>
      <point x="429" y="772"/>
      <point x="374" y="830"/>
      <point x="277" y="830" type="curve" smooth="yes"/>
      <point x="193" y="830"/>
      <point x="76" y="777"/>
      <point x="76" y="540" type="curve" smooth="yes"/>
      <point x="76" y="365"/>
      <point x="145" y="244"/>
    </contour>
  </outline>
</glyph>
<glyph name="uni17DB" format="2">
  <advance width="293"/>
  <unicode hex="17DB"/>
  <note>
uni17DB
</note>
  <outline>
    <contour>
      <point x="75" y="503" type="line"/>
      <point x="253" y="503" type="line"/>
      <point x="253" y="571" type="line"/>
      <point x="75" y="571" type="line"/>
    </contour>
    <contour>
      <point x="137" y="550" type="line"/>
      <point x="214" y="550" type="line"/>
      <point x="214" y="604" type="line"/>
      <point x="132" y="712" type="line"/>
      <point x="132" y="713" type="line"/>
      <point x="233" y="713" type="line"/>
      <point x="233" y="780" type="line"/>
      <point x="132" y="780" type="line"/>
      <point x="87" y="709"/>
      <point x="79" y="696"/>
      <point x="79" y="685" type="curve" smooth="yes"/>
      <point x="79" y="672"/>
      <point x="84" y="665"/>
      <point x="137" y="588" type="curve"/>
    </contour>
    <contour>
      <point x="214" y="569" type="line"/>
      <point x="137" y="569" type="line"/>
      <point x="137" y="463" type="line"/>
      <point x="86" y="463"/>
      <point x="40" y="420"/>
      <point x="40" y="352" type="curve" smooth="yes"/>
      <point x="40" y="279"/>
      <point x="82" y="244"/>
      <point x="141" y="244" type="curve" smooth="yes"/>
      <point x="156" y="244" type="line" smooth="yes"/>
      <point x="193" y="244"/>
      <point x="214" y="269"/>
      <point x="214" y="313" type="curve" smooth="yes"/>
    </contour>
    <contour>
      <point x="137" y="311" type="line"/>
      <point x="119" y="311"/>
      <point x="96" y="326"/>
      <point x="96" y="353" type="curve" smooth="yes"/>
      <point x="96" y="383"/>
      <point x="124" y="395"/>
      <point x="137" y="395" type="curve"/>
    </contour>
  </outline>
</glyph>
<glyph name="uni17DC" format="2">
  <advance width="624"/>
  <unicode hex="17DC"/>
  <note>
uni17DC
</note>
  <outline>
    <contour>
      <point x="301" y="244" type="curve" smooth="yes"/>
      <point x="442" y="244"/>
      <point x="510" y="311"/>
      <point x="510" y="409" type="curve" smooth="yes"/>
      <point x="510" y="501"/>
      <point x="447" y="537"/>
      <point x="318" y="569" type="curve" smooth="yes"/>
      <point x="230" y="591"/>
      <point x="193" y="606"/>
      <point x="193" y="667" type="curve" smooth="yes"/>
      <point x="193" y="742"/>
      <point x="250" y="766"/>
      <point x="319" y="766" type="curve" smooth="yes"/>
      <point x="379" y="766"/>
      <point x="435" y="748"/>
      <point x="435" y="705" type="curve" smooth="yes"/>
      <point x="435" y="686"/>
      <point x="424" y="673"/>
      <point x="408" y="673" type="curve"/>
      <point x="408" y="617" type="line"/>
      <point x="457" y="617"/>
      <point x="505" y="656"/>
      <point x="505" y="713" type="curve" smooth="yes"/>
      <point x="505" y="782"/>
      <point x="432" y="833"/>
      <point x="319" y="833" type="curve" smooth="yes"/>
      <point x="195" y="833"/>
      <point x="115" y="771"/>
      <point x="115" y="662" type="curve" smooth="yes"/>
      <point x="115" y="558"/>
      <point x="191" y="534"/>
      <point x="301" y="505" type="curve" smooth="yes"/>
      <point x="414" y="475"/>
      <point x="436" y="453"/>
      <point x="436" y="405" type="curve" smooth="yes"/>
      <point x="436" y="352"/>
      <point x="407" y="312"/>
      <point x="302" y="312" type="curve" smooth="yes"/>
      <point x="247" y="312"/>
      <point x="195" y="323"/>
      <point x="195" y="367" type="curve" smooth="yes"/>
      <point x="195" y="398"/>
      <point x="220" y="407"/>
      <point x="235" y="407" type="curve"/>
      <point x="235" y="463" type="line"/>
      <point x="168" y="463"/>
      <point x="115" y="432"/>
      <point x="115" y="366" type="curve" smooth="yes"/>
      <point x="115" y="288"/>
      <point x="189" y="244"/>
    </contour>
  </outline>
</glyph>
<glyph name="uni17E0" format="2">
  <advance width="522"/>
  <unicode hex="17E0"/>
  <note>
uni17E0
</note>
  <outline>
    <contour>
      <point x="261" y="244" type="curve" smooth="yes"/>
      <point x="383" y="244"/>
      <point x="444" y="306"/>
      <point x="444" y="430" type="curve" smooth="yes"/>
      <point x="444" y="644" type="line" smooth="yes"/>
      <point x="444" y="768"/>
      <point x="383" y="830"/>
      <point x="261" y="830" type="curve" smooth="yes"/>
      <point x="139" y="830"/>
      <point x="78" y="768"/>
      <point x="78" y="644" type="curve" smooth="yes"/>
      <point x="78" y="430" type="line" smooth="yes"/>
      <point x="78" y="306"/>
      <point x="139" y="244"/>
    </contour>
    <contour>
      <point x="261" y="311" type="curve" smooth="yes"/>
      <point x="190" y="311"/>
      <point x="154" y="351"/>
      <point x="154" y="430" type="curve" smooth="yes"/>
      <point x="154" y="644" type="line" smooth="yes"/>
      <point x="154" y="723"/>
      <point x="190" y="763"/>
      <point x="261" y="763" type="curve" smooth="yes"/>
      <point x="332" y="763"/>
      <point x="367" y="723"/>
      <point x="367" y="644" type="curve" smooth="yes"/>
      <point x="367" y="430" type="line" smooth="yes"/>
      <point x="367" y="351"/>
      <point x="332" y="311"/>
    </contour>
  </outline>
</glyph>
<glyph name="uni17E1" format="2">
  <advance width="522"/>
  <unicode hex="17E1"/>
  <note>
uni17E1
</note>
  <outline>
    <contour>
      <point x="261" y="244" type="curve" smooth="yes"/>
      <point x="383" y="244"/>
      <point x="444" y="296"/>
      <point x="444" y="400" type="curve" smooth="yes"/>
      <point x="444" y="674" type="line" smooth="yes"/>
      <point x="444" y="778"/>
      <point x="383" y="830"/>
      <point x="261" y="830" type="curve" smooth="yes"/>
      <point x="139" y="830"/>
      <point x="78" y="778"/>
      <point x="78" y="674" type="curve" smooth="yes"/>
      <point x="78" y="615" type="line" smooth="yes"/>
      <point x="78" y="537"/>
      <point x="121" y="498"/>
      <point x="206" y="498" type="curve" smooth="yes"/>
      <point x="261" y="498" type="line"/>
      <point x="261" y="576" type="line"/>
      <point x="206" y="576" type="line" smooth="yes"/>
      <point x="171" y="576"/>
      <point x="154" y="589"/>
      <point x="154" y="615" type="curve" smooth="yes"/>
      <point x="154" y="674" type="line" smooth="yes"/>
      <point x="154" y="733"/>
      <point x="190" y="763"/>
      <point x="261" y="763" type="curve" smooth="yes"/>
      <point x="332" y="763"/>
      <point x="367" y="733"/>
      <point x="367" y="674" type="curve" smooth="yes"/>
      <point x="367" y="400" type="line" smooth="yes"/>
      <point x="367" y="341"/>
      <point x="332" y="311"/>
      <point x="261" y="311" type="curve" smooth="yes"/>
      <point x="190" y="311"/>
      <point x="154" y="341"/>
      <point x="154" y="400" type="curve"/>
      <point x="78" y="400" type="line"/>
      <point x="78" y="296"/>
      <point x="139" y="244"/>
    </contour>
  </outline>
</glyph>
<glyph name="uni17E2" format="2">
  <advance width="630"/>
  <unicode hex="17E2"/>
  <note>
uni17E2
</note>
  <outline>
    <contour>
      <point x="320" y="244" type="curve" smooth="yes"/>
      <point x="475" y="244"/>
      <point x="552" y="309"/>
      <point x="552" y="439" type="curve" smooth="yes"/>
      <point x="552" y="830" type="line"/>
      <point x="476" y="830" type="line"/>
      <point x="392" y="745" type="line"/>
      <point x="308" y="830" type="line"/>
      <point x="232" y="830" type="line"/>
      <point x="232" y="537" type="line"/>
      <point x="329" y="537" type="line"/>
      <point x="329" y="604" type="line"/>
      <point x="308" y="604" type="line"/>
      <point x="308" y="748" type="line"/>
      <point x="392" y="663" type="line"/>
      <point x="476" y="748" type="line"/>
      <point x="476" y="439" type="line" smooth="yes"/>
      <point x="476" y="354"/>
      <point x="424" y="311"/>
      <point x="320" y="311" type="curve" smooth="yes"/>
      <point x="216" y="311"/>
      <point x="165" y="354"/>
      <point x="165" y="439" type="curve" smooth="yes"/>
      <point x="165" y="906" type="line" smooth="yes"/>
      <point x="165" y="939"/>
      <point x="162" y="952"/>
      <point x="127" y="952" type="curve" smooth="yes"/>
      <point x="48" y="952" type="line"/>
      <point x="48" y="885" type="line"/>
      <point x="89" y="885" type="line"/>
      <point x="89" y="439" type="line" smooth="yes"/>
      <point x="89" y="309"/>
      <point x="166" y="244"/>
    </contour>
  </outline>
</glyph>
<glyph name="uni17E3" format="2">
  <advance width="711"/>
  <unicode hex="17E3"/>
  <note>
uni17E3
</note>
  <outline>
    <contour>
      <point x="78" y="244" type="line"/>
      <point x="195" y="244" type="line"/>
      <point x="195" y="311" type="line"/>
      <point x="155" y="311" type="line"/>
      <point x="155" y="654" type="line" smooth="yes"/>
      <point x="155" y="726"/>
      <point x="181" y="763"/>
      <point x="236" y="763" type="curve" smooth="yes"/>
      <point x="290" y="763"/>
      <point x="317" y="726"/>
      <point x="317" y="669" type="curve" smooth="yes"/>
      <point x="317" y="244" type="line"/>
      <point x="394" y="244" type="line"/>
      <point x="394" y="669" type="line" smooth="yes"/>
      <point x="394" y="726"/>
      <point x="421" y="763"/>
      <point x="475" y="763" type="curve" smooth="yes"/>
      <point x="529" y="763"/>
      <point x="556" y="726"/>
      <point x="556" y="654" type="curve" smooth="yes"/>
      <point x="556" y="244" type="line"/>
      <point x="633" y="244" type="line"/>
      <point x="633" y="654" type="line" smooth="yes"/>
      <point x="633" y="771"/>
      <point x="581" y="830"/>
      <point x="475" y="830" type="curve" smooth="yes"/>
      <point x="421" y="830"/>
      <point x="381" y="815"/>
      <point x="355" y="786" type="curve"/>
      <point x="329" y="815"/>
      <point x="290" y="830"/>
      <point x="236" y="830" type="curve" smooth="yes"/>
      <point x="131" y="830"/>
      <point x="78" y="773"/>
      <point x="78" y="659" type="curve" smooth="yes"/>
    </contour>
  </outline>
</glyph>
<glyph name="uni17E4" format="2">
  <advance width="533"/>
  <unicode hex="17E4"/>
  <note>
uni17E4
</note>
  <outline>
    <contour>
      <point x="271" y="244" type="curve" smooth="yes"/>
      <point x="435" y="244" type="line"/>
      <point x="455" y="311" type="line"/>
      <point x="369" y="487" type="line"/>
      <point x="369" y="635" type="line"/>
      <point x="455" y="635" type="line"/>
      <point x="455" y="702" type="line"/>
      <point x="373" y="702" type="line" smooth="yes"/>
      <point x="320" y="702"/>
      <point x="292" y="683"/>
      <point x="292" y="635" type="curve" smooth="yes"/>
      <point x="292" y="463" type="line"/>
      <point x="402" y="311" type="line"/>
      <point x="271" y="311" type="line" smooth="yes"/>
      <point x="201" y="311"/>
      <point x="165" y="354"/>
      <point x="165" y="439" type="curve" smooth="yes"/>
      <point x="165" y="906" type="line" smooth="yes"/>
      <point x="165" y="933"/>
      <point x="160" y="947"/>
      <point x="126" y="947" type="curve" smooth="yes"/>
      <point x="48" y="947" type="line"/>
      <point x="48" y="880" type="line"/>
      <point x="89" y="880" type="line"/>
      <point x="89" y="439" type="line" smooth="yes"/>
      <point x="89" y="309"/>
      <point x="150" y="244"/>
    </contour>
  </outline>
</glyph>
<glyph name="uni17E5" format="2">
  <advance width="498"/>
  <unicode hex="17E5"/>
  <note>
uni17E5
</note>
  <outline>
    <contour>
      <point x="260" y="244" type="curve" smooth="yes"/>
      <point x="423" y="244" type="line"/>
      <point x="444" y="311" type="line"/>
      <point x="357" y="438" type="line"/>
      <point x="357" y="567" type="line"/>
      <point x="444" y="567" type="line"/>
      <point x="444" y="635" type="line"/>
      <point x="358" y="635" type="line" smooth="yes"/>
      <point x="310" y="635"/>
      <point x="281" y="586"/>
      <point x="281" y="537" type="curve" smooth="yes"/>
      <point x="281" y="424" type="line"/>
      <point x="383" y="311" type="line"/>
      <point x="260" y="311" type="line" smooth="yes"/>
      <point x="190" y="311"/>
      <point x="154" y="343"/>
      <point x="154" y="405" type="curve" smooth="yes"/>
      <point x="154" y="662" type="line" smooth="yes"/>
      <point x="154" y="701"/>
      <point x="170" y="721"/>
      <point x="193" y="737" type="curve"/>
      <point x="232" y="717"/>
      <point x="270" y="705"/>
      <point x="312" y="705" type="curve" smooth="yes"/>
      <point x="387" y="705"/>
      <point x="444" y="751"/>
      <point x="444" y="834" type="curve" smooth="yes"/>
      <point x="444" y="948" type="line"/>
      <point x="367" y="948" type="line"/>
      <point x="367" y="834" type="line" smooth="yes"/>
      <point x="367" y="802"/>
      <point x="346" y="773"/>
      <point x="309" y="773" type="curve" smooth="yes"/>
      <point x="289" y="773"/>
      <point x="275" y="774"/>
      <point x="248" y="783" type="curve"/>
      <point x="263" y="802"/>
      <point x="271" y="820"/>
      <point x="271" y="846" type="curve" smooth="yes"/>
      <point x="271" y="882"/>
      <point x="244" y="915"/>
      <point x="196" y="915" type="curve" smooth="yes"/>
      <point x="151" y="915"/>
      <point x="121" y="885"/>
      <point x="121" y="842" type="curve" smooth="yes"/>
      <point x="121" y="818"/>
      <point x="129" y="801"/>
      <point x="141" y="784" type="curve"/>
      <point x="97" y="759"/>
      <point x="78" y="729"/>
      <point x="78" y="663" type="curve" smooth="yes"/>
      <point x="78" y="405" type="line" smooth="yes"/>
      <point x="78" y="298"/>
      <point x="139" y="244"/>
    </contour>
  </outline>
</glyph>
<glyph name="uni17E6" format="2">
  <advance width="522"/>
  <unicode hex="17E6"/>
  <note>
uni17E6
</note>
  <outline>
    <contour>
      <point x="261" y="244" type="curve" smooth="yes"/>
      <point x="383" y="244"/>
      <point x="444" y="309"/>
      <point x="444" y="439" type="curve" smooth="yes"/>
      <point x="444" y="635" type="line" smooth="yes"/>
      <point x="444" y="765"/>
      <point x="383" y="830"/>
      <point x="261" y="830" type="curve" smooth="yes"/>
      <point x="225" y="830"/>
      <point x="189" y="821"/>
      <point x="154" y="804" type="curve"/>
      <point x="154" y="948" type="line"/>
      <point x="78" y="948" type="line"/>
      <point x="78" y="664" type="line"/>
      <point x="154" y="664" type="line"/>
      <point x="154" y="730"/>
      <point x="190" y="763"/>
      <point x="261" y="763" type="curve" smooth="yes"/>
      <point x="332" y="763"/>
      <point x="367" y="720"/>
      <point x="367" y="635" type="curve" smooth="yes"/>
      <point x="367" y="439" type="line" smooth="yes"/>
      <point x="367" y="354"/>
      <point x="332" y="311"/>
      <point x="261" y="311" type="curve" smooth="yes"/>
      <point x="190" y="311"/>
      <point x="154" y="346"/>
      <point x="154" y="415" type="curve" smooth="yes"/>
      <point x="154" y="484"/>
      <point x="176" y="519"/>
      <point x="221" y="519" type="curve" smooth="yes"/>
      <point x="281" y="519" type="line"/>
      <point x="281" y="586" type="line"/>
      <point x="221" y="586" type="line" smooth="yes"/>
      <point x="126" y="586"/>
      <point x="78" y="529"/>
      <point x="78" y="415" type="curve" smooth="yes"/>
      <point x="78" y="301"/>
      <point x="139" y="244"/>
    </contour>
  </outline>
</glyph>
<glyph name="uni17E7" format="2">
  <advance width="644"/>
  <unicode hex="17E7"/>
  <note>
uni17E7
</note>
  <outline>
    <contour>
      <point x="78" y="244" type="line"/>
      <point x="220" y="244" type="line"/>
      <point x="220" y="311" type="line"/>
      <point x="154" y="311" type="line"/>
      <point x="154" y="695" type="line" smooth="yes"/>
      <point x="154" y="736"/>
      <point x="162" y="757"/>
      <point x="178" y="757" type="curve" smooth="yes"/>
      <point x="190" y="757"/>
      <point x="207" y="742"/>
      <point x="228" y="711" type="curve" smooth="yes"/>
      <point x="235" y="701"/>
      <point x="242" y="696"/>
      <point x="250" y="696" type="curve" smooth="yes"/>
      <point x="259" y="696"/>
      <point x="266" y="701"/>
      <point x="274" y="711" type="curve" smooth="yes"/>
      <point x="295" y="741"/>
      <point x="310" y="757"/>
      <point x="324" y="757" type="curve" smooth="yes"/>
      <point x="340" y="757"/>
      <point x="348" y="736"/>
      <point x="348" y="695" type="curve" smooth="yes"/>
      <point x="348" y="364" type="line" smooth="yes"/>
      <point x="348" y="282"/>
      <point x="385" y="244"/>
      <point x="457" y="244" type="curve" smooth="yes"/>
      <point x="529" y="244"/>
      <point x="566" y="282"/>
      <point x="566" y="364" type="curve" smooth="yes"/>
      <point x="566" y="944" type="line"/>
      <point x="490" y="944" type="line"/>
      <point x="490" y="344" type="line" smooth="yes"/>
      <point x="490" y="323"/>
      <point x="474" y="311"/>
      <point x="457" y="311" type="curve" smooth="yes"/>
      <point x="440" y="311"/>
      <point x="424" y="323"/>
      <point x="424" y="344" type="curve" smooth="yes"/>
      <point x="424" y="695" type="line" smooth="yes"/>
      <point x="424" y="768"/>
      <point x="390" y="830"/>
      <point x="336" y="830" type="curve" smooth="yes"/>
      <point x="306" y="830"/>
      <point x="280" y="810"/>
      <point x="250" y="769" type="curve"/>
      <point x="222" y="810"/>
      <point x="199" y="830"/>
      <point x="166" y="830" type="curve" smooth="yes"/>
      <point x="106" y="830"/>
      <point x="78" y="768"/>
      <point x="78" y="695" type="curve" smooth="yes"/>
    </contour>
  </outline>
</glyph>
<glyph name="uni17E8" format="2">
  <advance width="522"/>
  <unicode hex="17E8"/>
  <note>
uni17E8
</note>
  <outline>
    <contour>
      <point x="78" y="244" type="line"/>
      <point x="167" y="244" type="line"/>
      <point x="261" y="347" type="line"/>
      <point x="356" y="244" type="line"/>
      <point x="444" y="244" type="line"/>
      <point x="444" y="557" type="line" smooth="yes"/>
      <point x="444" y="597"/>
      <point x="427" y="610"/>
      <point x="398" y="610" type="curve" smooth="yes"/>
      <point x="273" y="610" type="line"/>
      <point x="273" y="543" type="line"/>
      <point x="346" y="543" type="line" smooth="yes"/>
      <point x="361" y="543"/>
      <point x="367" y="536"/>
      <point x="367" y="519" type="curve" smooth="yes"/>
      <point x="367" y="326" type="line"/>
      <point x="261" y="442" type="line"/>
      <point x="154" y="325" type="line"/>
      <point x="154" y="674" type="line" smooth="yes"/>
      <point x="154" y="733"/>
      <point x="190" y="763"/>
      <point x="261" y="763" type="curve" smooth="yes"/>
      <point x="332" y="763"/>
      <point x="367" y="733"/>
      <point x="367" y="674" type="curve"/>
      <point x="444" y="674" type="line"/>
      <point x="444" y="938" type="line"/>
      <point x="367" y="938" type="line"/>
      <point x="367" y="804" type="line"/>
      <point x="333" y="821"/>
      <point x="297" y="830"/>
      <point x="261" y="830" type="curve" smooth="yes"/>
      <point x="139" y="830"/>
      <point x="78" y="778"/>
      <point x="78" y="674" type="curve" smooth="yes"/>
    </contour>
  </outline>
</glyph>
<glyph name="uni17E9" format="2">
  <advance width="522"/>
  <unicode hex="17E9"/>
  <note>
uni17E9
</note>
  <outline>
    <contour>
      <point x="261" y="244" type="curve" smooth="yes"/>
      <point x="383" y="244"/>
      <point x="444" y="299"/>
      <point x="444" y="387" type="curve" smooth="yes"/>
      <point x="444" y="463"/>
      <point x="396" y="505"/>
      <point x="301" y="505" type="curve" smooth="yes"/>
      <point x="261" y="505" type="line"/>
      <point x="261" y="443" type="line"/>
      <point x="301" y="443" type="line" smooth="yes"/>
      <point x="346" y="443"/>
      <point x="367" y="422"/>
      <point x="367" y="390" type="curve" smooth="yes"/>
      <point x="367" y="337"/>
      <point x="332" y="311"/>
      <point x="261" y="311" type="curve" smooth="yes"/>
      <point x="190" y="311"/>
      <point x="155" y="338"/>
      <point x="155" y="390" type="curve" smooth="yes"/>
      <point x="155" y="501" type="line" smooth="yes"/>
      <point x="155" y="538"/>
      <point x="171" y="557"/>
      <point x="217" y="557" type="curve" smooth="yes"/>
      <point x="383" y="557" type="line"/>
      <point x="383" y="624" type="line"/>
      <point x="217" y="624" type="line" smooth="yes"/>
      <point x="171" y="624"/>
      <point x="154" y="645"/>
      <point x="154" y="684" type="curve" smooth="yes"/>
      <point x="154" y="737"/>
      <point x="190" y="763"/>
      <point x="261" y="763" type="curve" smooth="yes"/>
      <point x="332" y="763"/>
      <point x="367" y="743"/>
      <point x="367" y="704" type="curve"/>
      <point x="444" y="704" type="line"/>
      <point x="444" y="944" type="line"/>
      <point x="367" y="944" type="line"/>
      <point x="367" y="811" type="line"/>
      <point x="333" y="824"/>
      <point x="297" y="830"/>
      <point x="261" y="830" type="curve" smooth="yes"/>
      <point x="146" y="830"/>
      <point x="78" y="783"/>
      <point x="78" y="694" type="curve" smooth="yes"/>
      <point x="78" y="638"/>
      <point x="107" y="605"/>
      <point x="134" y="591" type="curve"/>
      <point x="107" y="577"/>
      <point x="78" y="545"/>
      <point x="78" y="480" type="curve" smooth="yes"/>
      <point x="78" y="401" type="line" smooth="yes"/>
      <point x="78" y="293"/>
      <point x="139" y="244"/>
    </contour>
  </outline>
</glyph>
<glyph name="uni17F0" format="2">
  <advance width="343"/>
  <unicode hex="17F0"/>
  <note>
uni17F0
</note>
  <outline>
    <contour>
      <point x="171" y="244" type="curve" smooth="yes"/>
      <point x="257" y="244"/>
      <point x="291" y="316"/>
      <point x="291" y="415" type="curve" smooth="yes"/>
      <point x="291" y="514"/>
      <point x="257" y="586"/>
      <point x="171" y="586" type="curve" smooth="yes"/>
      <point x="86" y="586"/>
      <point x="52" y="514"/>
      <point x="52" y="415" type="curve" smooth="yes"/>
      <point x="52" y="316"/>
      <point x="86" y="244"/>
    </contour>
    <contour>
      <point x="171" y="293" type="curve" smooth="yes"/>
      <point x="130" y="293"/>
      <point x="110" y="333"/>
      <point x="110" y="415" type="curve" smooth="yes"/>
      <point x="110" y="496"/>
      <point x="130" y="537"/>
      <point x="171" y="537" type="curve" smooth="yes"/>
      <point x="212" y="537"/>
      <point x="233" y="496"/>
      <point x="233" y="415" type="curve" smooth="yes"/>
      <point x="233" y="333"/>
      <point x="212" y="293"/>
    </contour>
  </outline>
</glyph>
<glyph name="uni17F1" format="2">
  <advance width="391"/>
  <unicode hex="17F1"/>
  <note>
uni17F1
</note>
  <outline>
    <contour>
      <point x="49" y="244" type="line"/>
      <point x="100" y="244" type="line"/>
      <point x="195" y="520" type="line"/>
      <point x="291" y="244" type="line"/>
      <point x="342" y="244" type="line"/>
      <point x="224" y="586" type="line"/>
      <point x="166" y="586" type="line"/>
    </contour>
  </outline>
</glyph>
<glyph name="uni17F3" format="2">
  <advance width="613"/>
  <unicode hex="17F3"/>
  <note>
uni17F3
</note>
  <outline>
    <contour>
      <point x="464" y="586" type="line"/>
      <point x="383" y="586" type="line"/>
      <point x="306" y="318" type="line"/>
      <point x="229" y="586" type="line"/>
      <point x="148" y="586" type="line"/>
      <point x="50" y="244" type="line"/>
      <point x="109" y="244" type="line"/>
      <point x="188" y="520" type="line"/>
      <point x="268" y="244" type="line"/>
      <point x="344" y="244" type="line"/>
      <point x="423" y="520" type="line"/>
      <point x="503" y="244" type="line"/>
      <point x="563" y="244" type="line"/>
    </contour>
  </outline>
</glyph>
<glyph name="uni17F4" format="2">
  <advance width="378"/>
  <unicode hex="17F4"/>
  <note>
uni17F4
</note>
  <outline>
    <contour>
      <point x="148" y="244" type="line"/>
      <point x="230" y="244" type="line"/>
      <point x="328" y="586" type="line"/>
      <point x="268" y="586" type="line"/>
      <point x="189" y="310" type="line"/>
      <point x="109" y="586" type="line"/>
      <point x="50" y="586" type="line"/>
    </contour>
  </outline>
</glyph>
<glyph name="uni17F5" format="2">
  <advance width="342"/>
  <unicode hex="17F5"/>
  <note>
uni17F5
</note>
  <outline>
    <contour>
      <point x="172" y="244" type="curve" smooth="yes"/>
      <point x="234" y="244"/>
      <point x="261" y="285"/>
      <point x="261" y="342" type="curve" smooth="yes"/>
      <point x="261" y="384"/>
      <point x="247" y="431"/>
      <point x="204" y="478" type="curve"/>
      <point x="293" y="586" type="line"/>
      <point x="232" y="586" type="line"/>
      <point x="171" y="513" type="line"/>
      <point x="111" y="586" type="line"/>
      <point x="49" y="586" type="line"/>
      <point x="137" y="478" type="line"/>
      <point x="95" y="431"/>
      <point x="82" y="384"/>
      <point x="82" y="342" type="curve" smooth="yes"/>
      <point x="82" y="285"/>
      <point x="109" y="244"/>
    </contour>
    <contour>
      <point x="131" y="342" type="curve" smooth="yes"/>
      <point x="131" y="369"/>
      <point x="144" y="400"/>
      <point x="171" y="438" type="curve"/>
      <point x="198" y="400"/>
      <point x="212" y="369"/>
      <point x="212" y="342" type="curve" smooth="yes"/>
      <point x="211" y="312"/>
      <point x="191" y="295"/>
      <point x="171" y="296" type="curve" smooth="yes"/>
      <point x="151" y="296"/>
      <point x="131" y="313"/>
    </contour>
  </outline>
</glyph>
<glyph name="uni17F6" format="2">
  <advance width="258"/>
  <unicode hex="17F6"/>
  <note>
uni17F6
</note>
  <outline>
    <contour>
      <point x="149" y="244" type="line"/>
      <point x="208" y="244" type="line"/>
      <point x="109" y="586" type="line"/>
      <point x="50" y="586" type="line"/>
    </contour>
  </outline>
</glyph>
<glyph name="uni17F7" format="2">
  <advance width="490"/>
  <unicode hex="17F7"/>
  <note>
uni17F7
</note>
  <outline>
    <contour>
      <point x="50" y="244" type="line"/>
      <point x="108" y="244" type="line"/>
      <point x="188" y="520" type="line"/>
      <point x="268" y="244" type="line"/>
      <point x="338" y="244" type="line"/>
      <point x="440" y="586" type="line"/>
      <point x="382" y="586" type="line"/>
      <point x="305" y="318" type="line"/>
      <point x="228" y="586" type="line"/>
      <point x="148" y="586" type="line"/>
    </contour>
  </outline>
</glyph>
<glyph name="uni17F8" format="2">
  <advance width="256"/>
  <unicode hex="17F8"/>
  <note>
uni17F8
</note>
  <outline>
    <contour>
      <point x="50" y="244" type="line"/>
      <point x="107" y="244" type="line"/>
      <point x="206" y="586" type="line"/>
      <point x="148" y="586" type="line"/>
    </contour>
  </outline>
</glyph>
<glyph name="uni17F9" format="2">
  <advance width="405"/>
  <unicode hex="17F9"/>
  <note>
uni17F9
</note>
  <outline>
    <contour>
      <point x="213" y="73" type="line"/>
      <point x="314" y="73"/>
      <point x="355" y="119"/>
      <point x="355" y="190" type="curve" smooth="yes"/>
      <point x="355" y="255"/>
      <point x="318" y="293"/>
      <point x="249" y="293" type="curve" smooth="yes"/>
      <point x="135" y="293" type="line"/>
      <point x="316" y="467" type="line"/>
      <point x="288" y="521" type="line"/>
      <point x="50" y="299" type="line"/>
      <point x="78" y="234" type="line"/>
      <point x="237" y="234" type="line" smooth="yes"/>
      <point x="281" y="234"/>
      <point x="290" y="213"/>
      <point x="290" y="186" type="curve" smooth="yes"/>
      <point x="290" y="143"/>
      <point x="256" y="132"/>
      <point x="213" y="132" type="curve"/>
    </contour>
  </outline>
</glyph>
<glyph name="uni19E0" format="2">
  <advance width="522"/>
  <unicode hex="19E0"/>
  <note>
uni19E0
</note>
  <outline>
    <contour>
      <point x="261" y="458" type="curve" smooth="yes"/>
      <point x="383" y="458"/>
      <point x="444" y="520"/>
      <point x="444" y="644" type="curve" smooth="yes"/>
      <point x="444" y="858" type="line" smooth="yes"/>
      <point x="444" y="982"/>
      <point x="383" y="1044"/>
      <point x="261" y="1044" type="curve" smooth="yes"/>
      <point x="139" y="1044"/>
      <point x="78" y="982"/>
      <point x="78" y="858" type="curve" smooth="yes"/>
      <point x="78" y="644" type="line" smooth="yes"/>
      <point x="78" y="520"/>
      <point x="139" y="458"/>
    </contour>
    <contour>
      <point x="261" y="525" type="curve" smooth="yes"/>
      <point x="190" y="525"/>
      <point x="154" y="565"/>
      <point x="154" y="644" type="curve" smooth="yes"/>
      <point x="154" y="858" type="line" smooth="yes"/>
      <point x="154" y="937"/>
      <point x="190" y="977"/>
      <point x="261" y="977" type="curve" smooth="yes"/>
      <point x="332" y="977"/>
      <point x="367" y="937"/>
      <point x="367" y="858" type="curve" smooth="yes"/>
      <point x="367" y="644" type="line" smooth="yes"/>
      <point x="367" y="565"/>
      <point x="332" y="525"/>
    </contour>
    <contour>
      <point x="78" y="-271" type="line"/>
      <point x="167" y="-271" type="line"/>
      <point x="261" y="-168" type="line"/>
      <point x="356" y="-271" type="line"/>
      <point x="444" y="-271" type="line"/>
      <point x="444" y="42" type="line" smooth="yes"/>
      <point x="444" y="82"/>
      <point x="427" y="95"/>
      <point x="398" y="95" type="curve" smooth="yes"/>
      <point x="273" y="95" type="line"/>
      <point x="273" y="28" type="line"/>
      <point x="346" y="28" type="line" smooth="yes"/>
      <point x="361" y="28"/>
      <point x="367" y="21"/>
      <point x="367" y="4" type="curve" smooth="yes"/>
      <point x="367" y="-189" type="line"/>
      <point x="261" y="-73" type="line"/>
      <point x="154" y="-190" type="line"/>
      <point x="154" y="159" type="line" smooth="yes"/>
      <point x="154" y="218"/>
      <point x="190" y="248"/>
      <point x="261" y="248" type="curve" smooth="yes"/>
      <point x="332" y="248"/>
      <point x="367" y="218"/>
      <point x="367" y="159" type="curve"/>
      <point x="444" y="159" type="line"/>
      <point x="444" y="423" type="line"/>
      <point x="367" y="423" type="line"/>
      <point x="367" y="289" type="line"/>
      <point x="333" y="306"/>
      <point x="297" y="315"/>
      <point x="261" y="315" type="curve" smooth="yes"/>
      <point x="139" y="315"/>
      <point x="78" y="263"/>
      <point x="78" y="159" type="curve" smooth="yes"/>
    </contour>
  </outline>
</glyph>
<glyph name="uni19E1" format="2">
  <advance width="522"/>
  <unicode hex="19E1"/>
  <note>
uni19E1
</note>
  <outline>
    <contour>
      <point x="261" y="407" type="curve" smooth="yes"/>
      <point x="383" y="407"/>
      <point x="444" y="459"/>
      <point x="444" y="563" type="curve" smooth="yes"/>
      <point x="444" y="837" type="line" smooth="yes"/>
      <point x="444" y="941"/>
      <point x="383" y="993"/>
      <point x="261" y="993" type="curve" smooth="yes"/>
      <point x="139" y="993"/>
      <point x="78" y="941"/>
      <point x="78" y="837" type="curve" smooth="yes"/>
      <point x="78" y="778" type="line" smooth="yes"/>
      <point x="78" y="700"/>
      <point x="121" y="661"/>
      <point x="206" y="661" type="curve" smooth="yes"/>
      <point x="261" y="661" type="line"/>
      <point x="261" y="739" type="line"/>
      <point x="206" y="739" type="line" smooth="yes"/>
      <point x="171" y="739"/>
      <point x="154" y="752"/>
      <point x="154" y="778" type="curve" smooth="yes"/>
      <point x="154" y="837" type="line" smooth="yes"/>
      <point x="154" y="896"/>
      <point x="190" y="926"/>
      <point x="261" y="926" type="curve" smooth="yes"/>
      <point x="332" y="926"/>
      <point x="367" y="896"/>
      <point x="367" y="837" type="curve" smooth="yes"/>
      <point x="367" y="563" type="line" smooth="yes"/>
      <point x="367" y="504"/>
      <point x="332" y="474"/>
      <point x="261" y="474" type="curve" smooth="yes"/>
      <point x="190" y="474"/>
      <point x="154" y="504"/>
      <point x="154" y="563" type="curve"/>
      <point x="78" y="563" type="line"/>
      <point x="78" y="459"/>
      <point x="139" y="407"/>
    </contour>
    <contour>
      <point x="325" y="-271" type="line"/>
      <point x="402" y="-271" type="line"/>
      <point x="402" y="315" type="line"/>
      <point x="325" y="315" type="line"/>
      <point x="277" y="217"/>
      <point x="245" y="184"/>
      <point x="190" y="184" type="curve" smooth="yes"/>
      <point x="164" y="184"/>
      <point x="153" y="200"/>
      <point x="153" y="218" type="curve" smooth="yes"/>
      <point x="153" y="234"/>
      <point x="164" y="248"/>
      <point x="184" y="248" type="curve" smooth="yes"/>
      <point x="197" y="248" type="line"/>
      <point x="197" y="315" type="line"/>
      <point x="175" y="315" type="line" smooth="yes"/>
      <point x="126" y="315"/>
      <point x="77" y="286"/>
      <point x="77" y="217" type="curve" smooth="yes"/>
      <point x="77" y="165"/>
      <point x="126" y="117"/>
      <point x="191" y="117" type="curve" smooth="yes"/>
      <point x="250" y="117"/>
      <point x="296" y="144"/>
      <point x="325" y="191" type="curve"/>
    </contour>
  </outline>
</glyph>
<glyph name="uni19E2" format="2">
  <advance width="657"/>
  <unicode hex="19E2"/>
  <note>
uni19E2
</note>
  <outline>
    <contour>
      <point x="347" y="348" type="curve" smooth="yes"/>
      <point x="502" y="348"/>
      <point x="579" y="413"/>
      <point x="579" y="543" type="curve" smooth="yes"/>
      <point x="579" y="934" type="line"/>
      <point x="503" y="934" type="line"/>
      <point x="419" y="849" type="line"/>
      <point x="335" y="934" type="line"/>
      <point x="259" y="934" type="line"/>
      <point x="259" y="641" type="line"/>
      <point x="356" y="641" type="line"/>
      <point x="356" y="708" type="line"/>
      <point x="335" y="708" type="line"/>
      <point x="335" y="852" type="line"/>
      <point x="419" y="767" type="line"/>
      <point x="503" y="852" type="line"/>
      <point x="503" y="543" type="line" smooth="yes"/>
      <point x="503" y="458"/>
      <point x="451" y="415"/>
      <point x="347" y="415" type="curve" smooth="yes"/>
      <point x="243" y="415"/>
      <point x="192" y="458"/>
      <point x="192" y="543" type="curve" smooth="yes"/>
      <point x="192" y="1010" type="line" smooth="yes"/>
      <point x="192" y="1043"/>
      <point x="189" y="1056"/>
      <point x="154" y="1056" type="curve" smooth="yes"/>
      <point x="75" y="1056" type="line"/>
      <point x="75" y="989" type="line"/>
      <point x="116" y="989" type="line"/>
      <point x="116" y="543" type="line" smooth="yes"/>
      <point x="116" y="413"/>
      <point x="193" y="348"/>
    </contour>
    <contour>
      <point x="426" y="-271" type="line"/>
      <point x="503" y="-271" type="line"/>
      <point x="503" y="315" type="line"/>
      <point x="426" y="315" type="line"/>
      <point x="378" y="217"/>
      <point x="346" y="184"/>
      <point x="291" y="184" type="curve" smooth="yes"/>
      <point x="265" y="184"/>
      <point x="254" y="200"/>
      <point x="254" y="218" type="curve" smooth="yes"/>
      <point x="254" y="234"/>
      <point x="265" y="248"/>
      <point x="285" y="248" type="curve" smooth="yes"/>
      <point x="298" y="248" type="line"/>
      <point x="298" y="315" type="line"/>
      <point x="276" y="315" type="line" smooth="yes"/>
      <point x="227" y="315"/>
      <point x="178" y="286"/>
      <point x="178" y="217" type="curve" smooth="yes"/>
      <point x="178" y="165"/>
      <point x="227" y="117"/>
      <point x="292" y="117" type="curve" smooth="yes"/>
      <point x="351" y="117"/>
      <point x="397" y="144"/>
      <point x="426" y="191" type="curve"/>
    </contour>
  </outline>
</glyph>
